M48
;DRILL file {KiCad (5.0.0)} date 03/29/19 10:36:55
;FORMAT={-:-/ absolute / inch / decimal}
FMAT,2
INCH,TZ
T1C0.0157
T2C0.0276
T3C0.0315
T4C0.0394
T5C0.0400
T6C0.0551
T7C0.1200
%
G90
G05
M72
T1
X4.67Y-4.475
X4.92Y-3.7742
X4.92Y-3.875
X4.92Y-4.225
X4.97Y-4.225
X4.97Y-4.475
X5.07Y-4.825
X5.17Y-3.725
X5.27Y-3.675
X5.37Y-4.075
X5.3877Y-3.625
X5.4208Y-3.325
X5.66Y-3.2322
X5.72Y-3.925
X5.77Y-3.975
X5.82Y-3.375
X5.82Y-4.575
X5.8445Y-3.3486
X5.97Y-3.275
X6.02Y-3.275
X6.02Y-3.575
X6.02Y-4.725
X6.07Y-3.625
X6.07Y-4.275
X6.12Y-3.725
X6.12Y-4.675
X6.12Y-4.825
X6.1684Y-4.525
X6.1798Y-4.4652
X6.27Y-3.325
X6.37Y-3.1195
X6.37Y-3.225
X6.37Y-3.325
X6.42Y-3.125
X6.42Y-3.225
X6.42Y-4.225
X6.42Y-4.675
X6.62Y-3.175
X6.62Y-3.375
X6.62Y-3.425
X6.62Y-3.525
X6.82Y-3.175
X6.82Y-3.375
T2
X5.02Y-3.225
X5.02Y-3.425
X4.62Y-4.075
X4.62Y-4.275
X4.52Y-4.075
X4.52Y-4.275
X5.92Y-4.375
X5.92Y-4.575
X5.92Y-3.225
X5.92Y-3.425
X6.87Y-4.375
X6.87Y-4.575
T3
X5.82Y-3.075
X6.22Y-3.075
X4.82Y-3.725
X4.82Y-3.8234
X4.82Y-3.4266
X4.82Y-3.525
X7.02Y-4.125
X7.02Y-4.525
X4.42Y-3.975
X4.82Y-3.975
T4
X6.12Y-3.325
X6.12Y-3.425
X5.17Y-4.625
X5.37Y-4.325
X5.12Y-3.425
X5.1869Y-3.225
X5.2539Y-3.425
X5.3208Y-3.225
X5.3877Y-3.425
X5.4546Y-3.225
X5.5216Y-3.425
X5.5885Y-3.225
X5.6554Y-3.425
X5.7224Y-3.225
X5.7893Y-3.425
X4.42Y-4.375
X4.52Y-4.375
X4.62Y-4.375
X7.02Y-3.875
X7.02Y-3.975
X5.07Y-4.625
X5.27Y-4.625
X4.42Y-4.125
X4.42Y-4.225
X6.0507Y-4.375
X6.1176Y-4.575
X6.1846Y-4.375
X6.2515Y-4.575
X6.3184Y-4.375
X6.3854Y-4.575
X6.4523Y-4.375
X6.5192Y-4.575
X6.5861Y-4.375
X6.6531Y-4.575
X6.72Y-4.375
X5.47Y-4.325
X4.72Y-4.175
X4.72Y-4.275
X5.57Y-4.325
T5
X5.11Y-2.975
X5.21Y-2.975
X5.31Y-2.975
X5.41Y-2.975
X5.51Y-2.975
X5.61Y-2.975
X5.71Y-2.975
X5.81Y-2.975
X5.91Y-2.975
X6.01Y-2.975
X5.07Y-4.425
X5.07Y-4.525
X5.17Y-4.425
X5.17Y-4.525
X5.27Y-4.425
X5.27Y-4.525
X5.37Y-4.425
X5.37Y-4.525
X5.47Y-4.425
X5.47Y-4.525
X5.57Y-4.425
X5.57Y-4.525
X6.37Y-4.875
X6.47Y-4.875
X6.57Y-4.875
X6.67Y-4.875
X6.77Y-4.875
X6.87Y-4.875
X6.17Y-2.975
X6.27Y-2.975
X6.37Y-2.975
X6.47Y-2.975
X6.57Y-2.975
X6.67Y-2.975
X6.77Y-2.975
X6.87Y-2.975
X5.47Y-4.875
X5.57Y-4.875
X5.67Y-4.875
X5.77Y-4.875
X5.87Y-4.875
X5.97Y-4.875
X6.07Y-4.875
X6.17Y-4.875
T6
X4.57Y-3.025
X4.57Y-3.2219
X4.57Y-3.525
X4.57Y-3.7219
X4.57Y-4.625
X4.57Y-4.8219
T7
X6.97Y-3.575
X4.97Y-2.975
X6.97Y-4.675
X4.92Y-4.875
T0
M30
