G04 #@! TF.GenerationSoftware,KiCad,Pcbnew,(5.0.0)*
G04 #@! TF.CreationDate,2019-03-29T10:36:41+00:00*
G04 #@! TF.ProjectId,MotorDriverV1_0,4D6F746F7244726976657256315F302E,rev?*
G04 #@! TF.SameCoordinates,Original*
G04 #@! TF.FileFunction,Copper,L1,Top,Signal*
G04 #@! TF.FilePolarity,Positive*
%FSLAX46Y46*%
G04 Gerber Fmt 4.6, Leading zero omitted, Abs format (unit mm)*
G04 Created by KiCad (PCBNEW (5.0.0)) date 03/29/19 10:36:41*
%MOMM*%
%LPD*%
G01*
G04 APERTURE LIST*
G04 #@! TA.AperFunction,ComponentPad*
%ADD10O,1.727200X2.032000*%
G04 #@! TD*
G04 #@! TA.AperFunction,ComponentPad*
%ADD11C,4.064000*%
G04 #@! TD*
G04 #@! TA.AperFunction,Conductor*
%ADD12C,0.100000*%
G04 #@! TD*
G04 #@! TA.AperFunction,ComponentPad*
%ADD13C,2.000000*%
G04 #@! TD*
G04 #@! TA.AperFunction,ComponentPad*
%ADD14O,3.600000X2.000000*%
G04 #@! TD*
G04 #@! TA.AperFunction,ComponentPad*
%ADD15O,1.700000X1.700000*%
G04 #@! TD*
G04 #@! TA.AperFunction,ComponentPad*
%ADD16R,1.700000X1.700000*%
G04 #@! TD*
G04 #@! TA.AperFunction,ComponentPad*
%ADD17R,1.800000X1.800000*%
G04 #@! TD*
G04 #@! TA.AperFunction,ComponentPad*
%ADD18O,1.800000X1.800000*%
G04 #@! TD*
G04 #@! TA.AperFunction,ComponentPad*
%ADD19R,1.600000X1.600000*%
G04 #@! TD*
G04 #@! TA.AperFunction,ComponentPad*
%ADD20C,1.600000*%
G04 #@! TD*
G04 #@! TA.AperFunction,ComponentPad*
%ADD21C,1.400000*%
G04 #@! TD*
G04 #@! TA.AperFunction,ComponentPad*
%ADD22O,1.400000X1.400000*%
G04 #@! TD*
G04 #@! TA.AperFunction,SMDPad,CuDef*
%ADD23C,0.950000*%
G04 #@! TD*
G04 #@! TA.AperFunction,ComponentPad*
%ADD24O,1.600000X1.600000*%
G04 #@! TD*
G04 #@! TA.AperFunction,SMDPad,CuDef*
%ADD25R,0.600000X1.500000*%
G04 #@! TD*
G04 #@! TA.AperFunction,ComponentPad*
%ADD26R,1.727200X1.727200*%
G04 #@! TD*
G04 #@! TA.AperFunction,ComponentPad*
%ADD27O,1.727200X1.727200*%
G04 #@! TD*
G04 #@! TA.AperFunction,ViaPad*
%ADD28C,0.600000*%
G04 #@! TD*
G04 #@! TA.AperFunction,Conductor*
%ADD29C,0.250000*%
G04 #@! TD*
G04 #@! TA.AperFunction,Conductor*
%ADD30C,1.500000*%
G04 #@! TD*
G04 APERTURE END LIST*
D10*
G04 #@! TO.P,P1,1*
G04 #@! TO.N,N/C*
X138938000Y-123825000D03*
G04 #@! TO.P,P1,2*
X141478000Y-123825000D03*
G04 #@! TO.P,P1,3*
X144018000Y-123825000D03*
G04 #@! TO.P,P1,4*
X146558000Y-123825000D03*
G04 #@! TO.P,P1,5*
G04 #@! TO.N,+5V*
X149098000Y-123825000D03*
G04 #@! TO.P,P1,6*
G04 #@! TO.N,GND*
X151638000Y-123825000D03*
G04 #@! TO.P,P1,7*
X154178000Y-123825000D03*
G04 #@! TO.P,P1,8*
G04 #@! TO.N,/Vin*
X156718000Y-123825000D03*
G04 #@! TD*
G04 #@! TO.P,P2,1*
G04 #@! TO.N,/A0*
X161798000Y-123825000D03*
G04 #@! TO.P,P2,2*
G04 #@! TO.N,/A1*
X164338000Y-123825000D03*
G04 #@! TO.P,P2,3*
G04 #@! TO.N,N/C*
X166878000Y-123825000D03*
G04 #@! TO.P,P2,4*
X169418000Y-123825000D03*
G04 #@! TO.P,P2,5*
X171958000Y-123825000D03*
G04 #@! TO.P,P2,6*
X174498000Y-123825000D03*
G04 #@! TD*
G04 #@! TO.P,P3,1*
G04 #@! TO.N,N/C*
X129794000Y-75565000D03*
G04 #@! TO.P,P3,2*
X132334000Y-75565000D03*
G04 #@! TO.P,P3,3*
X134874000Y-75565000D03*
G04 #@! TO.P,P3,4*
G04 #@! TO.N,GND*
X137414000Y-75565000D03*
G04 #@! TO.P,P3,5*
G04 #@! TO.N,N/C*
X139954000Y-75565000D03*
G04 #@! TO.P,P3,6*
X142494000Y-75565000D03*
G04 #@! TO.P,P3,7*
X145034000Y-75565000D03*
G04 #@! TO.P,P3,8*
X147574000Y-75565000D03*
G04 #@! TO.P,P3,9*
G04 #@! TO.N,/9(\002A\002A)*
X150114000Y-75565000D03*
G04 #@! TO.P,P3,10*
G04 #@! TO.N,/8*
X152654000Y-75565000D03*
G04 #@! TD*
G04 #@! TO.P,P4,1*
G04 #@! TO.N,/7*
X156718000Y-75565000D03*
G04 #@! TO.P,P4,2*
G04 #@! TO.N,/6(\002A\002A)*
X159258000Y-75565000D03*
G04 #@! TO.P,P4,3*
G04 #@! TO.N,/5(\002A\002A)*
X161798000Y-75565000D03*
G04 #@! TO.P,P4,4*
G04 #@! TO.N,/4*
X164338000Y-75565000D03*
G04 #@! TO.P,P4,5*
G04 #@! TO.N,/3(\002A\002A)*
X166878000Y-75565000D03*
G04 #@! TO.P,P4,6*
G04 #@! TO.N,/2*
X169418000Y-75565000D03*
G04 #@! TO.P,P4,7*
G04 #@! TO.N,N/C*
X171958000Y-75565000D03*
G04 #@! TO.P,P4,8*
X174498000Y-75565000D03*
G04 #@! TD*
D11*
G04 #@! TO.P,P5,1*
G04 #@! TO.N,N/C*
X124968000Y-123825000D03*
G04 #@! TD*
G04 #@! TO.P,P6,1*
G04 #@! TO.N,N/C*
X177038000Y-118745000D03*
G04 #@! TD*
G04 #@! TO.P,P7,1*
G04 #@! TO.N,N/C*
X126238000Y-75565000D03*
G04 #@! TD*
G04 #@! TO.P,P8,1*
G04 #@! TO.N,N/C*
X177038000Y-90805000D03*
G04 #@! TD*
D12*
G04 #@! TO.N,GND*
G04 #@! TO.C,J1*
G36*
X117652504Y-88536204D02*
X117676773Y-88539804D01*
X117700571Y-88545765D01*
X117723671Y-88554030D01*
X117745849Y-88564520D01*
X117766893Y-88577133D01*
X117786598Y-88591747D01*
X117804777Y-88608223D01*
X117821253Y-88626402D01*
X117835867Y-88646107D01*
X117848480Y-88667151D01*
X117858970Y-88689329D01*
X117867235Y-88712429D01*
X117873196Y-88736227D01*
X117876796Y-88760496D01*
X117878000Y-88785000D01*
X117878000Y-90285000D01*
X117876796Y-90309504D01*
X117873196Y-90333773D01*
X117867235Y-90357571D01*
X117858970Y-90380671D01*
X117848480Y-90402849D01*
X117835867Y-90423893D01*
X117821253Y-90443598D01*
X117804777Y-90461777D01*
X117786598Y-90478253D01*
X117766893Y-90492867D01*
X117745849Y-90505480D01*
X117723671Y-90515970D01*
X117700571Y-90524235D01*
X117676773Y-90530196D01*
X117652504Y-90533796D01*
X117628000Y-90535000D01*
X114528000Y-90535000D01*
X114503496Y-90533796D01*
X114479227Y-90530196D01*
X114455429Y-90524235D01*
X114432329Y-90515970D01*
X114410151Y-90505480D01*
X114389107Y-90492867D01*
X114369402Y-90478253D01*
X114351223Y-90461777D01*
X114334747Y-90443598D01*
X114320133Y-90423893D01*
X114307520Y-90402849D01*
X114297030Y-90380671D01*
X114288765Y-90357571D01*
X114282804Y-90333773D01*
X114279204Y-90309504D01*
X114278000Y-90285000D01*
X114278000Y-88785000D01*
X114279204Y-88760496D01*
X114282804Y-88736227D01*
X114288765Y-88712429D01*
X114297030Y-88689329D01*
X114307520Y-88667151D01*
X114320133Y-88646107D01*
X114334747Y-88626402D01*
X114351223Y-88608223D01*
X114369402Y-88591747D01*
X114389107Y-88577133D01*
X114410151Y-88564520D01*
X114432329Y-88554030D01*
X114455429Y-88545765D01*
X114479227Y-88539804D01*
X114503496Y-88536204D01*
X114528000Y-88535000D01*
X117628000Y-88535000D01*
X117652504Y-88536204D01*
X117652504Y-88536204D01*
G37*
D13*
G04 #@! TD*
G04 #@! TO.P,J1,1*
G04 #@! TO.N,GND*
X116078000Y-89535000D03*
D14*
G04 #@! TO.P,J1,2*
G04 #@! TO.N,/Vs*
X116078000Y-94535000D03*
G04 #@! TD*
D15*
G04 #@! TO.P,J2,2*
G04 #@! TO.N,Net-(C2-Pad1)*
X119888000Y-108585000D03*
D16*
G04 #@! TO.P,J2,1*
G04 #@! TO.N,/Vs*
X119888000Y-106045000D03*
G04 #@! TD*
D15*
G04 #@! TO.P,J3,2*
G04 #@! TO.N,/BR1*
X178308000Y-98425000D03*
D16*
G04 #@! TO.P,J3,1*
G04 #@! TO.N,GND*
X178308000Y-100965000D03*
G04 #@! TD*
G04 #@! TO.P,J4,1*
G04 #@! TO.N,GND*
X155448000Y-84455000D03*
D15*
G04 #@! TO.P,J4,2*
G04 #@! TO.N,/BR2*
X155448000Y-86995000D03*
G04 #@! TD*
D12*
G04 #@! TO.N,Net-(C5-Pad1)*
G04 #@! TO.C,J5*
G36*
X117652504Y-116476204D02*
X117676773Y-116479804D01*
X117700571Y-116485765D01*
X117723671Y-116494030D01*
X117745849Y-116504520D01*
X117766893Y-116517133D01*
X117786598Y-116531747D01*
X117804777Y-116548223D01*
X117821253Y-116566402D01*
X117835867Y-116586107D01*
X117848480Y-116607151D01*
X117858970Y-116629329D01*
X117867235Y-116652429D01*
X117873196Y-116676227D01*
X117876796Y-116700496D01*
X117878000Y-116725000D01*
X117878000Y-118225000D01*
X117876796Y-118249504D01*
X117873196Y-118273773D01*
X117867235Y-118297571D01*
X117858970Y-118320671D01*
X117848480Y-118342849D01*
X117835867Y-118363893D01*
X117821253Y-118383598D01*
X117804777Y-118401777D01*
X117786598Y-118418253D01*
X117766893Y-118432867D01*
X117745849Y-118445480D01*
X117723671Y-118455970D01*
X117700571Y-118464235D01*
X117676773Y-118470196D01*
X117652504Y-118473796D01*
X117628000Y-118475000D01*
X114528000Y-118475000D01*
X114503496Y-118473796D01*
X114479227Y-118470196D01*
X114455429Y-118464235D01*
X114432329Y-118455970D01*
X114410151Y-118445480D01*
X114389107Y-118432867D01*
X114369402Y-118418253D01*
X114351223Y-118401777D01*
X114334747Y-118383598D01*
X114320133Y-118363893D01*
X114307520Y-118342849D01*
X114297030Y-118320671D01*
X114288765Y-118297571D01*
X114282804Y-118273773D01*
X114279204Y-118249504D01*
X114278000Y-118225000D01*
X114278000Y-116725000D01*
X114279204Y-116700496D01*
X114282804Y-116676227D01*
X114288765Y-116652429D01*
X114297030Y-116629329D01*
X114307520Y-116607151D01*
X114320133Y-116586107D01*
X114334747Y-116566402D01*
X114351223Y-116548223D01*
X114369402Y-116531747D01*
X114389107Y-116517133D01*
X114410151Y-116504520D01*
X114432329Y-116494030D01*
X114455429Y-116485765D01*
X114479227Y-116479804D01*
X114503496Y-116476204D01*
X114528000Y-116475000D01*
X117628000Y-116475000D01*
X117652504Y-116476204D01*
X117652504Y-116476204D01*
G37*
D13*
G04 #@! TD*
G04 #@! TO.P,J5,1*
G04 #@! TO.N,Net-(C5-Pad1)*
X116078000Y-117475000D03*
D14*
G04 #@! TO.P,J5,2*
G04 #@! TO.N,Net-(C6-Pad2)*
X116078000Y-122475000D03*
G04 #@! TD*
G04 #@! TO.P,J6,2*
G04 #@! TO.N,Net-(C8-Pad2)*
X116078000Y-81835000D03*
D12*
G04 #@! TD*
G04 #@! TO.N,Net-(C7-Pad1)*
G04 #@! TO.C,J6*
G36*
X117652504Y-75836204D02*
X117676773Y-75839804D01*
X117700571Y-75845765D01*
X117723671Y-75854030D01*
X117745849Y-75864520D01*
X117766893Y-75877133D01*
X117786598Y-75891747D01*
X117804777Y-75908223D01*
X117821253Y-75926402D01*
X117835867Y-75946107D01*
X117848480Y-75967151D01*
X117858970Y-75989329D01*
X117867235Y-76012429D01*
X117873196Y-76036227D01*
X117876796Y-76060496D01*
X117878000Y-76085000D01*
X117878000Y-77585000D01*
X117876796Y-77609504D01*
X117873196Y-77633773D01*
X117867235Y-77657571D01*
X117858970Y-77680671D01*
X117848480Y-77702849D01*
X117835867Y-77723893D01*
X117821253Y-77743598D01*
X117804777Y-77761777D01*
X117786598Y-77778253D01*
X117766893Y-77792867D01*
X117745849Y-77805480D01*
X117723671Y-77815970D01*
X117700571Y-77824235D01*
X117676773Y-77830196D01*
X117652504Y-77833796D01*
X117628000Y-77835000D01*
X114528000Y-77835000D01*
X114503496Y-77833796D01*
X114479227Y-77830196D01*
X114455429Y-77824235D01*
X114432329Y-77815970D01*
X114410151Y-77805480D01*
X114389107Y-77792867D01*
X114369402Y-77778253D01*
X114351223Y-77761777D01*
X114334747Y-77743598D01*
X114320133Y-77723893D01*
X114307520Y-77702849D01*
X114297030Y-77680671D01*
X114288765Y-77657571D01*
X114282804Y-77633773D01*
X114279204Y-77609504D01*
X114278000Y-77585000D01*
X114278000Y-76085000D01*
X114279204Y-76060496D01*
X114282804Y-76036227D01*
X114288765Y-76012429D01*
X114297030Y-75989329D01*
X114307520Y-75967151D01*
X114320133Y-75946107D01*
X114334747Y-75926402D01*
X114351223Y-75908223D01*
X114369402Y-75891747D01*
X114389107Y-75877133D01*
X114410151Y-75864520D01*
X114432329Y-75854030D01*
X114455429Y-75845765D01*
X114479227Y-75839804D01*
X114503496Y-75836204D01*
X114528000Y-75835000D01*
X117628000Y-75835000D01*
X117652504Y-75836204D01*
X117652504Y-75836204D01*
G37*
D13*
G04 #@! TO.P,J6,1*
G04 #@! TO.N,Net-(C7-Pad1)*
X116078000Y-76835000D03*
G04 #@! TD*
D17*
G04 #@! TO.P,U3,1*
G04 #@! TO.N,Net-(C5-Pad2)*
X170688000Y-111125000D03*
D18*
G04 #@! TO.P,U3,2*
G04 #@! TO.N,Net-(C5-Pad1)*
X168988000Y-116205000D03*
G04 #@! TO.P,U3,3*
G04 #@! TO.N,/2*
X167288000Y-111125000D03*
G04 #@! TO.P,U3,4*
G04 #@! TO.N,/BR1*
X165588000Y-116205000D03*
G04 #@! TO.P,U3,5*
G04 #@! TO.N,/3(\002A\002A)*
X163888000Y-111125000D03*
G04 #@! TO.P,U3,6*
G04 #@! TO.N,/Vs*
X162188000Y-116205000D03*
G04 #@! TO.P,U3,7*
G04 #@! TO.N,GND*
X160488000Y-111125000D03*
G04 #@! TO.P,U3,8*
G04 #@! TO.N,/CSEN1*
X158788000Y-116205000D03*
G04 #@! TO.P,U3,9*
G04 #@! TO.N,/TF1*
X157088000Y-111125000D03*
G04 #@! TO.P,U3,10*
G04 #@! TO.N,Net-(C6-Pad2)*
X155388000Y-116205000D03*
G04 #@! TO.P,U3,11*
G04 #@! TO.N,Net-(C6-Pad1)*
X153688000Y-111125000D03*
G04 #@! TD*
G04 #@! TO.P,U4,11*
G04 #@! TO.N,Net-(C8-Pad1)*
X147048000Y-86995000D03*
G04 #@! TO.P,U4,10*
G04 #@! TO.N,Net-(C8-Pad2)*
X145348000Y-81915000D03*
G04 #@! TO.P,U4,9*
G04 #@! TO.N,/TF2*
X143648000Y-86995000D03*
G04 #@! TO.P,U4,8*
G04 #@! TO.N,/CSEN2*
X141948000Y-81915000D03*
G04 #@! TO.P,U4,7*
G04 #@! TO.N,GND*
X140248000Y-86995000D03*
G04 #@! TO.P,U4,6*
G04 #@! TO.N,/Vs*
X138548000Y-81915000D03*
G04 #@! TO.P,U4,5*
G04 #@! TO.N,/5(\002A\002A)*
X136848000Y-86995000D03*
G04 #@! TO.P,U4,4*
G04 #@! TO.N,/BR2*
X135148000Y-81915000D03*
G04 #@! TO.P,U4,3*
G04 #@! TO.N,/4*
X133448000Y-86995000D03*
G04 #@! TO.P,U4,2*
G04 #@! TO.N,Net-(C7-Pad1)*
X131748000Y-81915000D03*
D17*
G04 #@! TO.P,U4,1*
G04 #@! TO.N,Net-(C7-Pad2)*
X130048000Y-86995000D03*
G04 #@! TD*
D19*
G04 #@! TO.P,C1,1*
G04 #@! TO.N,/Vs*
X122428000Y-94615000D03*
D20*
G04 #@! TO.P,C1,2*
G04 #@! TO.N,GND*
X122428000Y-97115000D03*
G04 #@! TD*
D21*
G04 #@! TO.P,C2,1*
G04 #@! TO.N,Net-(C2-Pad1)*
X117348000Y-108585000D03*
D22*
G04 #@! TO.P,C2,2*
G04 #@! TO.N,GND*
X117348000Y-103505000D03*
G04 #@! TD*
D19*
G04 #@! TO.P,C3,1*
G04 #@! TO.N,/Vs*
X122428000Y-89535000D03*
D20*
G04 #@! TO.P,C3,2*
G04 #@! TO.N,GND*
X122428000Y-87035000D03*
G04 #@! TD*
D22*
G04 #@! TO.P,C4,2*
G04 #@! TO.N,GND*
X114808000Y-103505000D03*
D21*
G04 #@! TO.P,C4,1*
G04 #@! TO.N,/Vin*
X114808000Y-108585000D03*
G04 #@! TD*
D22*
G04 #@! TO.P,C5,2*
G04 #@! TO.N,Net-(C5-Pad2)*
X174498000Y-111125000D03*
D21*
G04 #@! TO.P,C5,1*
G04 #@! TO.N,Net-(C5-Pad1)*
X174498000Y-116205000D03*
G04 #@! TD*
G04 #@! TO.P,C6,1*
G04 #@! TO.N,Net-(C6-Pad1)*
X150368000Y-111125000D03*
D22*
G04 #@! TO.P,C6,2*
G04 #@! TO.N,Net-(C6-Pad2)*
X150368000Y-116205000D03*
G04 #@! TD*
G04 #@! TO.P,C7,2*
G04 #@! TO.N,Net-(C7-Pad2)*
X127508000Y-86995000D03*
D21*
G04 #@! TO.P,C7,1*
G04 #@! TO.N,Net-(C7-Pad1)*
X127508000Y-81915000D03*
G04 #@! TD*
G04 #@! TO.P,C8,1*
G04 #@! TO.N,Net-(C8-Pad1)*
X150368000Y-86995000D03*
D22*
G04 #@! TO.P,C8,2*
G04 #@! TO.N,Net-(C8-Pad2)*
X150368000Y-81915000D03*
G04 #@! TD*
D12*
G04 #@! TO.N,Net-(D1-Pad2)*
G04 #@! TO.C,D1*
G36*
X175683779Y-81441144D02*
X175706834Y-81444563D01*
X175729443Y-81450227D01*
X175751387Y-81458079D01*
X175772457Y-81468044D01*
X175792448Y-81480026D01*
X175811168Y-81493910D01*
X175828438Y-81509562D01*
X175844090Y-81526832D01*
X175857974Y-81545552D01*
X175869956Y-81565543D01*
X175879921Y-81586613D01*
X175887773Y-81608557D01*
X175893437Y-81631166D01*
X175896856Y-81654221D01*
X175898000Y-81677500D01*
X175898000Y-82152500D01*
X175896856Y-82175779D01*
X175893437Y-82198834D01*
X175887773Y-82221443D01*
X175879921Y-82243387D01*
X175869956Y-82264457D01*
X175857974Y-82284448D01*
X175844090Y-82303168D01*
X175828438Y-82320438D01*
X175811168Y-82336090D01*
X175792448Y-82349974D01*
X175772457Y-82361956D01*
X175751387Y-82371921D01*
X175729443Y-82379773D01*
X175706834Y-82385437D01*
X175683779Y-82388856D01*
X175660500Y-82390000D01*
X175085500Y-82390000D01*
X175062221Y-82388856D01*
X175039166Y-82385437D01*
X175016557Y-82379773D01*
X174994613Y-82371921D01*
X174973543Y-82361956D01*
X174953552Y-82349974D01*
X174934832Y-82336090D01*
X174917562Y-82320438D01*
X174901910Y-82303168D01*
X174888026Y-82284448D01*
X174876044Y-82264457D01*
X174866079Y-82243387D01*
X174858227Y-82221443D01*
X174852563Y-82198834D01*
X174849144Y-82175779D01*
X174848000Y-82152500D01*
X174848000Y-81677500D01*
X174849144Y-81654221D01*
X174852563Y-81631166D01*
X174858227Y-81608557D01*
X174866079Y-81586613D01*
X174876044Y-81565543D01*
X174888026Y-81545552D01*
X174901910Y-81526832D01*
X174917562Y-81509562D01*
X174934832Y-81493910D01*
X174953552Y-81480026D01*
X174973543Y-81468044D01*
X174994613Y-81458079D01*
X175016557Y-81450227D01*
X175039166Y-81444563D01*
X175062221Y-81441144D01*
X175085500Y-81440000D01*
X175660500Y-81440000D01*
X175683779Y-81441144D01*
X175683779Y-81441144D01*
G37*
D23*
G04 #@! TD*
G04 #@! TO.P,D1,2*
G04 #@! TO.N,Net-(D1-Pad2)*
X175373000Y-81915000D03*
D12*
G04 #@! TO.N,Net-(D1-Pad1)*
G04 #@! TO.C,D1*
G36*
X173933779Y-81441144D02*
X173956834Y-81444563D01*
X173979443Y-81450227D01*
X174001387Y-81458079D01*
X174022457Y-81468044D01*
X174042448Y-81480026D01*
X174061168Y-81493910D01*
X174078438Y-81509562D01*
X174094090Y-81526832D01*
X174107974Y-81545552D01*
X174119956Y-81565543D01*
X174129921Y-81586613D01*
X174137773Y-81608557D01*
X174143437Y-81631166D01*
X174146856Y-81654221D01*
X174148000Y-81677500D01*
X174148000Y-82152500D01*
X174146856Y-82175779D01*
X174143437Y-82198834D01*
X174137773Y-82221443D01*
X174129921Y-82243387D01*
X174119956Y-82264457D01*
X174107974Y-82284448D01*
X174094090Y-82303168D01*
X174078438Y-82320438D01*
X174061168Y-82336090D01*
X174042448Y-82349974D01*
X174022457Y-82361956D01*
X174001387Y-82371921D01*
X173979443Y-82379773D01*
X173956834Y-82385437D01*
X173933779Y-82388856D01*
X173910500Y-82390000D01*
X173335500Y-82390000D01*
X173312221Y-82388856D01*
X173289166Y-82385437D01*
X173266557Y-82379773D01*
X173244613Y-82371921D01*
X173223543Y-82361956D01*
X173203552Y-82349974D01*
X173184832Y-82336090D01*
X173167562Y-82320438D01*
X173151910Y-82303168D01*
X173138026Y-82284448D01*
X173126044Y-82264457D01*
X173116079Y-82243387D01*
X173108227Y-82221443D01*
X173102563Y-82198834D01*
X173099144Y-82175779D01*
X173098000Y-82152500D01*
X173098000Y-81677500D01*
X173099144Y-81654221D01*
X173102563Y-81631166D01*
X173108227Y-81608557D01*
X173116079Y-81586613D01*
X173126044Y-81565543D01*
X173138026Y-81545552D01*
X173151910Y-81526832D01*
X173167562Y-81509562D01*
X173184832Y-81493910D01*
X173203552Y-81480026D01*
X173223543Y-81468044D01*
X173244613Y-81458079D01*
X173266557Y-81450227D01*
X173289166Y-81444563D01*
X173312221Y-81441144D01*
X173335500Y-81440000D01*
X173910500Y-81440000D01*
X173933779Y-81441144D01*
X173933779Y-81441144D01*
G37*
D23*
G04 #@! TD*
G04 #@! TO.P,D1,1*
G04 #@! TO.N,Net-(D1-Pad1)*
X173623000Y-81915000D03*
D12*
G04 #@! TO.N,Net-(D2-Pad1)*
G04 #@! TO.C,D2*
G36*
X173933779Y-78901144D02*
X173956834Y-78904563D01*
X173979443Y-78910227D01*
X174001387Y-78918079D01*
X174022457Y-78928044D01*
X174042448Y-78940026D01*
X174061168Y-78953910D01*
X174078438Y-78969562D01*
X174094090Y-78986832D01*
X174107974Y-79005552D01*
X174119956Y-79025543D01*
X174129921Y-79046613D01*
X174137773Y-79068557D01*
X174143437Y-79091166D01*
X174146856Y-79114221D01*
X174148000Y-79137500D01*
X174148000Y-79612500D01*
X174146856Y-79635779D01*
X174143437Y-79658834D01*
X174137773Y-79681443D01*
X174129921Y-79703387D01*
X174119956Y-79724457D01*
X174107974Y-79744448D01*
X174094090Y-79763168D01*
X174078438Y-79780438D01*
X174061168Y-79796090D01*
X174042448Y-79809974D01*
X174022457Y-79821956D01*
X174001387Y-79831921D01*
X173979443Y-79839773D01*
X173956834Y-79845437D01*
X173933779Y-79848856D01*
X173910500Y-79850000D01*
X173335500Y-79850000D01*
X173312221Y-79848856D01*
X173289166Y-79845437D01*
X173266557Y-79839773D01*
X173244613Y-79831921D01*
X173223543Y-79821956D01*
X173203552Y-79809974D01*
X173184832Y-79796090D01*
X173167562Y-79780438D01*
X173151910Y-79763168D01*
X173138026Y-79744448D01*
X173126044Y-79724457D01*
X173116079Y-79703387D01*
X173108227Y-79681443D01*
X173102563Y-79658834D01*
X173099144Y-79635779D01*
X173098000Y-79612500D01*
X173098000Y-79137500D01*
X173099144Y-79114221D01*
X173102563Y-79091166D01*
X173108227Y-79068557D01*
X173116079Y-79046613D01*
X173126044Y-79025543D01*
X173138026Y-79005552D01*
X173151910Y-78986832D01*
X173167562Y-78969562D01*
X173184832Y-78953910D01*
X173203552Y-78940026D01*
X173223543Y-78928044D01*
X173244613Y-78918079D01*
X173266557Y-78910227D01*
X173289166Y-78904563D01*
X173312221Y-78901144D01*
X173335500Y-78900000D01*
X173910500Y-78900000D01*
X173933779Y-78901144D01*
X173933779Y-78901144D01*
G37*
D23*
G04 #@! TD*
G04 #@! TO.P,D2,1*
G04 #@! TO.N,Net-(D2-Pad1)*
X173623000Y-79375000D03*
D12*
G04 #@! TO.N,Net-(D2-Pad2)*
G04 #@! TO.C,D2*
G36*
X175683779Y-78901144D02*
X175706834Y-78904563D01*
X175729443Y-78910227D01*
X175751387Y-78918079D01*
X175772457Y-78928044D01*
X175792448Y-78940026D01*
X175811168Y-78953910D01*
X175828438Y-78969562D01*
X175844090Y-78986832D01*
X175857974Y-79005552D01*
X175869956Y-79025543D01*
X175879921Y-79046613D01*
X175887773Y-79068557D01*
X175893437Y-79091166D01*
X175896856Y-79114221D01*
X175898000Y-79137500D01*
X175898000Y-79612500D01*
X175896856Y-79635779D01*
X175893437Y-79658834D01*
X175887773Y-79681443D01*
X175879921Y-79703387D01*
X175869956Y-79724457D01*
X175857974Y-79744448D01*
X175844090Y-79763168D01*
X175828438Y-79780438D01*
X175811168Y-79796090D01*
X175792448Y-79809974D01*
X175772457Y-79821956D01*
X175751387Y-79831921D01*
X175729443Y-79839773D01*
X175706834Y-79845437D01*
X175683779Y-79848856D01*
X175660500Y-79850000D01*
X175085500Y-79850000D01*
X175062221Y-79848856D01*
X175039166Y-79845437D01*
X175016557Y-79839773D01*
X174994613Y-79831921D01*
X174973543Y-79821956D01*
X174953552Y-79809974D01*
X174934832Y-79796090D01*
X174917562Y-79780438D01*
X174901910Y-79763168D01*
X174888026Y-79744448D01*
X174876044Y-79724457D01*
X174866079Y-79703387D01*
X174858227Y-79681443D01*
X174852563Y-79658834D01*
X174849144Y-79635779D01*
X174848000Y-79612500D01*
X174848000Y-79137500D01*
X174849144Y-79114221D01*
X174852563Y-79091166D01*
X174858227Y-79068557D01*
X174866079Y-79046613D01*
X174876044Y-79025543D01*
X174888026Y-79005552D01*
X174901910Y-78986832D01*
X174917562Y-78969562D01*
X174934832Y-78953910D01*
X174953552Y-78940026D01*
X174973543Y-78928044D01*
X174994613Y-78918079D01*
X175016557Y-78910227D01*
X175039166Y-78904563D01*
X175062221Y-78901144D01*
X175085500Y-78900000D01*
X175660500Y-78900000D01*
X175683779Y-78901144D01*
X175683779Y-78901144D01*
G37*
D23*
G04 #@! TD*
G04 #@! TO.P,D2,2*
G04 #@! TO.N,Net-(D2-Pad2)*
X175373000Y-79375000D03*
D12*
G04 #@! TO.N,Net-(D3-Pad2)*
G04 #@! TO.C,D3*
G36*
X175683779Y-86521144D02*
X175706834Y-86524563D01*
X175729443Y-86530227D01*
X175751387Y-86538079D01*
X175772457Y-86548044D01*
X175792448Y-86560026D01*
X175811168Y-86573910D01*
X175828438Y-86589562D01*
X175844090Y-86606832D01*
X175857974Y-86625552D01*
X175869956Y-86645543D01*
X175879921Y-86666613D01*
X175887773Y-86688557D01*
X175893437Y-86711166D01*
X175896856Y-86734221D01*
X175898000Y-86757500D01*
X175898000Y-87232500D01*
X175896856Y-87255779D01*
X175893437Y-87278834D01*
X175887773Y-87301443D01*
X175879921Y-87323387D01*
X175869956Y-87344457D01*
X175857974Y-87364448D01*
X175844090Y-87383168D01*
X175828438Y-87400438D01*
X175811168Y-87416090D01*
X175792448Y-87429974D01*
X175772457Y-87441956D01*
X175751387Y-87451921D01*
X175729443Y-87459773D01*
X175706834Y-87465437D01*
X175683779Y-87468856D01*
X175660500Y-87470000D01*
X175085500Y-87470000D01*
X175062221Y-87468856D01*
X175039166Y-87465437D01*
X175016557Y-87459773D01*
X174994613Y-87451921D01*
X174973543Y-87441956D01*
X174953552Y-87429974D01*
X174934832Y-87416090D01*
X174917562Y-87400438D01*
X174901910Y-87383168D01*
X174888026Y-87364448D01*
X174876044Y-87344457D01*
X174866079Y-87323387D01*
X174858227Y-87301443D01*
X174852563Y-87278834D01*
X174849144Y-87255779D01*
X174848000Y-87232500D01*
X174848000Y-86757500D01*
X174849144Y-86734221D01*
X174852563Y-86711166D01*
X174858227Y-86688557D01*
X174866079Y-86666613D01*
X174876044Y-86645543D01*
X174888026Y-86625552D01*
X174901910Y-86606832D01*
X174917562Y-86589562D01*
X174934832Y-86573910D01*
X174953552Y-86560026D01*
X174973543Y-86548044D01*
X174994613Y-86538079D01*
X175016557Y-86530227D01*
X175039166Y-86524563D01*
X175062221Y-86521144D01*
X175085500Y-86520000D01*
X175660500Y-86520000D01*
X175683779Y-86521144D01*
X175683779Y-86521144D01*
G37*
D23*
G04 #@! TD*
G04 #@! TO.P,D3,2*
G04 #@! TO.N,Net-(D3-Pad2)*
X175373000Y-86995000D03*
D12*
G04 #@! TO.N,Net-(D3-Pad1)*
G04 #@! TO.C,D3*
G36*
X173933779Y-86521144D02*
X173956834Y-86524563D01*
X173979443Y-86530227D01*
X174001387Y-86538079D01*
X174022457Y-86548044D01*
X174042448Y-86560026D01*
X174061168Y-86573910D01*
X174078438Y-86589562D01*
X174094090Y-86606832D01*
X174107974Y-86625552D01*
X174119956Y-86645543D01*
X174129921Y-86666613D01*
X174137773Y-86688557D01*
X174143437Y-86711166D01*
X174146856Y-86734221D01*
X174148000Y-86757500D01*
X174148000Y-87232500D01*
X174146856Y-87255779D01*
X174143437Y-87278834D01*
X174137773Y-87301443D01*
X174129921Y-87323387D01*
X174119956Y-87344457D01*
X174107974Y-87364448D01*
X174094090Y-87383168D01*
X174078438Y-87400438D01*
X174061168Y-87416090D01*
X174042448Y-87429974D01*
X174022457Y-87441956D01*
X174001387Y-87451921D01*
X173979443Y-87459773D01*
X173956834Y-87465437D01*
X173933779Y-87468856D01*
X173910500Y-87470000D01*
X173335500Y-87470000D01*
X173312221Y-87468856D01*
X173289166Y-87465437D01*
X173266557Y-87459773D01*
X173244613Y-87451921D01*
X173223543Y-87441956D01*
X173203552Y-87429974D01*
X173184832Y-87416090D01*
X173167562Y-87400438D01*
X173151910Y-87383168D01*
X173138026Y-87364448D01*
X173126044Y-87344457D01*
X173116079Y-87323387D01*
X173108227Y-87301443D01*
X173102563Y-87278834D01*
X173099144Y-87255779D01*
X173098000Y-87232500D01*
X173098000Y-86757500D01*
X173099144Y-86734221D01*
X173102563Y-86711166D01*
X173108227Y-86688557D01*
X173116079Y-86666613D01*
X173126044Y-86645543D01*
X173138026Y-86625552D01*
X173151910Y-86606832D01*
X173167562Y-86589562D01*
X173184832Y-86573910D01*
X173203552Y-86560026D01*
X173223543Y-86548044D01*
X173244613Y-86538079D01*
X173266557Y-86530227D01*
X173289166Y-86524563D01*
X173312221Y-86521144D01*
X173335500Y-86520000D01*
X173910500Y-86520000D01*
X173933779Y-86521144D01*
X173933779Y-86521144D01*
G37*
D23*
G04 #@! TD*
G04 #@! TO.P,D3,1*
G04 #@! TO.N,Net-(D3-Pad1)*
X173623000Y-86995000D03*
D12*
G04 #@! TO.N,Net-(D4-Pad1)*
G04 #@! TO.C,D4*
G36*
X173933779Y-83981144D02*
X173956834Y-83984563D01*
X173979443Y-83990227D01*
X174001387Y-83998079D01*
X174022457Y-84008044D01*
X174042448Y-84020026D01*
X174061168Y-84033910D01*
X174078438Y-84049562D01*
X174094090Y-84066832D01*
X174107974Y-84085552D01*
X174119956Y-84105543D01*
X174129921Y-84126613D01*
X174137773Y-84148557D01*
X174143437Y-84171166D01*
X174146856Y-84194221D01*
X174148000Y-84217500D01*
X174148000Y-84692500D01*
X174146856Y-84715779D01*
X174143437Y-84738834D01*
X174137773Y-84761443D01*
X174129921Y-84783387D01*
X174119956Y-84804457D01*
X174107974Y-84824448D01*
X174094090Y-84843168D01*
X174078438Y-84860438D01*
X174061168Y-84876090D01*
X174042448Y-84889974D01*
X174022457Y-84901956D01*
X174001387Y-84911921D01*
X173979443Y-84919773D01*
X173956834Y-84925437D01*
X173933779Y-84928856D01*
X173910500Y-84930000D01*
X173335500Y-84930000D01*
X173312221Y-84928856D01*
X173289166Y-84925437D01*
X173266557Y-84919773D01*
X173244613Y-84911921D01*
X173223543Y-84901956D01*
X173203552Y-84889974D01*
X173184832Y-84876090D01*
X173167562Y-84860438D01*
X173151910Y-84843168D01*
X173138026Y-84824448D01*
X173126044Y-84804457D01*
X173116079Y-84783387D01*
X173108227Y-84761443D01*
X173102563Y-84738834D01*
X173099144Y-84715779D01*
X173098000Y-84692500D01*
X173098000Y-84217500D01*
X173099144Y-84194221D01*
X173102563Y-84171166D01*
X173108227Y-84148557D01*
X173116079Y-84126613D01*
X173126044Y-84105543D01*
X173138026Y-84085552D01*
X173151910Y-84066832D01*
X173167562Y-84049562D01*
X173184832Y-84033910D01*
X173203552Y-84020026D01*
X173223543Y-84008044D01*
X173244613Y-83998079D01*
X173266557Y-83990227D01*
X173289166Y-83984563D01*
X173312221Y-83981144D01*
X173335500Y-83980000D01*
X173910500Y-83980000D01*
X173933779Y-83981144D01*
X173933779Y-83981144D01*
G37*
D23*
G04 #@! TD*
G04 #@! TO.P,D4,1*
G04 #@! TO.N,Net-(D4-Pad1)*
X173623000Y-84455000D03*
D12*
G04 #@! TO.N,Net-(D4-Pad2)*
G04 #@! TO.C,D4*
G36*
X175683779Y-83981144D02*
X175706834Y-83984563D01*
X175729443Y-83990227D01*
X175751387Y-83998079D01*
X175772457Y-84008044D01*
X175792448Y-84020026D01*
X175811168Y-84033910D01*
X175828438Y-84049562D01*
X175844090Y-84066832D01*
X175857974Y-84085552D01*
X175869956Y-84105543D01*
X175879921Y-84126613D01*
X175887773Y-84148557D01*
X175893437Y-84171166D01*
X175896856Y-84194221D01*
X175898000Y-84217500D01*
X175898000Y-84692500D01*
X175896856Y-84715779D01*
X175893437Y-84738834D01*
X175887773Y-84761443D01*
X175879921Y-84783387D01*
X175869956Y-84804457D01*
X175857974Y-84824448D01*
X175844090Y-84843168D01*
X175828438Y-84860438D01*
X175811168Y-84876090D01*
X175792448Y-84889974D01*
X175772457Y-84901956D01*
X175751387Y-84911921D01*
X175729443Y-84919773D01*
X175706834Y-84925437D01*
X175683779Y-84928856D01*
X175660500Y-84930000D01*
X175085500Y-84930000D01*
X175062221Y-84928856D01*
X175039166Y-84925437D01*
X175016557Y-84919773D01*
X174994613Y-84911921D01*
X174973543Y-84901956D01*
X174953552Y-84889974D01*
X174934832Y-84876090D01*
X174917562Y-84860438D01*
X174901910Y-84843168D01*
X174888026Y-84824448D01*
X174876044Y-84804457D01*
X174866079Y-84783387D01*
X174858227Y-84761443D01*
X174852563Y-84738834D01*
X174849144Y-84715779D01*
X174848000Y-84692500D01*
X174848000Y-84217500D01*
X174849144Y-84194221D01*
X174852563Y-84171166D01*
X174858227Y-84148557D01*
X174866079Y-84126613D01*
X174876044Y-84105543D01*
X174888026Y-84085552D01*
X174901910Y-84066832D01*
X174917562Y-84049562D01*
X174934832Y-84033910D01*
X174953552Y-84020026D01*
X174973543Y-84008044D01*
X174994613Y-83998079D01*
X175016557Y-83990227D01*
X175039166Y-83984563D01*
X175062221Y-83981144D01*
X175085500Y-83980000D01*
X175660500Y-83980000D01*
X175683779Y-83981144D01*
X175683779Y-83981144D01*
G37*
D23*
G04 #@! TD*
G04 #@! TO.P,D4,2*
G04 #@! TO.N,Net-(D4-Pad2)*
X175373000Y-84455000D03*
D16*
G04 #@! TO.P,D5,1*
G04 #@! TO.N,Net-(D5-Pad1)*
X112268000Y-104775000D03*
D15*
G04 #@! TO.P,D5,2*
G04 #@! TO.N,/Vin*
X112268000Y-107315000D03*
G04 #@! TD*
D12*
G04 #@! TO.N,GND*
G04 #@! TO.C,R1*
G36*
X170123779Y-81441144D02*
X170146834Y-81444563D01*
X170169443Y-81450227D01*
X170191387Y-81458079D01*
X170212457Y-81468044D01*
X170232448Y-81480026D01*
X170251168Y-81493910D01*
X170268438Y-81509562D01*
X170284090Y-81526832D01*
X170297974Y-81545552D01*
X170309956Y-81565543D01*
X170319921Y-81586613D01*
X170327773Y-81608557D01*
X170333437Y-81631166D01*
X170336856Y-81654221D01*
X170338000Y-81677500D01*
X170338000Y-82152500D01*
X170336856Y-82175779D01*
X170333437Y-82198834D01*
X170327773Y-82221443D01*
X170319921Y-82243387D01*
X170309956Y-82264457D01*
X170297974Y-82284448D01*
X170284090Y-82303168D01*
X170268438Y-82320438D01*
X170251168Y-82336090D01*
X170232448Y-82349974D01*
X170212457Y-82361956D01*
X170191387Y-82371921D01*
X170169443Y-82379773D01*
X170146834Y-82385437D01*
X170123779Y-82388856D01*
X170100500Y-82390000D01*
X169525500Y-82390000D01*
X169502221Y-82388856D01*
X169479166Y-82385437D01*
X169456557Y-82379773D01*
X169434613Y-82371921D01*
X169413543Y-82361956D01*
X169393552Y-82349974D01*
X169374832Y-82336090D01*
X169357562Y-82320438D01*
X169341910Y-82303168D01*
X169328026Y-82284448D01*
X169316044Y-82264457D01*
X169306079Y-82243387D01*
X169298227Y-82221443D01*
X169292563Y-82198834D01*
X169289144Y-82175779D01*
X169288000Y-82152500D01*
X169288000Y-81677500D01*
X169289144Y-81654221D01*
X169292563Y-81631166D01*
X169298227Y-81608557D01*
X169306079Y-81586613D01*
X169316044Y-81565543D01*
X169328026Y-81545552D01*
X169341910Y-81526832D01*
X169357562Y-81509562D01*
X169374832Y-81493910D01*
X169393552Y-81480026D01*
X169413543Y-81468044D01*
X169434613Y-81458079D01*
X169456557Y-81450227D01*
X169479166Y-81444563D01*
X169502221Y-81441144D01*
X169525500Y-81440000D01*
X170100500Y-81440000D01*
X170123779Y-81441144D01*
X170123779Y-81441144D01*
G37*
D23*
G04 #@! TD*
G04 #@! TO.P,R1,1*
G04 #@! TO.N,GND*
X169813000Y-81915000D03*
D12*
G04 #@! TO.N,Net-(D1-Pad1)*
G04 #@! TO.C,R1*
G36*
X171873779Y-81441144D02*
X171896834Y-81444563D01*
X171919443Y-81450227D01*
X171941387Y-81458079D01*
X171962457Y-81468044D01*
X171982448Y-81480026D01*
X172001168Y-81493910D01*
X172018438Y-81509562D01*
X172034090Y-81526832D01*
X172047974Y-81545552D01*
X172059956Y-81565543D01*
X172069921Y-81586613D01*
X172077773Y-81608557D01*
X172083437Y-81631166D01*
X172086856Y-81654221D01*
X172088000Y-81677500D01*
X172088000Y-82152500D01*
X172086856Y-82175779D01*
X172083437Y-82198834D01*
X172077773Y-82221443D01*
X172069921Y-82243387D01*
X172059956Y-82264457D01*
X172047974Y-82284448D01*
X172034090Y-82303168D01*
X172018438Y-82320438D01*
X172001168Y-82336090D01*
X171982448Y-82349974D01*
X171962457Y-82361956D01*
X171941387Y-82371921D01*
X171919443Y-82379773D01*
X171896834Y-82385437D01*
X171873779Y-82388856D01*
X171850500Y-82390000D01*
X171275500Y-82390000D01*
X171252221Y-82388856D01*
X171229166Y-82385437D01*
X171206557Y-82379773D01*
X171184613Y-82371921D01*
X171163543Y-82361956D01*
X171143552Y-82349974D01*
X171124832Y-82336090D01*
X171107562Y-82320438D01*
X171091910Y-82303168D01*
X171078026Y-82284448D01*
X171066044Y-82264457D01*
X171056079Y-82243387D01*
X171048227Y-82221443D01*
X171042563Y-82198834D01*
X171039144Y-82175779D01*
X171038000Y-82152500D01*
X171038000Y-81677500D01*
X171039144Y-81654221D01*
X171042563Y-81631166D01*
X171048227Y-81608557D01*
X171056079Y-81586613D01*
X171066044Y-81565543D01*
X171078026Y-81545552D01*
X171091910Y-81526832D01*
X171107562Y-81509562D01*
X171124832Y-81493910D01*
X171143552Y-81480026D01*
X171163543Y-81468044D01*
X171184613Y-81458079D01*
X171206557Y-81450227D01*
X171229166Y-81444563D01*
X171252221Y-81441144D01*
X171275500Y-81440000D01*
X171850500Y-81440000D01*
X171873779Y-81441144D01*
X171873779Y-81441144D01*
G37*
D23*
G04 #@! TD*
G04 #@! TO.P,R1,2*
G04 #@! TO.N,Net-(D1-Pad1)*
X171563000Y-81915000D03*
D12*
G04 #@! TO.N,Net-(D2-Pad1)*
G04 #@! TO.C,R2*
G36*
X171873779Y-78901144D02*
X171896834Y-78904563D01*
X171919443Y-78910227D01*
X171941387Y-78918079D01*
X171962457Y-78928044D01*
X171982448Y-78940026D01*
X172001168Y-78953910D01*
X172018438Y-78969562D01*
X172034090Y-78986832D01*
X172047974Y-79005552D01*
X172059956Y-79025543D01*
X172069921Y-79046613D01*
X172077773Y-79068557D01*
X172083437Y-79091166D01*
X172086856Y-79114221D01*
X172088000Y-79137500D01*
X172088000Y-79612500D01*
X172086856Y-79635779D01*
X172083437Y-79658834D01*
X172077773Y-79681443D01*
X172069921Y-79703387D01*
X172059956Y-79724457D01*
X172047974Y-79744448D01*
X172034090Y-79763168D01*
X172018438Y-79780438D01*
X172001168Y-79796090D01*
X171982448Y-79809974D01*
X171962457Y-79821956D01*
X171941387Y-79831921D01*
X171919443Y-79839773D01*
X171896834Y-79845437D01*
X171873779Y-79848856D01*
X171850500Y-79850000D01*
X171275500Y-79850000D01*
X171252221Y-79848856D01*
X171229166Y-79845437D01*
X171206557Y-79839773D01*
X171184613Y-79831921D01*
X171163543Y-79821956D01*
X171143552Y-79809974D01*
X171124832Y-79796090D01*
X171107562Y-79780438D01*
X171091910Y-79763168D01*
X171078026Y-79744448D01*
X171066044Y-79724457D01*
X171056079Y-79703387D01*
X171048227Y-79681443D01*
X171042563Y-79658834D01*
X171039144Y-79635779D01*
X171038000Y-79612500D01*
X171038000Y-79137500D01*
X171039144Y-79114221D01*
X171042563Y-79091166D01*
X171048227Y-79068557D01*
X171056079Y-79046613D01*
X171066044Y-79025543D01*
X171078026Y-79005552D01*
X171091910Y-78986832D01*
X171107562Y-78969562D01*
X171124832Y-78953910D01*
X171143552Y-78940026D01*
X171163543Y-78928044D01*
X171184613Y-78918079D01*
X171206557Y-78910227D01*
X171229166Y-78904563D01*
X171252221Y-78901144D01*
X171275500Y-78900000D01*
X171850500Y-78900000D01*
X171873779Y-78901144D01*
X171873779Y-78901144D01*
G37*
D23*
G04 #@! TD*
G04 #@! TO.P,R2,2*
G04 #@! TO.N,Net-(D2-Pad1)*
X171563000Y-79375000D03*
D12*
G04 #@! TO.N,GND*
G04 #@! TO.C,R2*
G36*
X170123779Y-78901144D02*
X170146834Y-78904563D01*
X170169443Y-78910227D01*
X170191387Y-78918079D01*
X170212457Y-78928044D01*
X170232448Y-78940026D01*
X170251168Y-78953910D01*
X170268438Y-78969562D01*
X170284090Y-78986832D01*
X170297974Y-79005552D01*
X170309956Y-79025543D01*
X170319921Y-79046613D01*
X170327773Y-79068557D01*
X170333437Y-79091166D01*
X170336856Y-79114221D01*
X170338000Y-79137500D01*
X170338000Y-79612500D01*
X170336856Y-79635779D01*
X170333437Y-79658834D01*
X170327773Y-79681443D01*
X170319921Y-79703387D01*
X170309956Y-79724457D01*
X170297974Y-79744448D01*
X170284090Y-79763168D01*
X170268438Y-79780438D01*
X170251168Y-79796090D01*
X170232448Y-79809974D01*
X170212457Y-79821956D01*
X170191387Y-79831921D01*
X170169443Y-79839773D01*
X170146834Y-79845437D01*
X170123779Y-79848856D01*
X170100500Y-79850000D01*
X169525500Y-79850000D01*
X169502221Y-79848856D01*
X169479166Y-79845437D01*
X169456557Y-79839773D01*
X169434613Y-79831921D01*
X169413543Y-79821956D01*
X169393552Y-79809974D01*
X169374832Y-79796090D01*
X169357562Y-79780438D01*
X169341910Y-79763168D01*
X169328026Y-79744448D01*
X169316044Y-79724457D01*
X169306079Y-79703387D01*
X169298227Y-79681443D01*
X169292563Y-79658834D01*
X169289144Y-79635779D01*
X169288000Y-79612500D01*
X169288000Y-79137500D01*
X169289144Y-79114221D01*
X169292563Y-79091166D01*
X169298227Y-79068557D01*
X169306079Y-79046613D01*
X169316044Y-79025543D01*
X169328026Y-79005552D01*
X169341910Y-78986832D01*
X169357562Y-78969562D01*
X169374832Y-78953910D01*
X169393552Y-78940026D01*
X169413543Y-78928044D01*
X169434613Y-78918079D01*
X169456557Y-78910227D01*
X169479166Y-78904563D01*
X169502221Y-78901144D01*
X169525500Y-78900000D01*
X170100500Y-78900000D01*
X170123779Y-78901144D01*
X170123779Y-78901144D01*
G37*
D23*
G04 #@! TD*
G04 #@! TO.P,R2,1*
G04 #@! TO.N,GND*
X169813000Y-79375000D03*
D12*
G04 #@! TO.N,Net-(D3-Pad1)*
G04 #@! TO.C,R3*
G36*
X171873779Y-86521144D02*
X171896834Y-86524563D01*
X171919443Y-86530227D01*
X171941387Y-86538079D01*
X171962457Y-86548044D01*
X171982448Y-86560026D01*
X172001168Y-86573910D01*
X172018438Y-86589562D01*
X172034090Y-86606832D01*
X172047974Y-86625552D01*
X172059956Y-86645543D01*
X172069921Y-86666613D01*
X172077773Y-86688557D01*
X172083437Y-86711166D01*
X172086856Y-86734221D01*
X172088000Y-86757500D01*
X172088000Y-87232500D01*
X172086856Y-87255779D01*
X172083437Y-87278834D01*
X172077773Y-87301443D01*
X172069921Y-87323387D01*
X172059956Y-87344457D01*
X172047974Y-87364448D01*
X172034090Y-87383168D01*
X172018438Y-87400438D01*
X172001168Y-87416090D01*
X171982448Y-87429974D01*
X171962457Y-87441956D01*
X171941387Y-87451921D01*
X171919443Y-87459773D01*
X171896834Y-87465437D01*
X171873779Y-87468856D01*
X171850500Y-87470000D01*
X171275500Y-87470000D01*
X171252221Y-87468856D01*
X171229166Y-87465437D01*
X171206557Y-87459773D01*
X171184613Y-87451921D01*
X171163543Y-87441956D01*
X171143552Y-87429974D01*
X171124832Y-87416090D01*
X171107562Y-87400438D01*
X171091910Y-87383168D01*
X171078026Y-87364448D01*
X171066044Y-87344457D01*
X171056079Y-87323387D01*
X171048227Y-87301443D01*
X171042563Y-87278834D01*
X171039144Y-87255779D01*
X171038000Y-87232500D01*
X171038000Y-86757500D01*
X171039144Y-86734221D01*
X171042563Y-86711166D01*
X171048227Y-86688557D01*
X171056079Y-86666613D01*
X171066044Y-86645543D01*
X171078026Y-86625552D01*
X171091910Y-86606832D01*
X171107562Y-86589562D01*
X171124832Y-86573910D01*
X171143552Y-86560026D01*
X171163543Y-86548044D01*
X171184613Y-86538079D01*
X171206557Y-86530227D01*
X171229166Y-86524563D01*
X171252221Y-86521144D01*
X171275500Y-86520000D01*
X171850500Y-86520000D01*
X171873779Y-86521144D01*
X171873779Y-86521144D01*
G37*
D23*
G04 #@! TD*
G04 #@! TO.P,R3,2*
G04 #@! TO.N,Net-(D3-Pad1)*
X171563000Y-86995000D03*
D12*
G04 #@! TO.N,GND*
G04 #@! TO.C,R3*
G36*
X170123779Y-86521144D02*
X170146834Y-86524563D01*
X170169443Y-86530227D01*
X170191387Y-86538079D01*
X170212457Y-86548044D01*
X170232448Y-86560026D01*
X170251168Y-86573910D01*
X170268438Y-86589562D01*
X170284090Y-86606832D01*
X170297974Y-86625552D01*
X170309956Y-86645543D01*
X170319921Y-86666613D01*
X170327773Y-86688557D01*
X170333437Y-86711166D01*
X170336856Y-86734221D01*
X170338000Y-86757500D01*
X170338000Y-87232500D01*
X170336856Y-87255779D01*
X170333437Y-87278834D01*
X170327773Y-87301443D01*
X170319921Y-87323387D01*
X170309956Y-87344457D01*
X170297974Y-87364448D01*
X170284090Y-87383168D01*
X170268438Y-87400438D01*
X170251168Y-87416090D01*
X170232448Y-87429974D01*
X170212457Y-87441956D01*
X170191387Y-87451921D01*
X170169443Y-87459773D01*
X170146834Y-87465437D01*
X170123779Y-87468856D01*
X170100500Y-87470000D01*
X169525500Y-87470000D01*
X169502221Y-87468856D01*
X169479166Y-87465437D01*
X169456557Y-87459773D01*
X169434613Y-87451921D01*
X169413543Y-87441956D01*
X169393552Y-87429974D01*
X169374832Y-87416090D01*
X169357562Y-87400438D01*
X169341910Y-87383168D01*
X169328026Y-87364448D01*
X169316044Y-87344457D01*
X169306079Y-87323387D01*
X169298227Y-87301443D01*
X169292563Y-87278834D01*
X169289144Y-87255779D01*
X169288000Y-87232500D01*
X169288000Y-86757500D01*
X169289144Y-86734221D01*
X169292563Y-86711166D01*
X169298227Y-86688557D01*
X169306079Y-86666613D01*
X169316044Y-86645543D01*
X169328026Y-86625552D01*
X169341910Y-86606832D01*
X169357562Y-86589562D01*
X169374832Y-86573910D01*
X169393552Y-86560026D01*
X169413543Y-86548044D01*
X169434613Y-86538079D01*
X169456557Y-86530227D01*
X169479166Y-86524563D01*
X169502221Y-86521144D01*
X169525500Y-86520000D01*
X170100500Y-86520000D01*
X170123779Y-86521144D01*
X170123779Y-86521144D01*
G37*
D23*
G04 #@! TD*
G04 #@! TO.P,R3,1*
G04 #@! TO.N,GND*
X169813000Y-86995000D03*
D12*
G04 #@! TO.N,GND*
G04 #@! TO.C,R4*
G36*
X170123779Y-83981144D02*
X170146834Y-83984563D01*
X170169443Y-83990227D01*
X170191387Y-83998079D01*
X170212457Y-84008044D01*
X170232448Y-84020026D01*
X170251168Y-84033910D01*
X170268438Y-84049562D01*
X170284090Y-84066832D01*
X170297974Y-84085552D01*
X170309956Y-84105543D01*
X170319921Y-84126613D01*
X170327773Y-84148557D01*
X170333437Y-84171166D01*
X170336856Y-84194221D01*
X170338000Y-84217500D01*
X170338000Y-84692500D01*
X170336856Y-84715779D01*
X170333437Y-84738834D01*
X170327773Y-84761443D01*
X170319921Y-84783387D01*
X170309956Y-84804457D01*
X170297974Y-84824448D01*
X170284090Y-84843168D01*
X170268438Y-84860438D01*
X170251168Y-84876090D01*
X170232448Y-84889974D01*
X170212457Y-84901956D01*
X170191387Y-84911921D01*
X170169443Y-84919773D01*
X170146834Y-84925437D01*
X170123779Y-84928856D01*
X170100500Y-84930000D01*
X169525500Y-84930000D01*
X169502221Y-84928856D01*
X169479166Y-84925437D01*
X169456557Y-84919773D01*
X169434613Y-84911921D01*
X169413543Y-84901956D01*
X169393552Y-84889974D01*
X169374832Y-84876090D01*
X169357562Y-84860438D01*
X169341910Y-84843168D01*
X169328026Y-84824448D01*
X169316044Y-84804457D01*
X169306079Y-84783387D01*
X169298227Y-84761443D01*
X169292563Y-84738834D01*
X169289144Y-84715779D01*
X169288000Y-84692500D01*
X169288000Y-84217500D01*
X169289144Y-84194221D01*
X169292563Y-84171166D01*
X169298227Y-84148557D01*
X169306079Y-84126613D01*
X169316044Y-84105543D01*
X169328026Y-84085552D01*
X169341910Y-84066832D01*
X169357562Y-84049562D01*
X169374832Y-84033910D01*
X169393552Y-84020026D01*
X169413543Y-84008044D01*
X169434613Y-83998079D01*
X169456557Y-83990227D01*
X169479166Y-83984563D01*
X169502221Y-83981144D01*
X169525500Y-83980000D01*
X170100500Y-83980000D01*
X170123779Y-83981144D01*
X170123779Y-83981144D01*
G37*
D23*
G04 #@! TD*
G04 #@! TO.P,R4,1*
G04 #@! TO.N,GND*
X169813000Y-84455000D03*
D12*
G04 #@! TO.N,Net-(D4-Pad1)*
G04 #@! TO.C,R4*
G36*
X171873779Y-83981144D02*
X171896834Y-83984563D01*
X171919443Y-83990227D01*
X171941387Y-83998079D01*
X171962457Y-84008044D01*
X171982448Y-84020026D01*
X172001168Y-84033910D01*
X172018438Y-84049562D01*
X172034090Y-84066832D01*
X172047974Y-84085552D01*
X172059956Y-84105543D01*
X172069921Y-84126613D01*
X172077773Y-84148557D01*
X172083437Y-84171166D01*
X172086856Y-84194221D01*
X172088000Y-84217500D01*
X172088000Y-84692500D01*
X172086856Y-84715779D01*
X172083437Y-84738834D01*
X172077773Y-84761443D01*
X172069921Y-84783387D01*
X172059956Y-84804457D01*
X172047974Y-84824448D01*
X172034090Y-84843168D01*
X172018438Y-84860438D01*
X172001168Y-84876090D01*
X171982448Y-84889974D01*
X171962457Y-84901956D01*
X171941387Y-84911921D01*
X171919443Y-84919773D01*
X171896834Y-84925437D01*
X171873779Y-84928856D01*
X171850500Y-84930000D01*
X171275500Y-84930000D01*
X171252221Y-84928856D01*
X171229166Y-84925437D01*
X171206557Y-84919773D01*
X171184613Y-84911921D01*
X171163543Y-84901956D01*
X171143552Y-84889974D01*
X171124832Y-84876090D01*
X171107562Y-84860438D01*
X171091910Y-84843168D01*
X171078026Y-84824448D01*
X171066044Y-84804457D01*
X171056079Y-84783387D01*
X171048227Y-84761443D01*
X171042563Y-84738834D01*
X171039144Y-84715779D01*
X171038000Y-84692500D01*
X171038000Y-84217500D01*
X171039144Y-84194221D01*
X171042563Y-84171166D01*
X171048227Y-84148557D01*
X171056079Y-84126613D01*
X171066044Y-84105543D01*
X171078026Y-84085552D01*
X171091910Y-84066832D01*
X171107562Y-84049562D01*
X171124832Y-84033910D01*
X171143552Y-84020026D01*
X171163543Y-84008044D01*
X171184613Y-83998079D01*
X171206557Y-83990227D01*
X171229166Y-83984563D01*
X171252221Y-83981144D01*
X171275500Y-83980000D01*
X171850500Y-83980000D01*
X171873779Y-83981144D01*
X171873779Y-83981144D01*
G37*
D23*
G04 #@! TD*
G04 #@! TO.P,R4,2*
G04 #@! TO.N,Net-(D4-Pad1)*
X171563000Y-84455000D03*
D20*
G04 #@! TO.P,R5,1*
G04 #@! TO.N,/CSEN1*
X178308000Y-114935000D03*
D24*
G04 #@! TO.P,R5,2*
G04 #@! TO.N,GND*
X178308000Y-104775000D03*
G04 #@! TD*
G04 #@! TO.P,R6,2*
G04 #@! TO.N,GND*
X157988000Y-78105000D03*
D20*
G04 #@! TO.P,R6,1*
G04 #@! TO.N,/CSEN2*
X147828000Y-78105000D03*
G04 #@! TD*
G04 #@! TO.P,R7,1*
G04 #@! TO.N,Net-(D5-Pad1)*
X112268000Y-100965000D03*
D24*
G04 #@! TO.P,R7,2*
G04 #@! TO.N,GND*
X122428000Y-100965000D03*
G04 #@! TD*
D25*
G04 #@! TO.P,U1,1*
G04 #@! TO.N,Net-(D1-Pad2)*
X165608000Y-80485000D03*
G04 #@! TO.P,U1,2*
X164338000Y-80485000D03*
G04 #@! TO.P,U1,3*
G04 #@! TO.N,/3(\002A\002A)*
X163068000Y-80485000D03*
G04 #@! TO.P,U1,4*
G04 #@! TO.N,+5V*
X161798000Y-80485000D03*
G04 #@! TO.P,U1,5*
G04 #@! TO.N,/2*
X160528000Y-80485000D03*
G04 #@! TO.P,U1,6*
G04 #@! TO.N,Net-(D2-Pad2)*
X159258000Y-80485000D03*
G04 #@! TO.P,U1,7*
X157988000Y-80485000D03*
G04 #@! TO.P,U1,8*
G04 #@! TO.N,Net-(D3-Pad2)*
X157988000Y-85885000D03*
G04 #@! TO.P,U1,9*
X159258000Y-85885000D03*
G04 #@! TO.P,U1,10*
G04 #@! TO.N,/5(\002A\002A)*
X160528000Y-85885000D03*
G04 #@! TO.P,U1,11*
G04 #@! TO.N,GND*
X161798000Y-85885000D03*
G04 #@! TO.P,U1,12*
G04 #@! TO.N,/4*
X163068000Y-85885000D03*
G04 #@! TO.P,U1,13*
G04 #@! TO.N,Net-(D4-Pad2)*
X164338000Y-85885000D03*
G04 #@! TO.P,U1,14*
X165608000Y-85885000D03*
G04 #@! TD*
D16*
G04 #@! TO.P,U2,1*
G04 #@! TO.N,Net-(C2-Pad1)*
X117348000Y-111125000D03*
D15*
G04 #@! TO.P,U2,2*
G04 #@! TO.N,GND*
X114808000Y-111125000D03*
G04 #@! TO.P,U2,3*
G04 #@! TO.N,/Vin*
X112268000Y-111125000D03*
G04 #@! TD*
D16*
G04 #@! TO.P,J13,1*
G04 #@! TO.N,/9(\002A\002A)*
X141478000Y-109855000D03*
G04 #@! TD*
G04 #@! TO.P,J7,1*
G04 #@! TO.N,/7*
X128778000Y-117475000D03*
G04 #@! TD*
G04 #@! TO.P,J8,1*
G04 #@! TO.N,/A0*
X131318000Y-117475000D03*
G04 #@! TD*
G04 #@! TO.P,J9,1*
G04 #@! TO.N,/6(\002A\002A)*
X133858000Y-117475000D03*
G04 #@! TD*
G04 #@! TO.P,J11,1*
G04 #@! TO.N,/8*
X136398000Y-109855000D03*
G04 #@! TD*
G04 #@! TO.P,J12,1*
G04 #@! TO.N,/A1*
X138938000Y-109855000D03*
G04 #@! TD*
D26*
G04 #@! TO.P,J10,1*
G04 #@! TO.N,/TF1*
X128778000Y-114935000D03*
D27*
G04 #@! TO.P,J10,2*
G04 #@! TO.N,GND*
X128778000Y-112395000D03*
G04 #@! TO.P,J10,3*
G04 #@! TO.N,/CSEN1*
X131318000Y-114935000D03*
G04 #@! TO.P,J10,4*
G04 #@! TO.N,/5(\002A\002A)*
X131318000Y-112395000D03*
G04 #@! TO.P,J10,5*
G04 #@! TO.N,/BR1*
X133858000Y-114935000D03*
G04 #@! TO.P,J10,6*
G04 #@! TO.N,/4*
X133858000Y-112395000D03*
G04 #@! TO.P,J10,7*
G04 #@! TO.N,/2*
X136398000Y-114935000D03*
G04 #@! TO.P,J10,8*
G04 #@! TO.N,/BR2*
X136398000Y-112395000D03*
G04 #@! TO.P,J10,9*
G04 #@! TO.N,/3(\002A\002A)*
X138938000Y-114935000D03*
G04 #@! TO.P,J10,10*
G04 #@! TO.N,/CSEN2*
X138938000Y-112395000D03*
G04 #@! TO.P,J10,11*
G04 #@! TO.N,GND*
X141478000Y-114935000D03*
G04 #@! TO.P,J10,12*
G04 #@! TO.N,/TF2*
X141478000Y-112395000D03*
G04 #@! TD*
D28*
G04 #@! TO.N,+5V*
X161798000Y-81915000D03*
X131318000Y-94615000D03*
X155448000Y-94615000D03*
G04 #@! TO.N,GND*
X155448000Y-122555000D03*
X156678000Y-114935000D03*
X147828000Y-85725000D03*
X152908000Y-83185000D03*
X168148000Y-86995000D03*
X168148000Y-89535000D03*
G04 #@! TO.N,/Vin*
X118618000Y-113665000D03*
X128778000Y-122555000D03*
G04 #@! TO.N,/7*
X145288000Y-99695000D03*
X124968000Y-107315000D03*
G04 #@! TO.N,/6(\002A\002A)*
X146558000Y-100965000D03*
X126238000Y-107315000D03*
X126238000Y-113665000D03*
G04 #@! TO.N,/5(\002A\002A)*
X136398000Y-103505000D03*
X159258000Y-84455000D03*
X152908000Y-90805000D03*
X136848000Y-92075000D03*
G04 #@! TO.N,/4*
X133858000Y-93345000D03*
X154178000Y-92075000D03*
X161798000Y-84455000D03*
G04 #@! TO.N,/3(\002A\002A)*
X156967443Y-113415557D03*
X163068000Y-79375000D03*
X163068000Y-81915000D03*
X163068000Y-107315000D03*
G04 #@! TO.N,/2*
X154178000Y-108585000D03*
X161798000Y-79234998D03*
G04 #@! TO.N,/Vs*
X124968000Y-95865000D03*
X124968000Y-98425000D03*
G04 #@! TO.N,/BR1*
X147828000Y-116205000D03*
X163068000Y-118745000D03*
X155448000Y-118745000D03*
G04 #@! TO.N,/BR2*
X148451539Y-85054877D03*
X151638000Y-83185000D03*
X137688000Y-84455000D03*
G04 #@! TO.N,/CSEN1*
X152908000Y-120015000D03*
G04 #@! TO.N,/CSEN2*
X143764115Y-82098882D03*
G04 #@! TO.N,Net-(D1-Pad2)*
X168148000Y-80645000D03*
X173228000Y-80645000D03*
G04 #@! TO.N,Net-(D4-Pad2)*
X168148000Y-85725000D03*
X173228000Y-85725000D03*
G04 #@! TD*
D29*
G04 #@! TO.N,+5V*
X161798000Y-80485000D02*
X161798000Y-81915000D01*
X145288000Y-94615000D02*
X131318000Y-94615000D01*
X145288000Y-94615000D02*
X155448000Y-94615000D01*
D30*
G04 #@! TO.N,GND*
X118578000Y-87035000D02*
X122428000Y-87035000D01*
X116078000Y-89535000D02*
X118578000Y-87035000D01*
X121296630Y-97115000D02*
X122428000Y-97115000D01*
X115100270Y-97115000D02*
X121296630Y-97115000D01*
X113327990Y-95342720D02*
X115100270Y-97115000D01*
X113327990Y-92285010D02*
X113327990Y-95342720D01*
X116078000Y-89535000D02*
X113327990Y-92285010D01*
X139348001Y-87894999D02*
X140248000Y-86995000D01*
X138397999Y-88845001D02*
X139348001Y-87894999D01*
X126953824Y-88845001D02*
X138397999Y-88845001D01*
X125143823Y-87035000D02*
X126953824Y-88845001D01*
X122428000Y-87035000D02*
X125143823Y-87035000D01*
X121296630Y-97115000D02*
X146478000Y-97115000D01*
X151638000Y-102275000D02*
X160488000Y-111125000D01*
X146478000Y-97115000D02*
X151638000Y-102275000D01*
D29*
X122428000Y-97115000D02*
X122428000Y-100965000D01*
X114808000Y-103505000D02*
X117348000Y-103505000D01*
X119888000Y-103505000D02*
X122428000Y-100965000D01*
X117348000Y-103505000D02*
X119888000Y-103505000D01*
X115657999Y-110275001D02*
X114808000Y-111125000D01*
X115833001Y-110099999D02*
X115657999Y-110275001D01*
X115833001Y-104530001D02*
X115833001Y-110099999D01*
X114808000Y-103505000D02*
X115833001Y-104530001D01*
X151638000Y-123825000D02*
X154178000Y-123825000D01*
X169813000Y-79375000D02*
X169813000Y-86995000D01*
X169813000Y-86995000D02*
X169813000Y-87870000D01*
X169813000Y-87870000D02*
X169418000Y-88265000D01*
X161798000Y-86335000D02*
X161798000Y-85885000D01*
X163728000Y-88265000D02*
X161798000Y-86335000D01*
X161798000Y-85435000D02*
X161798000Y-85885000D01*
X161172999Y-84809999D02*
X161798000Y-85435000D01*
X160677997Y-84809999D02*
X161172999Y-84809999D01*
X156718000Y-80850002D02*
X160677997Y-84809999D01*
X156718000Y-79375000D02*
X156718000Y-80850002D01*
X157988000Y-78105000D02*
X156718000Y-79375000D01*
X127914401Y-111531401D02*
X128778000Y-112395000D01*
X123792999Y-107409999D02*
X127914401Y-111531401D01*
X118967997Y-107409999D02*
X123792999Y-107409999D01*
X118712999Y-107155001D02*
X118967997Y-107409999D01*
X118712999Y-104680001D02*
X118712999Y-107155001D01*
X119888000Y-103505000D02*
X118712999Y-104680001D01*
X156678000Y-114935000D02*
X160488000Y-111125000D01*
X141478000Y-114935000D02*
X156678000Y-114935000D01*
X154178000Y-123825000D02*
X155448000Y-122555000D01*
X140248000Y-86995000D02*
X141518000Y-85725000D01*
X141518000Y-85725000D02*
X147828000Y-85725000D01*
X155242998Y-80850002D02*
X156718000Y-80850002D01*
X152908000Y-83185000D02*
X155242998Y-80850002D01*
X168148000Y-88265000D02*
X168148000Y-86995000D01*
X168148000Y-88265000D02*
X163728000Y-88265000D01*
X169418000Y-88265000D02*
X168148000Y-88265000D01*
X168148000Y-94615000D02*
X178308000Y-104775000D01*
X168148000Y-89535000D02*
X168148000Y-94615000D01*
X154178000Y-84455000D02*
X152908000Y-83185000D01*
X155448000Y-84455000D02*
X154178000Y-84455000D01*
X137414000Y-75717400D02*
X137414000Y-75565000D01*
X138676599Y-76979999D02*
X137414000Y-75717400D01*
X156862999Y-76979999D02*
X138676599Y-76979999D01*
X157988000Y-78105000D02*
X156862999Y-76979999D01*
X178308000Y-100965000D02*
X178308000Y-104775000D01*
G04 #@! TO.N,/Vin*
X113538000Y-107315000D02*
X114808000Y-108585000D01*
X112268000Y-107315000D02*
X113538000Y-107315000D01*
X112268000Y-111125000D02*
X114808000Y-108585000D01*
X115608998Y-113665000D02*
X118618000Y-113665000D01*
X113632999Y-111689001D02*
X115608998Y-113665000D01*
X114808000Y-108585000D02*
X113632999Y-109760001D01*
X113632999Y-109760001D02*
X113632999Y-111689001D01*
X128778000Y-122555000D02*
X131389010Y-125166010D01*
X156718000Y-123977400D02*
X156718000Y-123825000D01*
X155529390Y-125166010D02*
X156718000Y-123977400D01*
X131389010Y-125166010D02*
X155529390Y-125166010D01*
G04 #@! TO.N,/7*
X145288000Y-99695000D02*
X132588000Y-99695000D01*
X132588000Y-99695000D02*
X124968000Y-107315000D01*
G04 #@! TO.N,/6(\002A\002A)*
X146558000Y-100965000D02*
X132588000Y-100965000D01*
X132588000Y-100965000D02*
X126238000Y-107315000D01*
X133858000Y-116375000D02*
X133858000Y-117475000D01*
X133782999Y-116299999D02*
X133858000Y-116375000D01*
X127830797Y-116299999D02*
X133782999Y-116299999D01*
X126238000Y-114707202D02*
X127830797Y-116299999D01*
X126238000Y-113665000D02*
X126238000Y-114707202D01*
G04 #@! TO.N,/5(\002A\002A)*
X131318000Y-112395000D02*
X131318000Y-108585000D01*
X131318000Y-108585000D02*
X136398000Y-103505000D01*
X159548000Y-84455000D02*
X159258000Y-84455000D01*
X160528000Y-85885000D02*
X160528000Y-85435000D01*
X160528000Y-85435000D02*
X159548000Y-84455000D01*
X151638000Y-92075000D02*
X136848000Y-92075000D01*
X152908000Y-90805000D02*
X151638000Y-92075000D01*
G04 #@! TO.N,/4*
X133858000Y-93345000D02*
X152908000Y-93345000D01*
X152908000Y-93345000D02*
X154178000Y-92075000D01*
X163068000Y-85300736D02*
X163068000Y-85885000D01*
X162222264Y-84455000D02*
X163068000Y-85300736D01*
X161798000Y-84455000D02*
X162222264Y-84455000D01*
G04 #@! TO.N,/3(\002A\002A)*
X156636601Y-113746399D02*
X156967443Y-113415557D01*
X138938000Y-114935000D02*
X140126601Y-113746399D01*
X140126601Y-113746399D02*
X156636601Y-113746399D01*
X163068000Y-80485000D02*
X163068000Y-79375000D01*
X163068000Y-80485000D02*
X163068000Y-81915000D01*
X163068000Y-110305000D02*
X163888000Y-111125000D01*
X163068000Y-107315000D02*
X163068000Y-110305000D01*
G04 #@! TO.N,/2*
X151387707Y-108585000D02*
X154178000Y-108585000D01*
X148766308Y-111206399D02*
X151387707Y-108585000D01*
X137586601Y-113746399D02*
X139490191Y-113746399D01*
X136398000Y-114935000D02*
X137586601Y-113746399D01*
X139490191Y-113746399D02*
X140289399Y-112947191D01*
X140289399Y-112947191D02*
X140289399Y-111824471D01*
X140289399Y-111824471D02*
X140907471Y-111206399D01*
X140907471Y-111206399D02*
X148766308Y-111206399D01*
X161413000Y-79234998D02*
X161798000Y-79234998D01*
X161328002Y-79234998D02*
X161413000Y-79234998D01*
X160528000Y-80485000D02*
X160528000Y-80035000D01*
X160528000Y-80035000D02*
X161328002Y-79234998D01*
D30*
G04 #@! TO.N,/Vs*
X122348000Y-94535000D02*
X122428000Y-94615000D01*
X116078000Y-94535000D02*
X122348000Y-94535000D01*
X117428000Y-94535000D02*
X122428000Y-89535000D01*
X116078000Y-94535000D02*
X117428000Y-94535000D01*
X139447999Y-82814999D02*
X138548000Y-81915000D01*
X140398001Y-83765001D02*
X139447999Y-82814999D01*
X149542178Y-83765001D02*
X140398001Y-83765001D01*
X152068010Y-86290833D02*
X149542178Y-83765001D01*
X152068010Y-87699167D02*
X152068010Y-86290833D01*
X125738011Y-90545011D02*
X149222166Y-90545011D01*
X124728000Y-89535000D02*
X125738011Y-90545011D01*
X122428000Y-89535000D02*
X124728000Y-89535000D01*
X154042177Y-88265000D02*
X151502177Y-88265000D01*
X176198010Y-110420833D02*
X154042177Y-88265000D01*
X176198010Y-111829167D02*
X176198010Y-110420833D01*
X175052176Y-112975001D02*
X176198010Y-111829167D01*
X151502177Y-88265000D02*
X152068010Y-87699167D01*
X165417999Y-112975001D02*
X175052176Y-112975001D01*
X162188000Y-116205000D02*
X165417999Y-112975001D01*
X149222166Y-90545011D02*
X151502177Y-88265000D01*
D29*
X122428000Y-94615000D02*
X123718000Y-94615000D01*
X123718000Y-94615000D02*
X124968000Y-95865000D01*
X120988000Y-106045000D02*
X119888000Y-106045000D01*
X124968000Y-102065000D02*
X120988000Y-106045000D01*
X124968000Y-98425000D02*
X124968000Y-102065000D01*
G04 #@! TO.N,Net-(C2-Pad1)*
X117348000Y-111125000D02*
X117348000Y-108585000D01*
X119888000Y-108585000D02*
X117348000Y-108585000D01*
G04 #@! TO.N,/BR1*
X135908870Y-116205000D02*
X147828000Y-116205000D01*
X133858000Y-114935000D02*
X135128000Y-116205000D01*
X135128000Y-116205000D02*
X135908870Y-116205000D01*
X156595626Y-118745000D02*
X163068000Y-118745000D01*
X155448000Y-118745000D02*
X156718000Y-118745000D01*
G04 #@! TO.N,/BR2*
X138287877Y-85054877D02*
X148451539Y-85054877D01*
X151638000Y-83185000D02*
X155448000Y-86995000D01*
X135148000Y-81915000D02*
X137688000Y-84455000D01*
X137688000Y-84455000D02*
X138287877Y-85054877D01*
D30*
G04 #@! TO.N,Net-(C5-Pad1)*
X126331820Y-120842999D02*
X126773821Y-121285000D01*
X116078000Y-117475000D02*
X119445999Y-120842999D01*
X119445999Y-120842999D02*
X126331820Y-120842999D01*
X163908000Y-121285000D02*
X168988000Y-116205000D01*
X126773821Y-121285000D02*
X163908000Y-121285000D01*
X168988000Y-116205000D02*
X174498000Y-116205000D01*
G04 #@! TO.N,Net-(C6-Pad2)*
X113327990Y-116227936D02*
X114620926Y-114935000D01*
X113327990Y-120524990D02*
X113327990Y-116227936D01*
X116078000Y-122475000D02*
X115278000Y-122475000D01*
X115278000Y-122475000D02*
X113327990Y-120524990D01*
X149668001Y-116904999D02*
X150368000Y-116205000D01*
X147297999Y-119275001D02*
X149668001Y-116904999D01*
X127167999Y-119275001D02*
X147297999Y-119275001D01*
X122827998Y-114935000D02*
X127167999Y-119275001D01*
X114620926Y-114935000D02*
X122827998Y-114935000D01*
X150368000Y-116205000D02*
X155388000Y-116205000D01*
G04 #@! TO.N,Net-(C8-Pad2)*
X144448001Y-81015001D02*
X145348000Y-81915000D01*
X143497999Y-80064999D02*
X144448001Y-81015001D01*
X126324637Y-80064999D02*
X143497999Y-80064999D01*
X121144628Y-74884990D02*
X126324637Y-80064999D01*
X114030936Y-74884990D02*
X121144628Y-74884990D01*
X112778000Y-76137926D02*
X114030936Y-74884990D01*
X112778000Y-79335000D02*
X112778000Y-76137926D01*
X115278000Y-81835000D02*
X112778000Y-79335000D01*
X116078000Y-81835000D02*
X115278000Y-81835000D01*
X145348000Y-81915000D02*
X150368000Y-81915000D01*
G04 #@! TO.N,Net-(C7-Pad1)*
X131748000Y-81915000D02*
X127508000Y-81915000D01*
X121158000Y-81915000D02*
X116078000Y-76835000D01*
X127508000Y-81915000D02*
X121158000Y-81915000D01*
D29*
G04 #@! TO.N,/CSEN1*
X159687999Y-117104999D02*
X158788000Y-116205000D01*
X160013001Y-117430001D02*
X159687999Y-117104999D01*
X166176001Y-117430001D02*
X160013001Y-117430001D01*
X166813001Y-116793001D02*
X166176001Y-117430001D01*
X166813001Y-116566997D02*
X166813001Y-116793001D01*
X168444998Y-114935000D02*
X166813001Y-116566997D01*
X178308000Y-114935000D02*
X168444998Y-114935000D01*
X157888001Y-117104999D02*
X158788000Y-116205000D01*
X157562999Y-117430001D02*
X157888001Y-117104999D01*
X155492999Y-117430001D02*
X157562999Y-117430001D01*
X152908000Y-120015000D02*
X155492999Y-117430001D01*
G04 #@! TO.N,/CSEN2*
X141948000Y-81915000D02*
X143580233Y-81915000D01*
X143580233Y-81915000D02*
X143764115Y-82098882D01*
G04 #@! TO.N,/TF1*
X157088000Y-109852208D02*
X157088000Y-111125000D01*
X155195791Y-107959999D02*
X157088000Y-109852208D01*
X141087999Y-107959999D02*
X155195791Y-107959999D01*
X140271061Y-108776937D02*
X141087999Y-107959999D01*
X140271061Y-111206399D02*
X140271061Y-108776937D01*
X138367471Y-111206399D02*
X140271061Y-111206399D01*
X137749399Y-111824471D02*
X138367471Y-111206399D01*
X137749399Y-112947191D02*
X137749399Y-111824471D01*
X137031590Y-113665000D02*
X137749399Y-112947191D01*
X128934400Y-113665000D02*
X137031590Y-113665000D01*
X128778000Y-113821400D02*
X128934400Y-113665000D01*
X128778000Y-114935000D02*
X128778000Y-113821400D01*
D30*
G04 #@! TO.N,Net-(C5-Pad2)*
X174498000Y-111125000D02*
X170688000Y-111125000D01*
G04 #@! TO.N,Net-(C6-Pad1)*
X150368000Y-111125000D02*
X153688000Y-111125000D01*
G04 #@! TO.N,Net-(C8-Pad1)*
X150368000Y-86995000D02*
X147048000Y-86995000D01*
G04 #@! TO.N,Net-(C7-Pad2)*
X127508000Y-86995000D02*
X130048000Y-86995000D01*
D29*
G04 #@! TO.N,Net-(D1-Pad2)*
X164338000Y-80485000D02*
X165608000Y-80485000D01*
X165608000Y-80485000D02*
X167988000Y-80485000D01*
X167988000Y-80485000D02*
X168148000Y-80645000D01*
X174103000Y-80645000D02*
X175373000Y-81915000D01*
X173228000Y-80645000D02*
X174103000Y-80645000D01*
G04 #@! TO.N,Net-(D1-Pad1)*
X171563000Y-81915000D02*
X173623000Y-81915000D01*
G04 #@! TO.N,Net-(D2-Pad1)*
X171563000Y-79375000D02*
X173623000Y-79375000D01*
G04 #@! TO.N,Net-(D2-Pad2)*
X159258000Y-80035000D02*
X159258000Y-80485000D01*
X161188000Y-78105000D02*
X159258000Y-80035000D01*
X174103000Y-78105000D02*
X161188000Y-78105000D01*
X175373000Y-79375000D02*
X174103000Y-78105000D01*
X159258000Y-80485000D02*
X157988000Y-80485000D01*
G04 #@! TO.N,Net-(D3-Pad2)*
X159258000Y-86335000D02*
X159258000Y-85885000D01*
X161638010Y-88715010D02*
X159258000Y-86335000D01*
X173652990Y-88715010D02*
X161638010Y-88715010D01*
X175373000Y-86995000D02*
X173652990Y-88715010D01*
X159258000Y-85885000D02*
X157988000Y-85885000D01*
G04 #@! TO.N,Net-(D3-Pad1)*
X171563000Y-86995000D02*
X173623000Y-86995000D01*
G04 #@! TO.N,Net-(D4-Pad1)*
X171563000Y-84455000D02*
X173623000Y-84455000D01*
G04 #@! TO.N,Net-(D4-Pad2)*
X164338000Y-85885000D02*
X165608000Y-85885000D01*
X165608000Y-85885000D02*
X167988000Y-85885000D01*
X167988000Y-85885000D02*
X168148000Y-85725000D01*
X174103000Y-85725000D02*
X175373000Y-84455000D01*
X173228000Y-85725000D02*
X174103000Y-85725000D01*
G04 #@! TO.N,Net-(D5-Pad1)*
X112268000Y-100965000D02*
X112268000Y-104775000D01*
G04 #@! TD*
M02*
