G04 #@! TF.GenerationSoftware,KiCad,Pcbnew,(5.0.0)*
G04 #@! TF.CreationDate,2019-03-29T10:36:41+00:00*
G04 #@! TF.ProjectId,MotorDriverV1_0,4D6F746F7244726976657256315F302E,rev?*
G04 #@! TF.SameCoordinates,Original*
G04 #@! TF.FileFunction,Soldermask,Bot*
G04 #@! TF.FilePolarity,Negative*
%FSLAX46Y46*%
G04 Gerber Fmt 4.6, Leading zero omitted, Abs format (unit mm)*
G04 Created by KiCad (PCBNEW (5.0.0)) date 03/29/19 10:36:41*
%MOMM*%
%LPD*%
G01*
G04 APERTURE LIST*
%ADD10C,0.100000*%
G04 APERTURE END LIST*
D10*
G36*
X125560712Y-121871088D02*
X125930510Y-122024263D01*
X125930513Y-122024265D01*
X126263325Y-122246643D01*
X126546357Y-122529675D01*
X126640807Y-122671030D01*
X126768737Y-122862490D01*
X126921912Y-123232288D01*
X127000000Y-123624864D01*
X127000000Y-124025136D01*
X126921912Y-124417712D01*
X126768737Y-124787510D01*
X126768735Y-124787513D01*
X126546357Y-125120325D01*
X126263325Y-125403357D01*
X125930513Y-125625735D01*
X125930510Y-125625737D01*
X125560712Y-125778912D01*
X125168136Y-125857000D01*
X124767864Y-125857000D01*
X124375288Y-125778912D01*
X124005490Y-125625737D01*
X124005487Y-125625735D01*
X123672675Y-125403357D01*
X123389643Y-125120325D01*
X123167265Y-124787513D01*
X123167263Y-124787510D01*
X123014088Y-124417712D01*
X122936000Y-124025136D01*
X122936000Y-123624864D01*
X123014088Y-123232288D01*
X123167263Y-122862490D01*
X123295193Y-122671030D01*
X123389643Y-122529675D01*
X123672675Y-122246643D01*
X124005487Y-122024265D01*
X124005490Y-122024263D01*
X124375288Y-121871088D01*
X124767864Y-121793000D01*
X125168136Y-121793000D01*
X125560712Y-121871088D01*
X125560712Y-121871088D01*
G37*
G36*
X139107294Y-122821496D02*
X139227726Y-122858029D01*
X139270087Y-122870879D01*
X139420112Y-122951068D01*
X139551612Y-123058988D01*
X139659532Y-123190488D01*
X139739721Y-123340512D01*
X139752571Y-123382873D01*
X139789104Y-123503305D01*
X139789104Y-123503307D01*
X139801600Y-123630179D01*
X139801600Y-124019820D01*
X139801076Y-124025136D01*
X139789104Y-124146694D01*
X139752571Y-124267128D01*
X139739721Y-124309488D01*
X139659532Y-124459512D01*
X139551612Y-124591012D01*
X139420112Y-124698932D01*
X139270088Y-124779121D01*
X139242433Y-124787510D01*
X139107295Y-124828504D01*
X138994432Y-124839620D01*
X138938001Y-124845178D01*
X138938000Y-124845178D01*
X138768706Y-124828504D01*
X138633568Y-124787510D01*
X138605913Y-124779121D01*
X138455889Y-124698932D01*
X138365946Y-124625117D01*
X138324388Y-124591012D01*
X138216469Y-124459512D01*
X138194127Y-124417713D01*
X138136279Y-124309488D01*
X138123429Y-124267127D01*
X138086896Y-124146695D01*
X138078565Y-124062112D01*
X138074400Y-124019821D01*
X138074400Y-123630180D01*
X138086896Y-123503308D01*
X138086896Y-123503306D01*
X138136278Y-123340517D01*
X138136279Y-123340513D01*
X138216468Y-123190488D01*
X138324388Y-123058988D01*
X138455888Y-122951068D01*
X138605912Y-122870879D01*
X138648273Y-122858029D01*
X138768705Y-122821496D01*
X138881568Y-122810380D01*
X138937999Y-122804822D01*
X138938000Y-122804822D01*
X139107294Y-122821496D01*
X139107294Y-122821496D01*
G37*
G36*
X174667294Y-122821496D02*
X174787726Y-122858029D01*
X174830087Y-122870879D01*
X174980112Y-122951068D01*
X175111612Y-123058988D01*
X175219532Y-123190488D01*
X175299721Y-123340512D01*
X175312571Y-123382873D01*
X175349104Y-123503305D01*
X175349104Y-123503307D01*
X175361600Y-123630179D01*
X175361600Y-124019820D01*
X175361076Y-124025136D01*
X175349104Y-124146694D01*
X175312571Y-124267128D01*
X175299721Y-124309488D01*
X175219532Y-124459512D01*
X175111612Y-124591012D01*
X174980112Y-124698932D01*
X174830088Y-124779121D01*
X174802433Y-124787510D01*
X174667295Y-124828504D01*
X174554432Y-124839620D01*
X174498001Y-124845178D01*
X174498000Y-124845178D01*
X174328706Y-124828504D01*
X174193568Y-124787510D01*
X174165913Y-124779121D01*
X174015889Y-124698932D01*
X173925946Y-124625117D01*
X173884388Y-124591012D01*
X173776469Y-124459512D01*
X173754127Y-124417713D01*
X173696279Y-124309488D01*
X173683429Y-124267127D01*
X173646896Y-124146695D01*
X173638565Y-124062112D01*
X173634400Y-124019821D01*
X173634400Y-123630180D01*
X173646896Y-123503308D01*
X173646896Y-123503306D01*
X173696278Y-123340517D01*
X173696279Y-123340513D01*
X173776468Y-123190488D01*
X173884388Y-123058988D01*
X174015888Y-122951068D01*
X174165912Y-122870879D01*
X174208273Y-122858029D01*
X174328705Y-122821496D01*
X174441568Y-122810380D01*
X174497999Y-122804822D01*
X174498000Y-122804822D01*
X174667294Y-122821496D01*
X174667294Y-122821496D01*
G37*
G36*
X172127294Y-122821496D02*
X172247726Y-122858029D01*
X172290087Y-122870879D01*
X172440112Y-122951068D01*
X172571612Y-123058988D01*
X172679532Y-123190488D01*
X172759721Y-123340512D01*
X172772571Y-123382873D01*
X172809104Y-123503305D01*
X172809104Y-123503307D01*
X172821600Y-123630179D01*
X172821600Y-124019820D01*
X172821076Y-124025136D01*
X172809104Y-124146694D01*
X172772571Y-124267128D01*
X172759721Y-124309488D01*
X172679532Y-124459512D01*
X172571612Y-124591012D01*
X172440112Y-124698932D01*
X172290088Y-124779121D01*
X172262433Y-124787510D01*
X172127295Y-124828504D01*
X172014432Y-124839620D01*
X171958001Y-124845178D01*
X171958000Y-124845178D01*
X171788706Y-124828504D01*
X171653568Y-124787510D01*
X171625913Y-124779121D01*
X171475889Y-124698932D01*
X171385946Y-124625117D01*
X171344388Y-124591012D01*
X171236469Y-124459512D01*
X171214127Y-124417713D01*
X171156279Y-124309488D01*
X171143429Y-124267127D01*
X171106896Y-124146695D01*
X171098565Y-124062112D01*
X171094400Y-124019821D01*
X171094400Y-123630180D01*
X171106896Y-123503308D01*
X171106896Y-123503306D01*
X171156278Y-123340517D01*
X171156279Y-123340513D01*
X171236468Y-123190488D01*
X171344388Y-123058988D01*
X171475888Y-122951068D01*
X171625912Y-122870879D01*
X171668273Y-122858029D01*
X171788705Y-122821496D01*
X171901568Y-122810380D01*
X171957999Y-122804822D01*
X171958000Y-122804822D01*
X172127294Y-122821496D01*
X172127294Y-122821496D01*
G37*
G36*
X169587294Y-122821496D02*
X169707726Y-122858029D01*
X169750087Y-122870879D01*
X169900112Y-122951068D01*
X170031612Y-123058988D01*
X170139532Y-123190488D01*
X170219721Y-123340512D01*
X170232571Y-123382873D01*
X170269104Y-123503305D01*
X170269104Y-123503307D01*
X170281600Y-123630179D01*
X170281600Y-124019820D01*
X170281076Y-124025136D01*
X170269104Y-124146694D01*
X170232571Y-124267128D01*
X170219721Y-124309488D01*
X170139532Y-124459512D01*
X170031612Y-124591012D01*
X169900112Y-124698932D01*
X169750088Y-124779121D01*
X169722433Y-124787510D01*
X169587295Y-124828504D01*
X169474432Y-124839620D01*
X169418001Y-124845178D01*
X169418000Y-124845178D01*
X169248706Y-124828504D01*
X169113568Y-124787510D01*
X169085913Y-124779121D01*
X168935889Y-124698932D01*
X168845946Y-124625117D01*
X168804388Y-124591012D01*
X168696469Y-124459512D01*
X168674127Y-124417713D01*
X168616279Y-124309488D01*
X168603429Y-124267127D01*
X168566896Y-124146695D01*
X168558565Y-124062112D01*
X168554400Y-124019821D01*
X168554400Y-123630180D01*
X168566896Y-123503308D01*
X168566896Y-123503306D01*
X168616278Y-123340517D01*
X168616279Y-123340513D01*
X168696468Y-123190488D01*
X168804388Y-123058988D01*
X168935888Y-122951068D01*
X169085912Y-122870879D01*
X169128273Y-122858029D01*
X169248705Y-122821496D01*
X169361568Y-122810380D01*
X169417999Y-122804822D01*
X169418000Y-122804822D01*
X169587294Y-122821496D01*
X169587294Y-122821496D01*
G37*
G36*
X167047294Y-122821496D02*
X167167726Y-122858029D01*
X167210087Y-122870879D01*
X167360112Y-122951068D01*
X167491612Y-123058988D01*
X167599532Y-123190488D01*
X167679721Y-123340512D01*
X167692571Y-123382873D01*
X167729104Y-123503305D01*
X167729104Y-123503307D01*
X167741600Y-123630179D01*
X167741600Y-124019820D01*
X167741076Y-124025136D01*
X167729104Y-124146694D01*
X167692571Y-124267128D01*
X167679721Y-124309488D01*
X167599532Y-124459512D01*
X167491612Y-124591012D01*
X167360112Y-124698932D01*
X167210088Y-124779121D01*
X167182433Y-124787510D01*
X167047295Y-124828504D01*
X166934432Y-124839620D01*
X166878001Y-124845178D01*
X166878000Y-124845178D01*
X166708706Y-124828504D01*
X166573568Y-124787510D01*
X166545913Y-124779121D01*
X166395889Y-124698932D01*
X166305946Y-124625117D01*
X166264388Y-124591012D01*
X166156469Y-124459512D01*
X166134127Y-124417713D01*
X166076279Y-124309488D01*
X166063429Y-124267127D01*
X166026896Y-124146695D01*
X166018565Y-124062112D01*
X166014400Y-124019821D01*
X166014400Y-123630180D01*
X166026896Y-123503308D01*
X166026896Y-123503306D01*
X166076278Y-123340517D01*
X166076279Y-123340513D01*
X166156468Y-123190488D01*
X166264388Y-123058988D01*
X166395888Y-122951068D01*
X166545912Y-122870879D01*
X166588273Y-122858029D01*
X166708705Y-122821496D01*
X166821568Y-122810380D01*
X166877999Y-122804822D01*
X166878000Y-122804822D01*
X167047294Y-122821496D01*
X167047294Y-122821496D01*
G37*
G36*
X164507294Y-122821496D02*
X164627726Y-122858029D01*
X164670087Y-122870879D01*
X164820112Y-122951068D01*
X164951612Y-123058988D01*
X165059532Y-123190488D01*
X165139721Y-123340512D01*
X165152571Y-123382873D01*
X165189104Y-123503305D01*
X165189104Y-123503307D01*
X165201600Y-123630179D01*
X165201600Y-124019820D01*
X165201076Y-124025136D01*
X165189104Y-124146694D01*
X165152571Y-124267128D01*
X165139721Y-124309488D01*
X165059532Y-124459512D01*
X164951612Y-124591012D01*
X164820112Y-124698932D01*
X164670088Y-124779121D01*
X164642433Y-124787510D01*
X164507295Y-124828504D01*
X164394432Y-124839620D01*
X164338001Y-124845178D01*
X164338000Y-124845178D01*
X164168706Y-124828504D01*
X164033568Y-124787510D01*
X164005913Y-124779121D01*
X163855889Y-124698932D01*
X163765946Y-124625117D01*
X163724388Y-124591012D01*
X163616469Y-124459512D01*
X163594127Y-124417713D01*
X163536279Y-124309488D01*
X163523429Y-124267127D01*
X163486896Y-124146695D01*
X163478565Y-124062112D01*
X163474400Y-124019821D01*
X163474400Y-123630180D01*
X163486896Y-123503308D01*
X163486896Y-123503306D01*
X163536278Y-123340517D01*
X163536279Y-123340513D01*
X163616468Y-123190488D01*
X163724388Y-123058988D01*
X163855888Y-122951068D01*
X164005912Y-122870879D01*
X164048273Y-122858029D01*
X164168705Y-122821496D01*
X164281568Y-122810380D01*
X164337999Y-122804822D01*
X164338000Y-122804822D01*
X164507294Y-122821496D01*
X164507294Y-122821496D01*
G37*
G36*
X161967294Y-122821496D02*
X162087726Y-122858029D01*
X162130087Y-122870879D01*
X162280112Y-122951068D01*
X162411612Y-123058988D01*
X162519532Y-123190488D01*
X162599721Y-123340512D01*
X162612571Y-123382873D01*
X162649104Y-123503305D01*
X162649104Y-123503307D01*
X162661600Y-123630179D01*
X162661600Y-124019820D01*
X162661076Y-124025136D01*
X162649104Y-124146694D01*
X162612571Y-124267128D01*
X162599721Y-124309488D01*
X162519532Y-124459512D01*
X162411612Y-124591012D01*
X162280112Y-124698932D01*
X162130088Y-124779121D01*
X162102433Y-124787510D01*
X161967295Y-124828504D01*
X161854432Y-124839620D01*
X161798001Y-124845178D01*
X161798000Y-124845178D01*
X161628706Y-124828504D01*
X161493568Y-124787510D01*
X161465913Y-124779121D01*
X161315889Y-124698932D01*
X161225946Y-124625117D01*
X161184388Y-124591012D01*
X161076469Y-124459512D01*
X161054127Y-124417713D01*
X160996279Y-124309488D01*
X160983429Y-124267127D01*
X160946896Y-124146695D01*
X160938565Y-124062112D01*
X160934400Y-124019821D01*
X160934400Y-123630180D01*
X160946896Y-123503308D01*
X160946896Y-123503306D01*
X160996278Y-123340517D01*
X160996279Y-123340513D01*
X161076468Y-123190488D01*
X161184388Y-123058988D01*
X161315888Y-122951068D01*
X161465912Y-122870879D01*
X161508273Y-122858029D01*
X161628705Y-122821496D01*
X161741568Y-122810380D01*
X161797999Y-122804822D01*
X161798000Y-122804822D01*
X161967294Y-122821496D01*
X161967294Y-122821496D01*
G37*
G36*
X154347294Y-122821496D02*
X154467726Y-122858029D01*
X154510087Y-122870879D01*
X154660112Y-122951068D01*
X154791612Y-123058988D01*
X154899532Y-123190488D01*
X154979721Y-123340512D01*
X154992571Y-123382873D01*
X155029104Y-123503305D01*
X155029104Y-123503307D01*
X155041600Y-123630179D01*
X155041600Y-124019820D01*
X155041076Y-124025136D01*
X155029104Y-124146694D01*
X154992571Y-124267128D01*
X154979721Y-124309488D01*
X154899532Y-124459512D01*
X154791612Y-124591012D01*
X154660112Y-124698932D01*
X154510088Y-124779121D01*
X154482433Y-124787510D01*
X154347295Y-124828504D01*
X154234432Y-124839620D01*
X154178001Y-124845178D01*
X154178000Y-124845178D01*
X154008706Y-124828504D01*
X153873568Y-124787510D01*
X153845913Y-124779121D01*
X153695889Y-124698932D01*
X153605946Y-124625117D01*
X153564388Y-124591012D01*
X153456469Y-124459512D01*
X153434127Y-124417713D01*
X153376279Y-124309488D01*
X153363429Y-124267127D01*
X153326896Y-124146695D01*
X153318565Y-124062112D01*
X153314400Y-124019821D01*
X153314400Y-123630180D01*
X153326896Y-123503308D01*
X153326896Y-123503306D01*
X153376278Y-123340517D01*
X153376279Y-123340513D01*
X153456468Y-123190488D01*
X153564388Y-123058988D01*
X153695888Y-122951068D01*
X153845912Y-122870879D01*
X153888273Y-122858029D01*
X154008705Y-122821496D01*
X154121568Y-122810380D01*
X154177999Y-122804822D01*
X154178000Y-122804822D01*
X154347294Y-122821496D01*
X154347294Y-122821496D01*
G37*
G36*
X151807294Y-122821496D02*
X151927726Y-122858029D01*
X151970087Y-122870879D01*
X152120112Y-122951068D01*
X152251612Y-123058988D01*
X152359532Y-123190488D01*
X152439721Y-123340512D01*
X152452571Y-123382873D01*
X152489104Y-123503305D01*
X152489104Y-123503307D01*
X152501600Y-123630179D01*
X152501600Y-124019820D01*
X152501076Y-124025136D01*
X152489104Y-124146694D01*
X152452571Y-124267128D01*
X152439721Y-124309488D01*
X152359532Y-124459512D01*
X152251612Y-124591012D01*
X152120112Y-124698932D01*
X151970088Y-124779121D01*
X151942433Y-124787510D01*
X151807295Y-124828504D01*
X151694432Y-124839620D01*
X151638001Y-124845178D01*
X151638000Y-124845178D01*
X151468706Y-124828504D01*
X151333568Y-124787510D01*
X151305913Y-124779121D01*
X151155889Y-124698932D01*
X151065946Y-124625117D01*
X151024388Y-124591012D01*
X150916469Y-124459512D01*
X150894127Y-124417713D01*
X150836279Y-124309488D01*
X150823429Y-124267127D01*
X150786896Y-124146695D01*
X150778565Y-124062112D01*
X150774400Y-124019821D01*
X150774400Y-123630180D01*
X150786896Y-123503308D01*
X150786896Y-123503306D01*
X150836278Y-123340517D01*
X150836279Y-123340513D01*
X150916468Y-123190488D01*
X151024388Y-123058988D01*
X151155888Y-122951068D01*
X151305912Y-122870879D01*
X151348273Y-122858029D01*
X151468705Y-122821496D01*
X151581568Y-122810380D01*
X151637999Y-122804822D01*
X151638000Y-122804822D01*
X151807294Y-122821496D01*
X151807294Y-122821496D01*
G37*
G36*
X149267294Y-122821496D02*
X149387726Y-122858029D01*
X149430087Y-122870879D01*
X149580112Y-122951068D01*
X149711612Y-123058988D01*
X149819532Y-123190488D01*
X149899721Y-123340512D01*
X149912571Y-123382873D01*
X149949104Y-123503305D01*
X149949104Y-123503307D01*
X149961600Y-123630179D01*
X149961600Y-124019820D01*
X149961076Y-124025136D01*
X149949104Y-124146694D01*
X149912571Y-124267128D01*
X149899721Y-124309488D01*
X149819532Y-124459512D01*
X149711612Y-124591012D01*
X149580112Y-124698932D01*
X149430088Y-124779121D01*
X149402433Y-124787510D01*
X149267295Y-124828504D01*
X149154432Y-124839620D01*
X149098001Y-124845178D01*
X149098000Y-124845178D01*
X148928706Y-124828504D01*
X148793568Y-124787510D01*
X148765913Y-124779121D01*
X148615889Y-124698932D01*
X148525946Y-124625117D01*
X148484388Y-124591012D01*
X148376469Y-124459512D01*
X148354127Y-124417713D01*
X148296279Y-124309488D01*
X148283429Y-124267127D01*
X148246896Y-124146695D01*
X148238565Y-124062112D01*
X148234400Y-124019821D01*
X148234400Y-123630180D01*
X148246896Y-123503308D01*
X148246896Y-123503306D01*
X148296278Y-123340517D01*
X148296279Y-123340513D01*
X148376468Y-123190488D01*
X148484388Y-123058988D01*
X148615888Y-122951068D01*
X148765912Y-122870879D01*
X148808273Y-122858029D01*
X148928705Y-122821496D01*
X149041568Y-122810380D01*
X149097999Y-122804822D01*
X149098000Y-122804822D01*
X149267294Y-122821496D01*
X149267294Y-122821496D01*
G37*
G36*
X146727294Y-122821496D02*
X146847726Y-122858029D01*
X146890087Y-122870879D01*
X147040112Y-122951068D01*
X147171612Y-123058988D01*
X147279532Y-123190488D01*
X147359721Y-123340512D01*
X147372571Y-123382873D01*
X147409104Y-123503305D01*
X147409104Y-123503307D01*
X147421600Y-123630179D01*
X147421600Y-124019820D01*
X147421076Y-124025136D01*
X147409104Y-124146694D01*
X147372571Y-124267128D01*
X147359721Y-124309488D01*
X147279532Y-124459512D01*
X147171612Y-124591012D01*
X147040112Y-124698932D01*
X146890088Y-124779121D01*
X146862433Y-124787510D01*
X146727295Y-124828504D01*
X146614432Y-124839620D01*
X146558001Y-124845178D01*
X146558000Y-124845178D01*
X146388706Y-124828504D01*
X146253568Y-124787510D01*
X146225913Y-124779121D01*
X146075889Y-124698932D01*
X145985946Y-124625117D01*
X145944388Y-124591012D01*
X145836469Y-124459512D01*
X145814127Y-124417713D01*
X145756279Y-124309488D01*
X145743429Y-124267127D01*
X145706896Y-124146695D01*
X145698565Y-124062112D01*
X145694400Y-124019821D01*
X145694400Y-123630180D01*
X145706896Y-123503308D01*
X145706896Y-123503306D01*
X145756278Y-123340517D01*
X145756279Y-123340513D01*
X145836468Y-123190488D01*
X145944388Y-123058988D01*
X146075888Y-122951068D01*
X146225912Y-122870879D01*
X146268273Y-122858029D01*
X146388705Y-122821496D01*
X146501568Y-122810380D01*
X146557999Y-122804822D01*
X146558000Y-122804822D01*
X146727294Y-122821496D01*
X146727294Y-122821496D01*
G37*
G36*
X144187294Y-122821496D02*
X144307726Y-122858029D01*
X144350087Y-122870879D01*
X144500112Y-122951068D01*
X144631612Y-123058988D01*
X144739532Y-123190488D01*
X144819721Y-123340512D01*
X144832571Y-123382873D01*
X144869104Y-123503305D01*
X144869104Y-123503307D01*
X144881600Y-123630179D01*
X144881600Y-124019820D01*
X144881076Y-124025136D01*
X144869104Y-124146694D01*
X144832571Y-124267128D01*
X144819721Y-124309488D01*
X144739532Y-124459512D01*
X144631612Y-124591012D01*
X144500112Y-124698932D01*
X144350088Y-124779121D01*
X144322433Y-124787510D01*
X144187295Y-124828504D01*
X144074432Y-124839620D01*
X144018001Y-124845178D01*
X144018000Y-124845178D01*
X143848706Y-124828504D01*
X143713568Y-124787510D01*
X143685913Y-124779121D01*
X143535889Y-124698932D01*
X143445946Y-124625117D01*
X143404388Y-124591012D01*
X143296469Y-124459512D01*
X143274127Y-124417713D01*
X143216279Y-124309488D01*
X143203429Y-124267127D01*
X143166896Y-124146695D01*
X143158565Y-124062112D01*
X143154400Y-124019821D01*
X143154400Y-123630180D01*
X143166896Y-123503308D01*
X143166896Y-123503306D01*
X143216278Y-123340517D01*
X143216279Y-123340513D01*
X143296468Y-123190488D01*
X143404388Y-123058988D01*
X143535888Y-122951068D01*
X143685912Y-122870879D01*
X143728273Y-122858029D01*
X143848705Y-122821496D01*
X143961568Y-122810380D01*
X144017999Y-122804822D01*
X144018000Y-122804822D01*
X144187294Y-122821496D01*
X144187294Y-122821496D01*
G37*
G36*
X141647294Y-122821496D02*
X141767726Y-122858029D01*
X141810087Y-122870879D01*
X141960112Y-122951068D01*
X142091612Y-123058988D01*
X142199532Y-123190488D01*
X142279721Y-123340512D01*
X142292571Y-123382873D01*
X142329104Y-123503305D01*
X142329104Y-123503307D01*
X142341600Y-123630179D01*
X142341600Y-124019820D01*
X142341076Y-124025136D01*
X142329104Y-124146694D01*
X142292571Y-124267128D01*
X142279721Y-124309488D01*
X142199532Y-124459512D01*
X142091612Y-124591012D01*
X141960112Y-124698932D01*
X141810088Y-124779121D01*
X141782433Y-124787510D01*
X141647295Y-124828504D01*
X141534432Y-124839620D01*
X141478001Y-124845178D01*
X141478000Y-124845178D01*
X141308706Y-124828504D01*
X141173568Y-124787510D01*
X141145913Y-124779121D01*
X140995889Y-124698932D01*
X140905946Y-124625117D01*
X140864388Y-124591012D01*
X140756469Y-124459512D01*
X140734127Y-124417713D01*
X140676279Y-124309488D01*
X140663429Y-124267127D01*
X140626896Y-124146695D01*
X140618565Y-124062112D01*
X140614400Y-124019821D01*
X140614400Y-123630180D01*
X140626896Y-123503308D01*
X140626896Y-123503306D01*
X140676278Y-123340517D01*
X140676279Y-123340513D01*
X140756468Y-123190488D01*
X140864388Y-123058988D01*
X140995888Y-122951068D01*
X141145912Y-122870879D01*
X141188273Y-122858029D01*
X141308705Y-122821496D01*
X141421568Y-122810380D01*
X141477999Y-122804822D01*
X141478000Y-122804822D01*
X141647294Y-122821496D01*
X141647294Y-122821496D01*
G37*
G36*
X156887294Y-122821496D02*
X157007726Y-122858029D01*
X157050087Y-122870879D01*
X157200112Y-122951068D01*
X157331612Y-123058988D01*
X157439532Y-123190488D01*
X157519721Y-123340512D01*
X157532571Y-123382873D01*
X157569104Y-123503305D01*
X157569104Y-123503307D01*
X157581600Y-123630179D01*
X157581600Y-124019820D01*
X157581076Y-124025136D01*
X157569104Y-124146694D01*
X157532571Y-124267128D01*
X157519721Y-124309488D01*
X157439532Y-124459512D01*
X157331612Y-124591012D01*
X157200112Y-124698932D01*
X157050088Y-124779121D01*
X157022433Y-124787510D01*
X156887295Y-124828504D01*
X156774432Y-124839620D01*
X156718001Y-124845178D01*
X156718000Y-124845178D01*
X156548706Y-124828504D01*
X156413568Y-124787510D01*
X156385913Y-124779121D01*
X156235889Y-124698932D01*
X156145946Y-124625117D01*
X156104388Y-124591012D01*
X155996469Y-124459512D01*
X155974127Y-124417713D01*
X155916279Y-124309488D01*
X155903429Y-124267127D01*
X155866896Y-124146695D01*
X155858565Y-124062112D01*
X155854400Y-124019821D01*
X155854400Y-123630180D01*
X155866896Y-123503308D01*
X155866896Y-123503306D01*
X155916278Y-123340517D01*
X155916279Y-123340513D01*
X155996468Y-123190488D01*
X156104388Y-123058988D01*
X156235888Y-122951068D01*
X156385912Y-122870879D01*
X156428273Y-122858029D01*
X156548705Y-122821496D01*
X156661568Y-122810380D01*
X156717999Y-122804822D01*
X156718000Y-122804822D01*
X156887294Y-122821496D01*
X156887294Y-122821496D01*
G37*
G36*
X117074030Y-121489469D02*
X117074033Y-121489470D01*
X117074034Y-121489470D01*
X117262535Y-121546651D01*
X117262537Y-121546652D01*
X117436260Y-121639509D01*
X117588528Y-121764472D01*
X117713491Y-121916740D01*
X117806348Y-122090463D01*
X117863531Y-122278970D01*
X117882838Y-122475000D01*
X117863531Y-122671030D01*
X117806348Y-122859537D01*
X117713491Y-123033260D01*
X117588528Y-123185528D01*
X117436260Y-123310491D01*
X117436258Y-123310492D01*
X117262535Y-123403349D01*
X117074034Y-123460530D01*
X117074033Y-123460530D01*
X117074030Y-123460531D01*
X116927124Y-123475000D01*
X115228876Y-123475000D01*
X115081970Y-123460531D01*
X115081967Y-123460530D01*
X115081966Y-123460530D01*
X114893465Y-123403349D01*
X114719742Y-123310492D01*
X114719740Y-123310491D01*
X114567472Y-123185528D01*
X114442509Y-123033260D01*
X114349652Y-122859537D01*
X114292469Y-122671030D01*
X114273162Y-122475000D01*
X114292469Y-122278970D01*
X114349652Y-122090463D01*
X114442509Y-121916740D01*
X114567472Y-121764472D01*
X114719740Y-121639509D01*
X114893463Y-121546652D01*
X114893465Y-121546651D01*
X115081966Y-121489470D01*
X115081967Y-121489470D01*
X115081970Y-121489469D01*
X115228876Y-121475000D01*
X116927124Y-121475000D01*
X117074030Y-121489469D01*
X117074030Y-121489469D01*
G37*
G36*
X177630712Y-116791088D02*
X178000510Y-116944263D01*
X178000513Y-116944265D01*
X178333325Y-117166643D01*
X178616357Y-117449675D01*
X178838735Y-117782487D01*
X178838737Y-117782490D01*
X178991912Y-118152288D01*
X179070000Y-118544864D01*
X179070000Y-118945136D01*
X178991912Y-119337712D01*
X178838737Y-119707510D01*
X178838735Y-119707513D01*
X178616357Y-120040325D01*
X178333325Y-120323357D01*
X178000513Y-120545735D01*
X178000510Y-120545737D01*
X177630712Y-120698912D01*
X177238136Y-120777000D01*
X176837864Y-120777000D01*
X176445288Y-120698912D01*
X176075490Y-120545737D01*
X176075487Y-120545735D01*
X175742675Y-120323357D01*
X175459643Y-120040325D01*
X175237265Y-119707513D01*
X175237263Y-119707510D01*
X175084088Y-119337712D01*
X175006000Y-118945136D01*
X175006000Y-118544864D01*
X175084088Y-118152288D01*
X175237263Y-117782490D01*
X175237265Y-117782487D01*
X175459643Y-117449675D01*
X175742675Y-117166643D01*
X176075487Y-116944265D01*
X176075490Y-116944263D01*
X176445288Y-116791088D01*
X176837864Y-116713000D01*
X177238136Y-116713000D01*
X177630712Y-116791088D01*
X177630712Y-116791088D01*
G37*
G36*
X117752116Y-116478595D02*
X117781313Y-116487452D01*
X117808218Y-116501833D01*
X117831808Y-116521192D01*
X117851167Y-116544782D01*
X117865548Y-116571687D01*
X117874405Y-116600884D01*
X117878000Y-116637390D01*
X117878000Y-118312610D01*
X117874405Y-118349116D01*
X117865548Y-118378313D01*
X117851167Y-118405218D01*
X117831808Y-118428808D01*
X117808218Y-118448167D01*
X117781313Y-118462548D01*
X117752116Y-118471405D01*
X117715610Y-118475000D01*
X114440390Y-118475000D01*
X114403884Y-118471405D01*
X114374687Y-118462548D01*
X114347782Y-118448167D01*
X114324192Y-118428808D01*
X114304833Y-118405218D01*
X114290452Y-118378313D01*
X114281595Y-118349116D01*
X114278000Y-118312610D01*
X114278000Y-116637390D01*
X114281595Y-116600884D01*
X114290452Y-116571687D01*
X114304833Y-116544782D01*
X114324192Y-116521192D01*
X114347782Y-116501833D01*
X114374687Y-116487452D01*
X114403884Y-116478595D01*
X114440390Y-116475000D01*
X117715610Y-116475000D01*
X117752116Y-116478595D01*
X117752116Y-116478595D01*
G37*
G36*
X132168000Y-118325000D02*
X130468000Y-118325000D01*
X130468000Y-116625000D01*
X132168000Y-116625000D01*
X132168000Y-118325000D01*
X132168000Y-118325000D01*
G37*
G36*
X134708000Y-118325000D02*
X133008000Y-118325000D01*
X133008000Y-116625000D01*
X134708000Y-116625000D01*
X134708000Y-118325000D01*
X134708000Y-118325000D01*
G37*
G36*
X129628000Y-118325000D02*
X127928000Y-118325000D01*
X127928000Y-116625000D01*
X129628000Y-116625000D01*
X129628000Y-118325000D01*
X129628000Y-118325000D01*
G37*
G36*
X155564432Y-115318022D02*
X155734081Y-115369485D01*
X155890433Y-115453056D01*
X156027475Y-115565525D01*
X156139944Y-115702567D01*
X156223515Y-115858919D01*
X156274978Y-116028568D01*
X156292354Y-116205000D01*
X156274978Y-116381432D01*
X156223515Y-116551081D01*
X156139944Y-116707433D01*
X156027475Y-116844475D01*
X155890433Y-116956944D01*
X155734081Y-117040515D01*
X155564432Y-117091978D01*
X155432211Y-117105000D01*
X155343789Y-117105000D01*
X155211568Y-117091978D01*
X155041919Y-117040515D01*
X154885567Y-116956944D01*
X154748525Y-116844475D01*
X154636056Y-116707433D01*
X154552485Y-116551081D01*
X154501022Y-116381432D01*
X154483646Y-116205000D01*
X154501022Y-116028568D01*
X154552485Y-115858919D01*
X154636056Y-115702567D01*
X154748525Y-115565525D01*
X154885567Y-115453056D01*
X155041919Y-115369485D01*
X155211568Y-115318022D01*
X155343789Y-115305000D01*
X155432211Y-115305000D01*
X155564432Y-115318022D01*
X155564432Y-115318022D01*
G37*
G36*
X158964432Y-115318022D02*
X159134081Y-115369485D01*
X159290433Y-115453056D01*
X159427475Y-115565525D01*
X159539944Y-115702567D01*
X159623515Y-115858919D01*
X159674978Y-116028568D01*
X159692354Y-116205000D01*
X159674978Y-116381432D01*
X159623515Y-116551081D01*
X159539944Y-116707433D01*
X159427475Y-116844475D01*
X159290433Y-116956944D01*
X159134081Y-117040515D01*
X158964432Y-117091978D01*
X158832211Y-117105000D01*
X158743789Y-117105000D01*
X158611568Y-117091978D01*
X158441919Y-117040515D01*
X158285567Y-116956944D01*
X158148525Y-116844475D01*
X158036056Y-116707433D01*
X157952485Y-116551081D01*
X157901022Y-116381432D01*
X157883646Y-116205000D01*
X157901022Y-116028568D01*
X157952485Y-115858919D01*
X158036056Y-115702567D01*
X158148525Y-115565525D01*
X158285567Y-115453056D01*
X158441919Y-115369485D01*
X158611568Y-115318022D01*
X158743789Y-115305000D01*
X158832211Y-115305000D01*
X158964432Y-115318022D01*
X158964432Y-115318022D01*
G37*
G36*
X162364432Y-115318022D02*
X162534081Y-115369485D01*
X162690433Y-115453056D01*
X162827475Y-115565525D01*
X162939944Y-115702567D01*
X163023515Y-115858919D01*
X163074978Y-116028568D01*
X163092354Y-116205000D01*
X163074978Y-116381432D01*
X163023515Y-116551081D01*
X162939944Y-116707433D01*
X162827475Y-116844475D01*
X162690433Y-116956944D01*
X162534081Y-117040515D01*
X162364432Y-117091978D01*
X162232211Y-117105000D01*
X162143789Y-117105000D01*
X162011568Y-117091978D01*
X161841919Y-117040515D01*
X161685567Y-116956944D01*
X161548525Y-116844475D01*
X161436056Y-116707433D01*
X161352485Y-116551081D01*
X161301022Y-116381432D01*
X161283646Y-116205000D01*
X161301022Y-116028568D01*
X161352485Y-115858919D01*
X161436056Y-115702567D01*
X161548525Y-115565525D01*
X161685567Y-115453056D01*
X161841919Y-115369485D01*
X162011568Y-115318022D01*
X162143789Y-115305000D01*
X162232211Y-115305000D01*
X162364432Y-115318022D01*
X162364432Y-115318022D01*
G37*
G36*
X165764432Y-115318022D02*
X165934081Y-115369485D01*
X166090433Y-115453056D01*
X166227475Y-115565525D01*
X166339944Y-115702567D01*
X166423515Y-115858919D01*
X166474978Y-116028568D01*
X166492354Y-116205000D01*
X166474978Y-116381432D01*
X166423515Y-116551081D01*
X166339944Y-116707433D01*
X166227475Y-116844475D01*
X166090433Y-116956944D01*
X165934081Y-117040515D01*
X165764432Y-117091978D01*
X165632211Y-117105000D01*
X165543789Y-117105000D01*
X165411568Y-117091978D01*
X165241919Y-117040515D01*
X165085567Y-116956944D01*
X164948525Y-116844475D01*
X164836056Y-116707433D01*
X164752485Y-116551081D01*
X164701022Y-116381432D01*
X164683646Y-116205000D01*
X164701022Y-116028568D01*
X164752485Y-115858919D01*
X164836056Y-115702567D01*
X164948525Y-115565525D01*
X165085567Y-115453056D01*
X165241919Y-115369485D01*
X165411568Y-115318022D01*
X165543789Y-115305000D01*
X165632211Y-115305000D01*
X165764432Y-115318022D01*
X165764432Y-115318022D01*
G37*
G36*
X169164432Y-115318022D02*
X169334081Y-115369485D01*
X169490433Y-115453056D01*
X169627475Y-115565525D01*
X169739944Y-115702567D01*
X169823515Y-115858919D01*
X169874978Y-116028568D01*
X169892354Y-116205000D01*
X169874978Y-116381432D01*
X169823515Y-116551081D01*
X169739944Y-116707433D01*
X169627475Y-116844475D01*
X169490433Y-116956944D01*
X169334081Y-117040515D01*
X169164432Y-117091978D01*
X169032211Y-117105000D01*
X168943789Y-117105000D01*
X168811568Y-117091978D01*
X168641919Y-117040515D01*
X168485567Y-116956944D01*
X168348525Y-116844475D01*
X168236056Y-116707433D01*
X168152485Y-116551081D01*
X168101022Y-116381432D01*
X168083646Y-116205000D01*
X168101022Y-116028568D01*
X168152485Y-115858919D01*
X168236056Y-115702567D01*
X168348525Y-115565525D01*
X168485567Y-115453056D01*
X168641919Y-115369485D01*
X168811568Y-115318022D01*
X168943789Y-115305000D01*
X169032211Y-115305000D01*
X169164432Y-115318022D01*
X169164432Y-115318022D01*
G37*
G36*
X150505224Y-115515128D02*
X150637175Y-115555155D01*
X150758781Y-115620155D01*
X150865370Y-115707630D01*
X150952845Y-115814219D01*
X151017845Y-115935825D01*
X151057872Y-116067776D01*
X151071387Y-116205000D01*
X151057872Y-116342224D01*
X151017845Y-116474175D01*
X150952845Y-116595781D01*
X150865370Y-116702370D01*
X150758781Y-116789845D01*
X150637175Y-116854845D01*
X150505224Y-116894872D01*
X150402390Y-116905000D01*
X150333610Y-116905000D01*
X150230776Y-116894872D01*
X150098825Y-116854845D01*
X149977219Y-116789845D01*
X149870630Y-116702370D01*
X149783155Y-116595781D01*
X149718155Y-116474175D01*
X149678128Y-116342224D01*
X149664613Y-116205000D01*
X149678128Y-116067776D01*
X149718155Y-115935825D01*
X149783155Y-115814219D01*
X149870630Y-115707630D01*
X149977219Y-115620155D01*
X150098825Y-115555155D01*
X150230776Y-115515128D01*
X150333610Y-115505000D01*
X150402390Y-115505000D01*
X150505224Y-115515128D01*
X150505224Y-115515128D01*
G37*
G36*
X174702183Y-115531900D02*
X174829574Y-115584668D01*
X174937126Y-115656531D01*
X174944225Y-115661275D01*
X175041725Y-115758775D01*
X175118332Y-115873426D01*
X175171100Y-116000817D01*
X175198000Y-116136055D01*
X175198000Y-116273945D01*
X175171100Y-116409183D01*
X175118332Y-116536574D01*
X175041726Y-116651224D01*
X174944224Y-116748726D01*
X174880824Y-116791088D01*
X174829574Y-116825332D01*
X174702183Y-116878100D01*
X174566945Y-116905000D01*
X174429055Y-116905000D01*
X174293817Y-116878100D01*
X174166426Y-116825332D01*
X174115176Y-116791088D01*
X174051776Y-116748726D01*
X173954274Y-116651224D01*
X173877668Y-116536574D01*
X173824900Y-116409183D01*
X173798000Y-116273945D01*
X173798000Y-116136055D01*
X173824900Y-116000817D01*
X173877668Y-115873426D01*
X173954275Y-115758775D01*
X174051775Y-115661275D01*
X174058875Y-115656531D01*
X174166426Y-115584668D01*
X174293817Y-115531900D01*
X174429055Y-115505000D01*
X174566945Y-115505000D01*
X174702183Y-115531900D01*
X174702183Y-115531900D01*
G37*
G36*
X139022712Y-114075565D02*
X139107295Y-114083896D01*
X139227727Y-114120429D01*
X139270088Y-114133279D01*
X139420112Y-114213468D01*
X139551612Y-114321388D01*
X139659532Y-114452888D01*
X139739721Y-114602912D01*
X139739722Y-114602916D01*
X139789104Y-114765705D01*
X139805778Y-114935000D01*
X139789104Y-115104295D01*
X139769672Y-115168352D01*
X139739721Y-115267088D01*
X139659532Y-115417112D01*
X139551612Y-115548612D01*
X139420112Y-115656532D01*
X139270088Y-115736721D01*
X139227727Y-115749571D01*
X139107295Y-115786104D01*
X139022712Y-115794435D01*
X138980421Y-115798600D01*
X138895579Y-115798600D01*
X138853288Y-115794435D01*
X138768705Y-115786104D01*
X138648273Y-115749571D01*
X138605912Y-115736721D01*
X138455888Y-115656532D01*
X138324388Y-115548612D01*
X138216468Y-115417112D01*
X138136279Y-115267088D01*
X138106328Y-115168352D01*
X138086896Y-115104295D01*
X138070222Y-114935000D01*
X138086896Y-114765705D01*
X138136278Y-114602916D01*
X138136279Y-114602912D01*
X138216468Y-114452888D01*
X138324388Y-114321388D01*
X138455888Y-114213468D01*
X138605912Y-114133279D01*
X138648273Y-114120429D01*
X138768705Y-114083896D01*
X138853288Y-114075565D01*
X138895579Y-114071400D01*
X138980421Y-114071400D01*
X139022712Y-114075565D01*
X139022712Y-114075565D01*
G37*
G36*
X136482712Y-114075565D02*
X136567295Y-114083896D01*
X136687727Y-114120429D01*
X136730088Y-114133279D01*
X136880112Y-114213468D01*
X137011612Y-114321388D01*
X137119532Y-114452888D01*
X137199721Y-114602912D01*
X137199722Y-114602916D01*
X137249104Y-114765705D01*
X137265778Y-114935000D01*
X137249104Y-115104295D01*
X137229672Y-115168352D01*
X137199721Y-115267088D01*
X137119532Y-115417112D01*
X137011612Y-115548612D01*
X136880112Y-115656532D01*
X136730088Y-115736721D01*
X136687727Y-115749571D01*
X136567295Y-115786104D01*
X136482712Y-115794435D01*
X136440421Y-115798600D01*
X136355579Y-115798600D01*
X136313288Y-115794435D01*
X136228705Y-115786104D01*
X136108273Y-115749571D01*
X136065912Y-115736721D01*
X135915888Y-115656532D01*
X135784388Y-115548612D01*
X135676468Y-115417112D01*
X135596279Y-115267088D01*
X135566328Y-115168352D01*
X135546896Y-115104295D01*
X135530222Y-114935000D01*
X135546896Y-114765705D01*
X135596278Y-114602916D01*
X135596279Y-114602912D01*
X135676468Y-114452888D01*
X135784388Y-114321388D01*
X135915888Y-114213468D01*
X136065912Y-114133279D01*
X136108273Y-114120429D01*
X136228705Y-114083896D01*
X136313288Y-114075565D01*
X136355579Y-114071400D01*
X136440421Y-114071400D01*
X136482712Y-114075565D01*
X136482712Y-114075565D01*
G37*
G36*
X133942712Y-114075565D02*
X134027295Y-114083896D01*
X134147727Y-114120429D01*
X134190088Y-114133279D01*
X134340112Y-114213468D01*
X134471612Y-114321388D01*
X134579532Y-114452888D01*
X134659721Y-114602912D01*
X134659722Y-114602916D01*
X134709104Y-114765705D01*
X134725778Y-114935000D01*
X134709104Y-115104295D01*
X134689672Y-115168352D01*
X134659721Y-115267088D01*
X134579532Y-115417112D01*
X134471612Y-115548612D01*
X134340112Y-115656532D01*
X134190088Y-115736721D01*
X134147727Y-115749571D01*
X134027295Y-115786104D01*
X133942712Y-115794435D01*
X133900421Y-115798600D01*
X133815579Y-115798600D01*
X133773288Y-115794435D01*
X133688705Y-115786104D01*
X133568273Y-115749571D01*
X133525912Y-115736721D01*
X133375888Y-115656532D01*
X133244388Y-115548612D01*
X133136468Y-115417112D01*
X133056279Y-115267088D01*
X133026328Y-115168352D01*
X133006896Y-115104295D01*
X132990222Y-114935000D01*
X133006896Y-114765705D01*
X133056278Y-114602916D01*
X133056279Y-114602912D01*
X133136468Y-114452888D01*
X133244388Y-114321388D01*
X133375888Y-114213468D01*
X133525912Y-114133279D01*
X133568273Y-114120429D01*
X133688705Y-114083896D01*
X133773288Y-114075565D01*
X133815579Y-114071400D01*
X133900421Y-114071400D01*
X133942712Y-114075565D01*
X133942712Y-114075565D01*
G37*
G36*
X141562712Y-114075565D02*
X141647295Y-114083896D01*
X141767727Y-114120429D01*
X141810088Y-114133279D01*
X141960112Y-114213468D01*
X142091612Y-114321388D01*
X142199532Y-114452888D01*
X142279721Y-114602912D01*
X142279722Y-114602916D01*
X142329104Y-114765705D01*
X142345778Y-114935000D01*
X142329104Y-115104295D01*
X142309672Y-115168352D01*
X142279721Y-115267088D01*
X142199532Y-115417112D01*
X142091612Y-115548612D01*
X141960112Y-115656532D01*
X141810088Y-115736721D01*
X141767727Y-115749571D01*
X141647295Y-115786104D01*
X141562712Y-115794435D01*
X141520421Y-115798600D01*
X141435579Y-115798600D01*
X141393288Y-115794435D01*
X141308705Y-115786104D01*
X141188273Y-115749571D01*
X141145912Y-115736721D01*
X140995888Y-115656532D01*
X140864388Y-115548612D01*
X140756468Y-115417112D01*
X140676279Y-115267088D01*
X140646328Y-115168352D01*
X140626896Y-115104295D01*
X140610222Y-114935000D01*
X140626896Y-114765705D01*
X140676278Y-114602916D01*
X140676279Y-114602912D01*
X140756468Y-114452888D01*
X140864388Y-114321388D01*
X140995888Y-114213468D01*
X141145912Y-114133279D01*
X141188273Y-114120429D01*
X141308705Y-114083896D01*
X141393288Y-114075565D01*
X141435579Y-114071400D01*
X141520421Y-114071400D01*
X141562712Y-114075565D01*
X141562712Y-114075565D01*
G37*
G36*
X129641600Y-115798600D02*
X127914400Y-115798600D01*
X127914400Y-114071400D01*
X129641600Y-114071400D01*
X129641600Y-115798600D01*
X129641600Y-115798600D01*
G37*
G36*
X131402712Y-114075565D02*
X131487295Y-114083896D01*
X131607727Y-114120429D01*
X131650088Y-114133279D01*
X131800112Y-114213468D01*
X131931612Y-114321388D01*
X132039532Y-114452888D01*
X132119721Y-114602912D01*
X132119722Y-114602916D01*
X132169104Y-114765705D01*
X132185778Y-114935000D01*
X132169104Y-115104295D01*
X132149672Y-115168352D01*
X132119721Y-115267088D01*
X132039532Y-115417112D01*
X131931612Y-115548612D01*
X131800112Y-115656532D01*
X131650088Y-115736721D01*
X131607727Y-115749571D01*
X131487295Y-115786104D01*
X131402712Y-115794435D01*
X131360421Y-115798600D01*
X131275579Y-115798600D01*
X131233288Y-115794435D01*
X131148705Y-115786104D01*
X131028273Y-115749571D01*
X130985912Y-115736721D01*
X130835888Y-115656532D01*
X130704388Y-115548612D01*
X130596468Y-115417112D01*
X130516279Y-115267088D01*
X130486328Y-115168352D01*
X130466896Y-115104295D01*
X130450222Y-114935000D01*
X130466896Y-114765705D01*
X130516278Y-114602916D01*
X130516279Y-114602912D01*
X130596468Y-114452888D01*
X130704388Y-114321388D01*
X130835888Y-114213468D01*
X130985912Y-114133279D01*
X131028273Y-114120429D01*
X131148705Y-114083896D01*
X131233288Y-114075565D01*
X131275579Y-114071400D01*
X131360421Y-114071400D01*
X131402712Y-114075565D01*
X131402712Y-114075565D01*
G37*
G36*
X178541352Y-114165743D02*
X178686941Y-114226048D01*
X178817973Y-114313601D01*
X178929399Y-114425027D01*
X179016952Y-114556059D01*
X179077257Y-114701648D01*
X179108000Y-114856205D01*
X179108000Y-115013795D01*
X179077257Y-115168352D01*
X179016952Y-115313941D01*
X178929399Y-115444973D01*
X178817973Y-115556399D01*
X178686941Y-115643952D01*
X178541352Y-115704257D01*
X178386795Y-115735000D01*
X178229205Y-115735000D01*
X178074648Y-115704257D01*
X177929059Y-115643952D01*
X177798027Y-115556399D01*
X177686601Y-115444973D01*
X177599048Y-115313941D01*
X177538743Y-115168352D01*
X177508000Y-115013795D01*
X177508000Y-114856205D01*
X177538743Y-114701648D01*
X177599048Y-114556059D01*
X177686601Y-114425027D01*
X177798027Y-114313601D01*
X177929059Y-114226048D01*
X178074648Y-114165743D01*
X178229205Y-114135000D01*
X178386795Y-114135000D01*
X178541352Y-114165743D01*
X178541352Y-114165743D01*
G37*
G36*
X141562712Y-111535565D02*
X141647295Y-111543896D01*
X141767727Y-111580429D01*
X141810088Y-111593279D01*
X141960112Y-111673468D01*
X142091612Y-111781388D01*
X142199532Y-111912888D01*
X142279721Y-112062912D01*
X142279722Y-112062916D01*
X142329104Y-112225705D01*
X142345778Y-112395000D01*
X142329104Y-112564295D01*
X142292571Y-112684727D01*
X142279721Y-112727088D01*
X142199532Y-112877112D01*
X142091612Y-113008612D01*
X141960112Y-113116532D01*
X141810088Y-113196721D01*
X141767727Y-113209571D01*
X141647295Y-113246104D01*
X141562712Y-113254435D01*
X141520421Y-113258600D01*
X141435579Y-113258600D01*
X141393288Y-113254435D01*
X141308705Y-113246104D01*
X141188273Y-113209571D01*
X141145912Y-113196721D01*
X140995888Y-113116532D01*
X140864388Y-113008612D01*
X140756468Y-112877112D01*
X140676279Y-112727088D01*
X140663429Y-112684727D01*
X140626896Y-112564295D01*
X140610222Y-112395000D01*
X140626896Y-112225705D01*
X140676278Y-112062916D01*
X140676279Y-112062912D01*
X140756468Y-111912888D01*
X140864388Y-111781388D01*
X140995888Y-111673468D01*
X141145912Y-111593279D01*
X141188273Y-111580429D01*
X141308705Y-111543896D01*
X141393288Y-111535565D01*
X141435579Y-111531400D01*
X141520421Y-111531400D01*
X141562712Y-111535565D01*
X141562712Y-111535565D01*
G37*
G36*
X139022712Y-111535565D02*
X139107295Y-111543896D01*
X139227727Y-111580429D01*
X139270088Y-111593279D01*
X139420112Y-111673468D01*
X139551612Y-111781388D01*
X139659532Y-111912888D01*
X139739721Y-112062912D01*
X139739722Y-112062916D01*
X139789104Y-112225705D01*
X139805778Y-112395000D01*
X139789104Y-112564295D01*
X139752571Y-112684727D01*
X139739721Y-112727088D01*
X139659532Y-112877112D01*
X139551612Y-113008612D01*
X139420112Y-113116532D01*
X139270088Y-113196721D01*
X139227727Y-113209571D01*
X139107295Y-113246104D01*
X139022712Y-113254435D01*
X138980421Y-113258600D01*
X138895579Y-113258600D01*
X138853288Y-113254435D01*
X138768705Y-113246104D01*
X138648273Y-113209571D01*
X138605912Y-113196721D01*
X138455888Y-113116532D01*
X138324388Y-113008612D01*
X138216468Y-112877112D01*
X138136279Y-112727088D01*
X138123429Y-112684727D01*
X138086896Y-112564295D01*
X138070222Y-112395000D01*
X138086896Y-112225705D01*
X138136278Y-112062916D01*
X138136279Y-112062912D01*
X138216468Y-111912888D01*
X138324388Y-111781388D01*
X138455888Y-111673468D01*
X138605912Y-111593279D01*
X138648273Y-111580429D01*
X138768705Y-111543896D01*
X138853288Y-111535565D01*
X138895579Y-111531400D01*
X138980421Y-111531400D01*
X139022712Y-111535565D01*
X139022712Y-111535565D01*
G37*
G36*
X136482712Y-111535565D02*
X136567295Y-111543896D01*
X136687727Y-111580429D01*
X136730088Y-111593279D01*
X136880112Y-111673468D01*
X137011612Y-111781388D01*
X137119532Y-111912888D01*
X137199721Y-112062912D01*
X137199722Y-112062916D01*
X137249104Y-112225705D01*
X137265778Y-112395000D01*
X137249104Y-112564295D01*
X137212571Y-112684727D01*
X137199721Y-112727088D01*
X137119532Y-112877112D01*
X137011612Y-113008612D01*
X136880112Y-113116532D01*
X136730088Y-113196721D01*
X136687727Y-113209571D01*
X136567295Y-113246104D01*
X136482712Y-113254435D01*
X136440421Y-113258600D01*
X136355579Y-113258600D01*
X136313288Y-113254435D01*
X136228705Y-113246104D01*
X136108273Y-113209571D01*
X136065912Y-113196721D01*
X135915888Y-113116532D01*
X135784388Y-113008612D01*
X135676468Y-112877112D01*
X135596279Y-112727088D01*
X135583429Y-112684727D01*
X135546896Y-112564295D01*
X135530222Y-112395000D01*
X135546896Y-112225705D01*
X135596278Y-112062916D01*
X135596279Y-112062912D01*
X135676468Y-111912888D01*
X135784388Y-111781388D01*
X135915888Y-111673468D01*
X136065912Y-111593279D01*
X136108273Y-111580429D01*
X136228705Y-111543896D01*
X136313288Y-111535565D01*
X136355579Y-111531400D01*
X136440421Y-111531400D01*
X136482712Y-111535565D01*
X136482712Y-111535565D01*
G37*
G36*
X128862712Y-111535565D02*
X128947295Y-111543896D01*
X129067727Y-111580429D01*
X129110088Y-111593279D01*
X129260112Y-111673468D01*
X129391612Y-111781388D01*
X129499532Y-111912888D01*
X129579721Y-112062912D01*
X129579722Y-112062916D01*
X129629104Y-112225705D01*
X129645778Y-112395000D01*
X129629104Y-112564295D01*
X129592571Y-112684727D01*
X129579721Y-112727088D01*
X129499532Y-112877112D01*
X129391612Y-113008612D01*
X129260112Y-113116532D01*
X129110088Y-113196721D01*
X129067727Y-113209571D01*
X128947295Y-113246104D01*
X128862712Y-113254435D01*
X128820421Y-113258600D01*
X128735579Y-113258600D01*
X128693288Y-113254435D01*
X128608705Y-113246104D01*
X128488273Y-113209571D01*
X128445912Y-113196721D01*
X128295888Y-113116532D01*
X128164388Y-113008612D01*
X128056468Y-112877112D01*
X127976279Y-112727088D01*
X127963429Y-112684727D01*
X127926896Y-112564295D01*
X127910222Y-112395000D01*
X127926896Y-112225705D01*
X127976278Y-112062916D01*
X127976279Y-112062912D01*
X128056468Y-111912888D01*
X128164388Y-111781388D01*
X128295888Y-111673468D01*
X128445912Y-111593279D01*
X128488273Y-111580429D01*
X128608705Y-111543896D01*
X128693288Y-111535565D01*
X128735579Y-111531400D01*
X128820421Y-111531400D01*
X128862712Y-111535565D01*
X128862712Y-111535565D01*
G37*
G36*
X133942712Y-111535565D02*
X134027295Y-111543896D01*
X134147727Y-111580429D01*
X134190088Y-111593279D01*
X134340112Y-111673468D01*
X134471612Y-111781388D01*
X134579532Y-111912888D01*
X134659721Y-112062912D01*
X134659722Y-112062916D01*
X134709104Y-112225705D01*
X134725778Y-112395000D01*
X134709104Y-112564295D01*
X134672571Y-112684727D01*
X134659721Y-112727088D01*
X134579532Y-112877112D01*
X134471612Y-113008612D01*
X134340112Y-113116532D01*
X134190088Y-113196721D01*
X134147727Y-113209571D01*
X134027295Y-113246104D01*
X133942712Y-113254435D01*
X133900421Y-113258600D01*
X133815579Y-113258600D01*
X133773288Y-113254435D01*
X133688705Y-113246104D01*
X133568273Y-113209571D01*
X133525912Y-113196721D01*
X133375888Y-113116532D01*
X133244388Y-113008612D01*
X133136468Y-112877112D01*
X133056279Y-112727088D01*
X133043429Y-112684727D01*
X133006896Y-112564295D01*
X132990222Y-112395000D01*
X133006896Y-112225705D01*
X133056278Y-112062916D01*
X133056279Y-112062912D01*
X133136468Y-111912888D01*
X133244388Y-111781388D01*
X133375888Y-111673468D01*
X133525912Y-111593279D01*
X133568273Y-111580429D01*
X133688705Y-111543896D01*
X133773288Y-111535565D01*
X133815579Y-111531400D01*
X133900421Y-111531400D01*
X133942712Y-111535565D01*
X133942712Y-111535565D01*
G37*
G36*
X131402712Y-111535565D02*
X131487295Y-111543896D01*
X131607727Y-111580429D01*
X131650088Y-111593279D01*
X131800112Y-111673468D01*
X131931612Y-111781388D01*
X132039532Y-111912888D01*
X132119721Y-112062912D01*
X132119722Y-112062916D01*
X132169104Y-112225705D01*
X132185778Y-112395000D01*
X132169104Y-112564295D01*
X132132571Y-112684727D01*
X132119721Y-112727088D01*
X132039532Y-112877112D01*
X131931612Y-113008612D01*
X131800112Y-113116532D01*
X131650088Y-113196721D01*
X131607727Y-113209571D01*
X131487295Y-113246104D01*
X131402712Y-113254435D01*
X131360421Y-113258600D01*
X131275579Y-113258600D01*
X131233288Y-113254435D01*
X131148705Y-113246104D01*
X131028273Y-113209571D01*
X130985912Y-113196721D01*
X130835888Y-113116532D01*
X130704388Y-113008612D01*
X130596468Y-112877112D01*
X130516279Y-112727088D01*
X130503429Y-112684727D01*
X130466896Y-112564295D01*
X130450222Y-112395000D01*
X130466896Y-112225705D01*
X130516278Y-112062916D01*
X130516279Y-112062912D01*
X130596468Y-111912888D01*
X130704388Y-111781388D01*
X130835888Y-111673468D01*
X130985912Y-111593279D01*
X131028273Y-111580429D01*
X131148705Y-111543896D01*
X131233288Y-111535565D01*
X131275579Y-111531400D01*
X131360421Y-111531400D01*
X131402712Y-111535565D01*
X131402712Y-111535565D01*
G37*
G36*
X160664432Y-110238022D02*
X160834081Y-110289485D01*
X160990433Y-110373056D01*
X161127475Y-110485525D01*
X161239944Y-110622567D01*
X161323515Y-110778919D01*
X161374978Y-110948568D01*
X161392354Y-111125000D01*
X161374978Y-111301432D01*
X161323515Y-111471081D01*
X161239944Y-111627433D01*
X161127475Y-111764475D01*
X160990433Y-111876944D01*
X160834081Y-111960515D01*
X160664432Y-112011978D01*
X160532211Y-112025000D01*
X160443789Y-112025000D01*
X160311568Y-112011978D01*
X160141919Y-111960515D01*
X159985567Y-111876944D01*
X159848525Y-111764475D01*
X159736056Y-111627433D01*
X159652485Y-111471081D01*
X159601022Y-111301432D01*
X159583646Y-111125000D01*
X159601022Y-110948568D01*
X159652485Y-110778919D01*
X159736056Y-110622567D01*
X159848525Y-110485525D01*
X159985567Y-110373056D01*
X160141919Y-110289485D01*
X160311568Y-110238022D01*
X160443789Y-110225000D01*
X160532211Y-110225000D01*
X160664432Y-110238022D01*
X160664432Y-110238022D01*
G37*
G36*
X153864432Y-110238022D02*
X154034081Y-110289485D01*
X154190433Y-110373056D01*
X154327475Y-110485525D01*
X154439944Y-110622567D01*
X154523515Y-110778919D01*
X154574978Y-110948568D01*
X154592354Y-111125000D01*
X154574978Y-111301432D01*
X154523515Y-111471081D01*
X154439944Y-111627433D01*
X154327475Y-111764475D01*
X154190433Y-111876944D01*
X154034081Y-111960515D01*
X153864432Y-112011978D01*
X153732211Y-112025000D01*
X153643789Y-112025000D01*
X153511568Y-112011978D01*
X153341919Y-111960515D01*
X153185567Y-111876944D01*
X153048525Y-111764475D01*
X152936056Y-111627433D01*
X152852485Y-111471081D01*
X152801022Y-111301432D01*
X152783646Y-111125000D01*
X152801022Y-110948568D01*
X152852485Y-110778919D01*
X152936056Y-110622567D01*
X153048525Y-110485525D01*
X153185567Y-110373056D01*
X153341919Y-110289485D01*
X153511568Y-110238022D01*
X153643789Y-110225000D01*
X153732211Y-110225000D01*
X153864432Y-110238022D01*
X153864432Y-110238022D01*
G37*
G36*
X157264432Y-110238022D02*
X157434081Y-110289485D01*
X157590433Y-110373056D01*
X157727475Y-110485525D01*
X157839944Y-110622567D01*
X157923515Y-110778919D01*
X157974978Y-110948568D01*
X157992354Y-111125000D01*
X157974978Y-111301432D01*
X157923515Y-111471081D01*
X157839944Y-111627433D01*
X157727475Y-111764475D01*
X157590433Y-111876944D01*
X157434081Y-111960515D01*
X157264432Y-112011978D01*
X157132211Y-112025000D01*
X157043789Y-112025000D01*
X156911568Y-112011978D01*
X156741919Y-111960515D01*
X156585567Y-111876944D01*
X156448525Y-111764475D01*
X156336056Y-111627433D01*
X156252485Y-111471081D01*
X156201022Y-111301432D01*
X156183646Y-111125000D01*
X156201022Y-110948568D01*
X156252485Y-110778919D01*
X156336056Y-110622567D01*
X156448525Y-110485525D01*
X156585567Y-110373056D01*
X156741919Y-110289485D01*
X156911568Y-110238022D01*
X157043789Y-110225000D01*
X157132211Y-110225000D01*
X157264432Y-110238022D01*
X157264432Y-110238022D01*
G37*
G36*
X164064432Y-110238022D02*
X164234081Y-110289485D01*
X164390433Y-110373056D01*
X164527475Y-110485525D01*
X164639944Y-110622567D01*
X164723515Y-110778919D01*
X164774978Y-110948568D01*
X164792354Y-111125000D01*
X164774978Y-111301432D01*
X164723515Y-111471081D01*
X164639944Y-111627433D01*
X164527475Y-111764475D01*
X164390433Y-111876944D01*
X164234081Y-111960515D01*
X164064432Y-112011978D01*
X163932211Y-112025000D01*
X163843789Y-112025000D01*
X163711568Y-112011978D01*
X163541919Y-111960515D01*
X163385567Y-111876944D01*
X163248525Y-111764475D01*
X163136056Y-111627433D01*
X163052485Y-111471081D01*
X163001022Y-111301432D01*
X162983646Y-111125000D01*
X163001022Y-110948568D01*
X163052485Y-110778919D01*
X163136056Y-110622567D01*
X163248525Y-110485525D01*
X163385567Y-110373056D01*
X163541919Y-110289485D01*
X163711568Y-110238022D01*
X163843789Y-110225000D01*
X163932211Y-110225000D01*
X164064432Y-110238022D01*
X164064432Y-110238022D01*
G37*
G36*
X167464432Y-110238022D02*
X167634081Y-110289485D01*
X167790433Y-110373056D01*
X167927475Y-110485525D01*
X168039944Y-110622567D01*
X168123515Y-110778919D01*
X168174978Y-110948568D01*
X168192354Y-111125000D01*
X168174978Y-111301432D01*
X168123515Y-111471081D01*
X168039944Y-111627433D01*
X167927475Y-111764475D01*
X167790433Y-111876944D01*
X167634081Y-111960515D01*
X167464432Y-112011978D01*
X167332211Y-112025000D01*
X167243789Y-112025000D01*
X167111568Y-112011978D01*
X166941919Y-111960515D01*
X166785567Y-111876944D01*
X166648525Y-111764475D01*
X166536056Y-111627433D01*
X166452485Y-111471081D01*
X166401022Y-111301432D01*
X166383646Y-111125000D01*
X166401022Y-110948568D01*
X166452485Y-110778919D01*
X166536056Y-110622567D01*
X166648525Y-110485525D01*
X166785567Y-110373056D01*
X166941919Y-110289485D01*
X167111568Y-110238022D01*
X167243789Y-110225000D01*
X167332211Y-110225000D01*
X167464432Y-110238022D01*
X167464432Y-110238022D01*
G37*
G36*
X171588000Y-112025000D02*
X169788000Y-112025000D01*
X169788000Y-110225000D01*
X171588000Y-110225000D01*
X171588000Y-112025000D01*
X171588000Y-112025000D01*
G37*
G36*
X118198000Y-111975000D02*
X116498000Y-111975000D01*
X116498000Y-110275000D01*
X118198000Y-110275000D01*
X118198000Y-111975000D01*
X118198000Y-111975000D01*
G37*
G36*
X114974630Y-110287299D02*
X115134855Y-110335903D01*
X115282520Y-110414831D01*
X115411949Y-110521051D01*
X115518169Y-110650480D01*
X115597097Y-110798145D01*
X115645701Y-110958370D01*
X115662112Y-111125000D01*
X115645701Y-111291630D01*
X115597097Y-111451855D01*
X115518169Y-111599520D01*
X115411949Y-111728949D01*
X115282520Y-111835169D01*
X115134855Y-111914097D01*
X114974630Y-111962701D01*
X114849752Y-111975000D01*
X114766248Y-111975000D01*
X114641370Y-111962701D01*
X114481145Y-111914097D01*
X114333480Y-111835169D01*
X114204051Y-111728949D01*
X114097831Y-111599520D01*
X114018903Y-111451855D01*
X113970299Y-111291630D01*
X113953888Y-111125000D01*
X113970299Y-110958370D01*
X114018903Y-110798145D01*
X114097831Y-110650480D01*
X114204051Y-110521051D01*
X114333480Y-110414831D01*
X114481145Y-110335903D01*
X114641370Y-110287299D01*
X114766248Y-110275000D01*
X114849752Y-110275000D01*
X114974630Y-110287299D01*
X114974630Y-110287299D01*
G37*
G36*
X112434630Y-110287299D02*
X112594855Y-110335903D01*
X112742520Y-110414831D01*
X112871949Y-110521051D01*
X112978169Y-110650480D01*
X113057097Y-110798145D01*
X113105701Y-110958370D01*
X113122112Y-111125000D01*
X113105701Y-111291630D01*
X113057097Y-111451855D01*
X112978169Y-111599520D01*
X112871949Y-111728949D01*
X112742520Y-111835169D01*
X112594855Y-111914097D01*
X112434630Y-111962701D01*
X112309752Y-111975000D01*
X112226248Y-111975000D01*
X112101370Y-111962701D01*
X111941145Y-111914097D01*
X111793480Y-111835169D01*
X111664051Y-111728949D01*
X111557831Y-111599520D01*
X111478903Y-111451855D01*
X111430299Y-111291630D01*
X111413888Y-111125000D01*
X111430299Y-110958370D01*
X111478903Y-110798145D01*
X111557831Y-110650480D01*
X111664051Y-110521051D01*
X111793480Y-110414831D01*
X111941145Y-110335903D01*
X112101370Y-110287299D01*
X112226248Y-110275000D01*
X112309752Y-110275000D01*
X112434630Y-110287299D01*
X112434630Y-110287299D01*
G37*
G36*
X150572183Y-110451900D02*
X150699574Y-110504668D01*
X150752685Y-110540155D01*
X150814225Y-110581275D01*
X150911725Y-110678775D01*
X150988332Y-110793426D01*
X151041100Y-110920817D01*
X151068000Y-111056055D01*
X151068000Y-111193945D01*
X151041100Y-111329183D01*
X150990287Y-111451855D01*
X150988332Y-111456574D01*
X150911726Y-111571224D01*
X150814224Y-111668726D01*
X150724095Y-111728948D01*
X150699574Y-111745332D01*
X150572183Y-111798100D01*
X150436945Y-111825000D01*
X150299055Y-111825000D01*
X150163817Y-111798100D01*
X150036426Y-111745332D01*
X150011905Y-111728948D01*
X149921776Y-111668726D01*
X149824274Y-111571224D01*
X149747668Y-111456574D01*
X149745713Y-111451855D01*
X149694900Y-111329183D01*
X149668000Y-111193945D01*
X149668000Y-111056055D01*
X149694900Y-110920817D01*
X149747668Y-110793426D01*
X149824275Y-110678775D01*
X149921775Y-110581275D01*
X149983316Y-110540155D01*
X150036426Y-110504668D01*
X150163817Y-110451900D01*
X150299055Y-110425000D01*
X150436945Y-110425000D01*
X150572183Y-110451900D01*
X150572183Y-110451900D01*
G37*
G36*
X174635224Y-110435128D02*
X174767175Y-110475155D01*
X174888781Y-110540155D01*
X174995370Y-110627630D01*
X175082845Y-110734219D01*
X175147845Y-110855825D01*
X175187872Y-110987776D01*
X175201387Y-111125000D01*
X175187872Y-111262224D01*
X175147845Y-111394175D01*
X175082845Y-111515781D01*
X174995370Y-111622370D01*
X174888781Y-111709845D01*
X174767175Y-111774845D01*
X174635224Y-111814872D01*
X174532390Y-111825000D01*
X174463610Y-111825000D01*
X174360776Y-111814872D01*
X174228825Y-111774845D01*
X174107219Y-111709845D01*
X174000630Y-111622370D01*
X173913155Y-111515781D01*
X173848155Y-111394175D01*
X173808128Y-111262224D01*
X173794613Y-111125000D01*
X173808128Y-110987776D01*
X173848155Y-110855825D01*
X173913155Y-110734219D01*
X174000630Y-110627630D01*
X174107219Y-110540155D01*
X174228825Y-110475155D01*
X174360776Y-110435128D01*
X174463610Y-110425000D01*
X174532390Y-110425000D01*
X174635224Y-110435128D01*
X174635224Y-110435128D01*
G37*
G36*
X139788000Y-110705000D02*
X138088000Y-110705000D01*
X138088000Y-109005000D01*
X139788000Y-109005000D01*
X139788000Y-110705000D01*
X139788000Y-110705000D01*
G37*
G36*
X137248000Y-110705000D02*
X135548000Y-110705000D01*
X135548000Y-109005000D01*
X137248000Y-109005000D01*
X137248000Y-110705000D01*
X137248000Y-110705000D01*
G37*
G36*
X142328000Y-110705000D02*
X140628000Y-110705000D01*
X140628000Y-109005000D01*
X142328000Y-109005000D01*
X142328000Y-110705000D01*
X142328000Y-110705000D01*
G37*
G36*
X120054630Y-107747299D02*
X120214855Y-107795903D01*
X120362520Y-107874831D01*
X120491949Y-107981051D01*
X120598169Y-108110480D01*
X120677097Y-108258145D01*
X120725701Y-108418370D01*
X120742112Y-108585000D01*
X120725701Y-108751630D01*
X120677097Y-108911855D01*
X120598169Y-109059520D01*
X120491949Y-109188949D01*
X120362520Y-109295169D01*
X120214855Y-109374097D01*
X120054630Y-109422701D01*
X119929752Y-109435000D01*
X119846248Y-109435000D01*
X119721370Y-109422701D01*
X119561145Y-109374097D01*
X119413480Y-109295169D01*
X119284051Y-109188949D01*
X119177831Y-109059520D01*
X119098903Y-108911855D01*
X119050299Y-108751630D01*
X119033888Y-108585000D01*
X119050299Y-108418370D01*
X119098903Y-108258145D01*
X119177831Y-108110480D01*
X119284051Y-107981051D01*
X119413480Y-107874831D01*
X119561145Y-107795903D01*
X119721370Y-107747299D01*
X119846248Y-107735000D01*
X119929752Y-107735000D01*
X120054630Y-107747299D01*
X120054630Y-107747299D01*
G37*
G36*
X115012183Y-107911900D02*
X115139574Y-107964668D01*
X115254224Y-108041274D01*
X115351726Y-108138776D01*
X115361030Y-108152701D01*
X115428332Y-108253426D01*
X115481100Y-108380817D01*
X115508000Y-108516055D01*
X115508000Y-108653945D01*
X115481100Y-108789183D01*
X115428332Y-108916574D01*
X115351725Y-109031225D01*
X115254225Y-109128725D01*
X115139574Y-109205332D01*
X115012183Y-109258100D01*
X114876945Y-109285000D01*
X114739055Y-109285000D01*
X114603817Y-109258100D01*
X114476426Y-109205332D01*
X114361775Y-109128725D01*
X114264275Y-109031225D01*
X114187668Y-108916574D01*
X114134900Y-108789183D01*
X114108000Y-108653945D01*
X114108000Y-108516055D01*
X114134900Y-108380817D01*
X114187668Y-108253426D01*
X114254970Y-108152701D01*
X114264274Y-108138776D01*
X114361776Y-108041274D01*
X114476426Y-107964668D01*
X114603817Y-107911900D01*
X114739055Y-107885000D01*
X114876945Y-107885000D01*
X115012183Y-107911900D01*
X115012183Y-107911900D01*
G37*
G36*
X117552183Y-107911900D02*
X117679574Y-107964668D01*
X117794224Y-108041274D01*
X117891726Y-108138776D01*
X117901030Y-108152701D01*
X117968332Y-108253426D01*
X118021100Y-108380817D01*
X118048000Y-108516055D01*
X118048000Y-108653945D01*
X118021100Y-108789183D01*
X117968332Y-108916574D01*
X117891725Y-109031225D01*
X117794225Y-109128725D01*
X117679574Y-109205332D01*
X117552183Y-109258100D01*
X117416945Y-109285000D01*
X117279055Y-109285000D01*
X117143817Y-109258100D01*
X117016426Y-109205332D01*
X116901775Y-109128725D01*
X116804275Y-109031225D01*
X116727668Y-108916574D01*
X116674900Y-108789183D01*
X116648000Y-108653945D01*
X116648000Y-108516055D01*
X116674900Y-108380817D01*
X116727668Y-108253426D01*
X116794970Y-108152701D01*
X116804274Y-108138776D01*
X116901776Y-108041274D01*
X117016426Y-107964668D01*
X117143817Y-107911900D01*
X117279055Y-107885000D01*
X117416945Y-107885000D01*
X117552183Y-107911900D01*
X117552183Y-107911900D01*
G37*
G36*
X112434630Y-106477299D02*
X112594855Y-106525903D01*
X112742520Y-106604831D01*
X112871949Y-106711051D01*
X112978169Y-106840480D01*
X113057097Y-106988145D01*
X113105701Y-107148370D01*
X113122112Y-107315000D01*
X113105701Y-107481630D01*
X113057097Y-107641855D01*
X112978169Y-107789520D01*
X112871949Y-107918949D01*
X112742520Y-108025169D01*
X112594855Y-108104097D01*
X112434630Y-108152701D01*
X112309752Y-108165000D01*
X112226248Y-108165000D01*
X112101370Y-108152701D01*
X111941145Y-108104097D01*
X111793480Y-108025169D01*
X111664051Y-107918949D01*
X111557831Y-107789520D01*
X111478903Y-107641855D01*
X111430299Y-107481630D01*
X111413888Y-107315000D01*
X111430299Y-107148370D01*
X111478903Y-106988145D01*
X111557831Y-106840480D01*
X111664051Y-106711051D01*
X111793480Y-106604831D01*
X111941145Y-106525903D01*
X112101370Y-106477299D01*
X112226248Y-106465000D01*
X112309752Y-106465000D01*
X112434630Y-106477299D01*
X112434630Y-106477299D01*
G37*
G36*
X120738000Y-106895000D02*
X119038000Y-106895000D01*
X119038000Y-105195000D01*
X120738000Y-105195000D01*
X120738000Y-106895000D01*
X120738000Y-106895000D01*
G37*
G36*
X113118000Y-105625000D02*
X111418000Y-105625000D01*
X111418000Y-103925000D01*
X113118000Y-103925000D01*
X113118000Y-105625000D01*
X113118000Y-105625000D01*
G37*
G36*
X178425649Y-103982717D02*
X178464827Y-103986576D01*
X178516893Y-104002370D01*
X178615629Y-104032321D01*
X178754608Y-104106608D01*
X178876422Y-104206578D01*
X178976392Y-104328392D01*
X179050679Y-104467371D01*
X179096424Y-104618174D01*
X179111870Y-104775000D01*
X179096424Y-104931826D01*
X179050679Y-105082629D01*
X178976392Y-105221608D01*
X178876422Y-105343422D01*
X178754608Y-105443392D01*
X178615629Y-105517679D01*
X178540228Y-105540551D01*
X178464827Y-105563424D01*
X178425649Y-105567283D01*
X178347295Y-105575000D01*
X178268705Y-105575000D01*
X178190351Y-105567283D01*
X178151173Y-105563424D01*
X178075772Y-105540551D01*
X178000371Y-105517679D01*
X177861392Y-105443392D01*
X177739578Y-105343422D01*
X177639608Y-105221608D01*
X177565321Y-105082629D01*
X177519576Y-104931826D01*
X177504130Y-104775000D01*
X177519576Y-104618174D01*
X177565321Y-104467371D01*
X177639608Y-104328392D01*
X177739578Y-104206578D01*
X177861392Y-104106608D01*
X178000371Y-104032321D01*
X178099107Y-104002370D01*
X178151173Y-103986576D01*
X178190351Y-103982717D01*
X178268705Y-103975000D01*
X178347295Y-103975000D01*
X178425649Y-103982717D01*
X178425649Y-103982717D01*
G37*
G36*
X114945224Y-102815128D02*
X115077175Y-102855155D01*
X115198781Y-102920155D01*
X115305370Y-103007630D01*
X115392845Y-103114219D01*
X115457845Y-103235825D01*
X115497872Y-103367776D01*
X115511387Y-103505000D01*
X115497872Y-103642224D01*
X115457845Y-103774175D01*
X115392845Y-103895781D01*
X115305370Y-104002370D01*
X115198781Y-104089845D01*
X115077175Y-104154845D01*
X114945224Y-104194872D01*
X114842390Y-104205000D01*
X114773610Y-104205000D01*
X114670776Y-104194872D01*
X114538825Y-104154845D01*
X114417219Y-104089845D01*
X114310630Y-104002370D01*
X114223155Y-103895781D01*
X114158155Y-103774175D01*
X114118128Y-103642224D01*
X114104613Y-103505000D01*
X114118128Y-103367776D01*
X114158155Y-103235825D01*
X114223155Y-103114219D01*
X114310630Y-103007630D01*
X114417219Y-102920155D01*
X114538825Y-102855155D01*
X114670776Y-102815128D01*
X114773610Y-102805000D01*
X114842390Y-102805000D01*
X114945224Y-102815128D01*
X114945224Y-102815128D01*
G37*
G36*
X117485224Y-102815128D02*
X117617175Y-102855155D01*
X117738781Y-102920155D01*
X117845370Y-103007630D01*
X117932845Y-103114219D01*
X117997845Y-103235825D01*
X118037872Y-103367776D01*
X118051387Y-103505000D01*
X118037872Y-103642224D01*
X117997845Y-103774175D01*
X117932845Y-103895781D01*
X117845370Y-104002370D01*
X117738781Y-104089845D01*
X117617175Y-104154845D01*
X117485224Y-104194872D01*
X117382390Y-104205000D01*
X117313610Y-104205000D01*
X117210776Y-104194872D01*
X117078825Y-104154845D01*
X116957219Y-104089845D01*
X116850630Y-104002370D01*
X116763155Y-103895781D01*
X116698155Y-103774175D01*
X116658128Y-103642224D01*
X116644613Y-103505000D01*
X116658128Y-103367776D01*
X116698155Y-103235825D01*
X116763155Y-103114219D01*
X116850630Y-103007630D01*
X116957219Y-102920155D01*
X117078825Y-102855155D01*
X117210776Y-102815128D01*
X117313610Y-102805000D01*
X117382390Y-102805000D01*
X117485224Y-102815128D01*
X117485224Y-102815128D01*
G37*
G36*
X179158000Y-101815000D02*
X177458000Y-101815000D01*
X177458000Y-100115000D01*
X179158000Y-100115000D01*
X179158000Y-101815000D01*
X179158000Y-101815000D01*
G37*
G36*
X122545649Y-100172717D02*
X122584827Y-100176576D01*
X122648012Y-100195743D01*
X122735629Y-100222321D01*
X122874608Y-100296608D01*
X122996422Y-100396578D01*
X123096392Y-100518392D01*
X123170679Y-100657371D01*
X123216424Y-100808174D01*
X123231870Y-100965000D01*
X123216424Y-101121826D01*
X123170679Y-101272629D01*
X123096392Y-101411608D01*
X122996422Y-101533422D01*
X122874608Y-101633392D01*
X122735629Y-101707679D01*
X122660228Y-101730551D01*
X122584827Y-101753424D01*
X122545649Y-101757283D01*
X122467295Y-101765000D01*
X122388705Y-101765000D01*
X122310351Y-101757283D01*
X122271173Y-101753424D01*
X122195772Y-101730551D01*
X122120371Y-101707679D01*
X121981392Y-101633392D01*
X121859578Y-101533422D01*
X121759608Y-101411608D01*
X121685321Y-101272629D01*
X121639576Y-101121826D01*
X121624130Y-100965000D01*
X121639576Y-100808174D01*
X121685321Y-100657371D01*
X121759608Y-100518392D01*
X121859578Y-100396578D01*
X121981392Y-100296608D01*
X122120371Y-100222321D01*
X122207988Y-100195743D01*
X122271173Y-100176576D01*
X122310351Y-100172717D01*
X122388705Y-100165000D01*
X122467295Y-100165000D01*
X122545649Y-100172717D01*
X122545649Y-100172717D01*
G37*
G36*
X112501352Y-100195743D02*
X112646941Y-100256048D01*
X112777973Y-100343601D01*
X112889399Y-100455027D01*
X112976952Y-100586059D01*
X113037257Y-100731648D01*
X113068000Y-100886205D01*
X113068000Y-101043795D01*
X113037257Y-101198352D01*
X112976952Y-101343941D01*
X112889399Y-101474973D01*
X112777973Y-101586399D01*
X112646941Y-101673952D01*
X112501352Y-101734257D01*
X112346795Y-101765000D01*
X112189205Y-101765000D01*
X112034648Y-101734257D01*
X111889059Y-101673952D01*
X111758027Y-101586399D01*
X111646601Y-101474973D01*
X111559048Y-101343941D01*
X111498743Y-101198352D01*
X111468000Y-101043795D01*
X111468000Y-100886205D01*
X111498743Y-100731648D01*
X111559048Y-100586059D01*
X111646601Y-100455027D01*
X111758027Y-100343601D01*
X111889059Y-100256048D01*
X112034648Y-100195743D01*
X112189205Y-100165000D01*
X112346795Y-100165000D01*
X112501352Y-100195743D01*
X112501352Y-100195743D01*
G37*
G36*
X178474630Y-97587299D02*
X178634855Y-97635903D01*
X178782520Y-97714831D01*
X178911949Y-97821051D01*
X179018169Y-97950480D01*
X179097097Y-98098145D01*
X179145701Y-98258370D01*
X179162112Y-98425000D01*
X179145701Y-98591630D01*
X179097097Y-98751855D01*
X179018169Y-98899520D01*
X178911949Y-99028949D01*
X178782520Y-99135169D01*
X178634855Y-99214097D01*
X178474630Y-99262701D01*
X178349752Y-99275000D01*
X178266248Y-99275000D01*
X178141370Y-99262701D01*
X177981145Y-99214097D01*
X177833480Y-99135169D01*
X177704051Y-99028949D01*
X177597831Y-98899520D01*
X177518903Y-98751855D01*
X177470299Y-98591630D01*
X177453888Y-98425000D01*
X177470299Y-98258370D01*
X177518903Y-98098145D01*
X177597831Y-97950480D01*
X177704051Y-97821051D01*
X177833480Y-97714831D01*
X177981145Y-97635903D01*
X178141370Y-97587299D01*
X178266248Y-97575000D01*
X178349752Y-97575000D01*
X178474630Y-97587299D01*
X178474630Y-97587299D01*
G37*
G36*
X122661352Y-96345743D02*
X122806941Y-96406048D01*
X122937973Y-96493601D01*
X123049399Y-96605027D01*
X123136952Y-96736059D01*
X123197257Y-96881648D01*
X123228000Y-97036205D01*
X123228000Y-97193795D01*
X123197257Y-97348352D01*
X123136952Y-97493941D01*
X123049399Y-97624973D01*
X122937973Y-97736399D01*
X122806941Y-97823952D01*
X122661352Y-97884257D01*
X122506795Y-97915000D01*
X122349205Y-97915000D01*
X122194648Y-97884257D01*
X122049059Y-97823952D01*
X121918027Y-97736399D01*
X121806601Y-97624973D01*
X121719048Y-97493941D01*
X121658743Y-97348352D01*
X121628000Y-97193795D01*
X121628000Y-97036205D01*
X121658743Y-96881648D01*
X121719048Y-96736059D01*
X121806601Y-96605027D01*
X121918027Y-96493601D01*
X122049059Y-96406048D01*
X122194648Y-96345743D01*
X122349205Y-96315000D01*
X122506795Y-96315000D01*
X122661352Y-96345743D01*
X122661352Y-96345743D01*
G37*
G36*
X117074030Y-93549469D02*
X117074033Y-93549470D01*
X117074034Y-93549470D01*
X117262535Y-93606651D01*
X117262537Y-93606652D01*
X117436260Y-93699509D01*
X117588528Y-93824472D01*
X117713491Y-93976740D01*
X117806348Y-94150463D01*
X117863531Y-94338970D01*
X117882838Y-94535000D01*
X117863531Y-94731030D01*
X117806348Y-94919537D01*
X117713491Y-95093260D01*
X117588528Y-95245528D01*
X117436260Y-95370491D01*
X117262537Y-95463348D01*
X117262535Y-95463349D01*
X117074034Y-95520530D01*
X117074033Y-95520530D01*
X117074030Y-95520531D01*
X116927124Y-95535000D01*
X115228876Y-95535000D01*
X115081970Y-95520531D01*
X115081967Y-95520530D01*
X115081966Y-95520530D01*
X114893465Y-95463349D01*
X114893463Y-95463348D01*
X114719740Y-95370491D01*
X114567472Y-95245528D01*
X114442509Y-95093260D01*
X114349652Y-94919537D01*
X114292469Y-94731030D01*
X114273162Y-94535000D01*
X114292469Y-94338970D01*
X114349652Y-94150463D01*
X114442509Y-93976740D01*
X114567472Y-93824472D01*
X114719740Y-93699509D01*
X114893463Y-93606652D01*
X114893465Y-93606651D01*
X115081966Y-93549470D01*
X115081967Y-93549470D01*
X115081970Y-93549469D01*
X115228876Y-93535000D01*
X116927124Y-93535000D01*
X117074030Y-93549469D01*
X117074030Y-93549469D01*
G37*
G36*
X123228000Y-95415000D02*
X121628000Y-95415000D01*
X121628000Y-93815000D01*
X123228000Y-93815000D01*
X123228000Y-95415000D01*
X123228000Y-95415000D01*
G37*
G36*
X177630712Y-88851088D02*
X178000510Y-89004263D01*
X178000513Y-89004265D01*
X178333325Y-89226643D01*
X178616357Y-89509675D01*
X178838735Y-89842487D01*
X178838737Y-89842490D01*
X178991912Y-90212288D01*
X179070000Y-90604864D01*
X179070000Y-91005136D01*
X178991912Y-91397712D01*
X178838737Y-91767510D01*
X178838735Y-91767513D01*
X178616357Y-92100325D01*
X178333325Y-92383357D01*
X178000513Y-92605735D01*
X178000510Y-92605737D01*
X177630712Y-92758912D01*
X177238136Y-92837000D01*
X176837864Y-92837000D01*
X176445288Y-92758912D01*
X176075490Y-92605737D01*
X176075487Y-92605735D01*
X175742675Y-92383357D01*
X175459643Y-92100325D01*
X175237265Y-91767513D01*
X175237263Y-91767510D01*
X175084088Y-91397712D01*
X175006000Y-91005136D01*
X175006000Y-90604864D01*
X175084088Y-90212288D01*
X175237263Y-89842490D01*
X175237265Y-89842487D01*
X175459643Y-89509675D01*
X175742675Y-89226643D01*
X176075487Y-89004265D01*
X176075490Y-89004263D01*
X176445288Y-88851088D01*
X176837864Y-88773000D01*
X177238136Y-88773000D01*
X177630712Y-88851088D01*
X177630712Y-88851088D01*
G37*
G36*
X117752116Y-88538595D02*
X117781313Y-88547452D01*
X117808218Y-88561833D01*
X117831808Y-88581192D01*
X117851167Y-88604782D01*
X117865548Y-88631687D01*
X117874405Y-88660884D01*
X117878000Y-88697390D01*
X117878000Y-90372610D01*
X117874405Y-90409116D01*
X117865548Y-90438313D01*
X117851167Y-90465218D01*
X117831808Y-90488808D01*
X117808218Y-90508167D01*
X117781313Y-90522548D01*
X117752116Y-90531405D01*
X117715610Y-90535000D01*
X114440390Y-90535000D01*
X114403884Y-90531405D01*
X114374687Y-90522548D01*
X114347782Y-90508167D01*
X114324192Y-90488808D01*
X114304833Y-90465218D01*
X114290452Y-90438313D01*
X114281595Y-90409116D01*
X114278000Y-90372610D01*
X114278000Y-88697390D01*
X114281595Y-88660884D01*
X114290452Y-88631687D01*
X114304833Y-88604782D01*
X114324192Y-88581192D01*
X114347782Y-88561833D01*
X114374687Y-88547452D01*
X114403884Y-88538595D01*
X114440390Y-88535000D01*
X117715610Y-88535000D01*
X117752116Y-88538595D01*
X117752116Y-88538595D01*
G37*
G36*
X123228000Y-90335000D02*
X121628000Y-90335000D01*
X121628000Y-88735000D01*
X123228000Y-88735000D01*
X123228000Y-90335000D01*
X123228000Y-90335000D01*
G37*
G36*
X147224432Y-86108022D02*
X147394081Y-86159485D01*
X147550433Y-86243056D01*
X147687475Y-86355525D01*
X147799944Y-86492567D01*
X147883515Y-86648919D01*
X147934978Y-86818568D01*
X147952354Y-86995000D01*
X147934978Y-87171432D01*
X147883515Y-87341081D01*
X147799944Y-87497433D01*
X147687475Y-87634475D01*
X147550433Y-87746944D01*
X147394081Y-87830515D01*
X147224432Y-87881978D01*
X147092211Y-87895000D01*
X147003789Y-87895000D01*
X146871568Y-87881978D01*
X146701919Y-87830515D01*
X146545567Y-87746944D01*
X146408525Y-87634475D01*
X146296056Y-87497433D01*
X146212485Y-87341081D01*
X146161022Y-87171432D01*
X146143646Y-86995000D01*
X146161022Y-86818568D01*
X146212485Y-86648919D01*
X146296056Y-86492567D01*
X146408525Y-86355525D01*
X146545567Y-86243056D01*
X146701919Y-86159485D01*
X146871568Y-86108022D01*
X147003789Y-86095000D01*
X147092211Y-86095000D01*
X147224432Y-86108022D01*
X147224432Y-86108022D01*
G37*
G36*
X130948000Y-87895000D02*
X129148000Y-87895000D01*
X129148000Y-86095000D01*
X130948000Y-86095000D01*
X130948000Y-87895000D01*
X130948000Y-87895000D01*
G37*
G36*
X133624432Y-86108022D02*
X133794081Y-86159485D01*
X133950433Y-86243056D01*
X134087475Y-86355525D01*
X134199944Y-86492567D01*
X134283515Y-86648919D01*
X134334978Y-86818568D01*
X134352354Y-86995000D01*
X134334978Y-87171432D01*
X134283515Y-87341081D01*
X134199944Y-87497433D01*
X134087475Y-87634475D01*
X133950433Y-87746944D01*
X133794081Y-87830515D01*
X133624432Y-87881978D01*
X133492211Y-87895000D01*
X133403789Y-87895000D01*
X133271568Y-87881978D01*
X133101919Y-87830515D01*
X132945567Y-87746944D01*
X132808525Y-87634475D01*
X132696056Y-87497433D01*
X132612485Y-87341081D01*
X132561022Y-87171432D01*
X132543646Y-86995000D01*
X132561022Y-86818568D01*
X132612485Y-86648919D01*
X132696056Y-86492567D01*
X132808525Y-86355525D01*
X132945567Y-86243056D01*
X133101919Y-86159485D01*
X133271568Y-86108022D01*
X133403789Y-86095000D01*
X133492211Y-86095000D01*
X133624432Y-86108022D01*
X133624432Y-86108022D01*
G37*
G36*
X137024432Y-86108022D02*
X137194081Y-86159485D01*
X137350433Y-86243056D01*
X137487475Y-86355525D01*
X137599944Y-86492567D01*
X137683515Y-86648919D01*
X137734978Y-86818568D01*
X137752354Y-86995000D01*
X137734978Y-87171432D01*
X137683515Y-87341081D01*
X137599944Y-87497433D01*
X137487475Y-87634475D01*
X137350433Y-87746944D01*
X137194081Y-87830515D01*
X137024432Y-87881978D01*
X136892211Y-87895000D01*
X136803789Y-87895000D01*
X136671568Y-87881978D01*
X136501919Y-87830515D01*
X136345567Y-87746944D01*
X136208525Y-87634475D01*
X136096056Y-87497433D01*
X136012485Y-87341081D01*
X135961022Y-87171432D01*
X135943646Y-86995000D01*
X135961022Y-86818568D01*
X136012485Y-86648919D01*
X136096056Y-86492567D01*
X136208525Y-86355525D01*
X136345567Y-86243056D01*
X136501919Y-86159485D01*
X136671568Y-86108022D01*
X136803789Y-86095000D01*
X136892211Y-86095000D01*
X137024432Y-86108022D01*
X137024432Y-86108022D01*
G37*
G36*
X140424432Y-86108022D02*
X140594081Y-86159485D01*
X140750433Y-86243056D01*
X140887475Y-86355525D01*
X140999944Y-86492567D01*
X141083515Y-86648919D01*
X141134978Y-86818568D01*
X141152354Y-86995000D01*
X141134978Y-87171432D01*
X141083515Y-87341081D01*
X140999944Y-87497433D01*
X140887475Y-87634475D01*
X140750433Y-87746944D01*
X140594081Y-87830515D01*
X140424432Y-87881978D01*
X140292211Y-87895000D01*
X140203789Y-87895000D01*
X140071568Y-87881978D01*
X139901919Y-87830515D01*
X139745567Y-87746944D01*
X139608525Y-87634475D01*
X139496056Y-87497433D01*
X139412485Y-87341081D01*
X139361022Y-87171432D01*
X139343646Y-86995000D01*
X139361022Y-86818568D01*
X139412485Y-86648919D01*
X139496056Y-86492567D01*
X139608525Y-86355525D01*
X139745567Y-86243056D01*
X139901919Y-86159485D01*
X140071568Y-86108022D01*
X140203789Y-86095000D01*
X140292211Y-86095000D01*
X140424432Y-86108022D01*
X140424432Y-86108022D01*
G37*
G36*
X143824432Y-86108022D02*
X143994081Y-86159485D01*
X144150433Y-86243056D01*
X144287475Y-86355525D01*
X144399944Y-86492567D01*
X144483515Y-86648919D01*
X144534978Y-86818568D01*
X144552354Y-86995000D01*
X144534978Y-87171432D01*
X144483515Y-87341081D01*
X144399944Y-87497433D01*
X144287475Y-87634475D01*
X144150433Y-87746944D01*
X143994081Y-87830515D01*
X143824432Y-87881978D01*
X143692211Y-87895000D01*
X143603789Y-87895000D01*
X143471568Y-87881978D01*
X143301919Y-87830515D01*
X143145567Y-87746944D01*
X143008525Y-87634475D01*
X142896056Y-87497433D01*
X142812485Y-87341081D01*
X142761022Y-87171432D01*
X142743646Y-86995000D01*
X142761022Y-86818568D01*
X142812485Y-86648919D01*
X142896056Y-86492567D01*
X143008525Y-86355525D01*
X143145567Y-86243056D01*
X143301919Y-86159485D01*
X143471568Y-86108022D01*
X143603789Y-86095000D01*
X143692211Y-86095000D01*
X143824432Y-86108022D01*
X143824432Y-86108022D01*
G37*
G36*
X155614630Y-86157299D02*
X155774855Y-86205903D01*
X155922520Y-86284831D01*
X156051949Y-86391051D01*
X156158169Y-86520480D01*
X156237097Y-86668145D01*
X156285701Y-86828370D01*
X156302112Y-86995000D01*
X156285701Y-87161630D01*
X156237097Y-87321855D01*
X156158169Y-87469520D01*
X156051949Y-87598949D01*
X155922520Y-87705169D01*
X155774855Y-87784097D01*
X155614630Y-87832701D01*
X155489752Y-87845000D01*
X155406248Y-87845000D01*
X155281370Y-87832701D01*
X155121145Y-87784097D01*
X154973480Y-87705169D01*
X154844051Y-87598949D01*
X154737831Y-87469520D01*
X154658903Y-87321855D01*
X154610299Y-87161630D01*
X154593888Y-86995000D01*
X154610299Y-86828370D01*
X154658903Y-86668145D01*
X154737831Y-86520480D01*
X154844051Y-86391051D01*
X154973480Y-86284831D01*
X155121145Y-86205903D01*
X155281370Y-86157299D01*
X155406248Y-86145000D01*
X155489752Y-86145000D01*
X155614630Y-86157299D01*
X155614630Y-86157299D01*
G37*
G36*
X122661352Y-86265743D02*
X122806941Y-86326048D01*
X122937973Y-86413601D01*
X123049399Y-86525027D01*
X123136952Y-86656059D01*
X123197257Y-86801648D01*
X123228000Y-86956205D01*
X123228000Y-87113795D01*
X123197257Y-87268352D01*
X123136952Y-87413941D01*
X123049399Y-87544973D01*
X122937973Y-87656399D01*
X122806941Y-87743952D01*
X122661352Y-87804257D01*
X122506795Y-87835000D01*
X122349205Y-87835000D01*
X122194648Y-87804257D01*
X122049059Y-87743952D01*
X121918027Y-87656399D01*
X121806601Y-87544973D01*
X121719048Y-87413941D01*
X121658743Y-87268352D01*
X121628000Y-87113795D01*
X121628000Y-86956205D01*
X121658743Y-86801648D01*
X121719048Y-86656059D01*
X121806601Y-86525027D01*
X121918027Y-86413601D01*
X122049059Y-86326048D01*
X122194648Y-86265743D01*
X122349205Y-86235000D01*
X122506795Y-86235000D01*
X122661352Y-86265743D01*
X122661352Y-86265743D01*
G37*
G36*
X150572183Y-86321900D02*
X150699574Y-86374668D01*
X150752685Y-86410155D01*
X150814225Y-86451275D01*
X150911725Y-86548775D01*
X150988332Y-86663426D01*
X151041100Y-86790817D01*
X151068000Y-86926055D01*
X151068000Y-87063945D01*
X151041100Y-87199183D01*
X150990287Y-87321855D01*
X150988332Y-87326574D01*
X150911726Y-87441224D01*
X150814224Y-87538726D01*
X150724095Y-87598948D01*
X150699574Y-87615332D01*
X150572183Y-87668100D01*
X150436945Y-87695000D01*
X150299055Y-87695000D01*
X150163817Y-87668100D01*
X150036426Y-87615332D01*
X150011905Y-87598948D01*
X149921776Y-87538726D01*
X149824274Y-87441224D01*
X149747668Y-87326574D01*
X149745713Y-87321855D01*
X149694900Y-87199183D01*
X149668000Y-87063945D01*
X149668000Y-86926055D01*
X149694900Y-86790817D01*
X149747668Y-86663426D01*
X149824275Y-86548775D01*
X149921775Y-86451275D01*
X149983316Y-86410155D01*
X150036426Y-86374668D01*
X150163817Y-86321900D01*
X150299055Y-86295000D01*
X150436945Y-86295000D01*
X150572183Y-86321900D01*
X150572183Y-86321900D01*
G37*
G36*
X127645224Y-86305128D02*
X127777175Y-86345155D01*
X127898781Y-86410155D01*
X128005370Y-86497630D01*
X128092845Y-86604219D01*
X128157845Y-86725825D01*
X128197872Y-86857776D01*
X128211387Y-86995000D01*
X128197872Y-87132224D01*
X128157845Y-87264175D01*
X128092845Y-87385781D01*
X128005370Y-87492370D01*
X127898781Y-87579845D01*
X127777175Y-87644845D01*
X127645224Y-87684872D01*
X127542390Y-87695000D01*
X127473610Y-87695000D01*
X127370776Y-87684872D01*
X127238825Y-87644845D01*
X127117219Y-87579845D01*
X127010630Y-87492370D01*
X126923155Y-87385781D01*
X126858155Y-87264175D01*
X126818128Y-87132224D01*
X126804613Y-86995000D01*
X126818128Y-86857776D01*
X126858155Y-86725825D01*
X126923155Y-86604219D01*
X127010630Y-86497630D01*
X127117219Y-86410155D01*
X127238825Y-86345155D01*
X127370776Y-86305128D01*
X127473610Y-86295000D01*
X127542390Y-86295000D01*
X127645224Y-86305128D01*
X127645224Y-86305128D01*
G37*
G36*
X156298000Y-85305000D02*
X154598000Y-85305000D01*
X154598000Y-83605000D01*
X156298000Y-83605000D01*
X156298000Y-85305000D01*
X156298000Y-85305000D01*
G37*
G36*
X117074030Y-80849469D02*
X117074033Y-80849470D01*
X117074034Y-80849470D01*
X117262535Y-80906651D01*
X117262537Y-80906652D01*
X117436260Y-80999509D01*
X117588528Y-81124472D01*
X117713491Y-81276740D01*
X117764021Y-81371275D01*
X117806349Y-81450465D01*
X117846682Y-81583426D01*
X117863531Y-81638970D01*
X117882838Y-81835000D01*
X117863531Y-82031030D01*
X117863530Y-82031033D01*
X117863530Y-82031034D01*
X117836791Y-82119182D01*
X117806348Y-82219537D01*
X117713491Y-82393260D01*
X117588528Y-82545528D01*
X117436260Y-82670491D01*
X117436258Y-82670492D01*
X117262535Y-82763349D01*
X117074034Y-82820530D01*
X117074033Y-82820530D01*
X117074030Y-82820531D01*
X116927124Y-82835000D01*
X115228876Y-82835000D01*
X115081970Y-82820531D01*
X115081967Y-82820530D01*
X115081966Y-82820530D01*
X114893465Y-82763349D01*
X114719742Y-82670492D01*
X114719740Y-82670491D01*
X114567472Y-82545528D01*
X114442509Y-82393260D01*
X114349652Y-82219537D01*
X114319210Y-82119182D01*
X114292470Y-82031034D01*
X114292470Y-82031033D01*
X114292469Y-82031030D01*
X114273162Y-81835000D01*
X114292469Y-81638970D01*
X114309318Y-81583426D01*
X114349651Y-81450465D01*
X114391979Y-81371275D01*
X114442509Y-81276740D01*
X114567472Y-81124472D01*
X114719740Y-80999509D01*
X114893463Y-80906652D01*
X114893465Y-80906651D01*
X115081966Y-80849470D01*
X115081967Y-80849470D01*
X115081970Y-80849469D01*
X115228876Y-80835000D01*
X116927124Y-80835000D01*
X117074030Y-80849469D01*
X117074030Y-80849469D01*
G37*
G36*
X145524432Y-81028022D02*
X145694081Y-81079485D01*
X145850433Y-81163056D01*
X145987475Y-81275525D01*
X146099944Y-81412567D01*
X146183515Y-81568919D01*
X146234978Y-81738568D01*
X146252354Y-81915000D01*
X146234978Y-82091432D01*
X146183515Y-82261081D01*
X146099944Y-82417433D01*
X145987475Y-82554475D01*
X145850433Y-82666944D01*
X145694081Y-82750515D01*
X145524432Y-82801978D01*
X145392211Y-82815000D01*
X145303789Y-82815000D01*
X145171568Y-82801978D01*
X145001919Y-82750515D01*
X144845567Y-82666944D01*
X144708525Y-82554475D01*
X144596056Y-82417433D01*
X144512485Y-82261081D01*
X144461022Y-82091432D01*
X144443646Y-81915000D01*
X144461022Y-81738568D01*
X144512485Y-81568919D01*
X144596056Y-81412567D01*
X144708525Y-81275525D01*
X144845567Y-81163056D01*
X145001919Y-81079485D01*
X145171568Y-81028022D01*
X145303789Y-81015000D01*
X145392211Y-81015000D01*
X145524432Y-81028022D01*
X145524432Y-81028022D01*
G37*
G36*
X135324432Y-81028022D02*
X135494081Y-81079485D01*
X135650433Y-81163056D01*
X135787475Y-81275525D01*
X135899944Y-81412567D01*
X135983515Y-81568919D01*
X136034978Y-81738568D01*
X136052354Y-81915000D01*
X136034978Y-82091432D01*
X135983515Y-82261081D01*
X135899944Y-82417433D01*
X135787475Y-82554475D01*
X135650433Y-82666944D01*
X135494081Y-82750515D01*
X135324432Y-82801978D01*
X135192211Y-82815000D01*
X135103789Y-82815000D01*
X134971568Y-82801978D01*
X134801919Y-82750515D01*
X134645567Y-82666944D01*
X134508525Y-82554475D01*
X134396056Y-82417433D01*
X134312485Y-82261081D01*
X134261022Y-82091432D01*
X134243646Y-81915000D01*
X134261022Y-81738568D01*
X134312485Y-81568919D01*
X134396056Y-81412567D01*
X134508525Y-81275525D01*
X134645567Y-81163056D01*
X134801919Y-81079485D01*
X134971568Y-81028022D01*
X135103789Y-81015000D01*
X135192211Y-81015000D01*
X135324432Y-81028022D01*
X135324432Y-81028022D01*
G37*
G36*
X131924432Y-81028022D02*
X132094081Y-81079485D01*
X132250433Y-81163056D01*
X132387475Y-81275525D01*
X132499944Y-81412567D01*
X132583515Y-81568919D01*
X132634978Y-81738568D01*
X132652354Y-81915000D01*
X132634978Y-82091432D01*
X132583515Y-82261081D01*
X132499944Y-82417433D01*
X132387475Y-82554475D01*
X132250433Y-82666944D01*
X132094081Y-82750515D01*
X131924432Y-82801978D01*
X131792211Y-82815000D01*
X131703789Y-82815000D01*
X131571568Y-82801978D01*
X131401919Y-82750515D01*
X131245567Y-82666944D01*
X131108525Y-82554475D01*
X130996056Y-82417433D01*
X130912485Y-82261081D01*
X130861022Y-82091432D01*
X130843646Y-81915000D01*
X130861022Y-81738568D01*
X130912485Y-81568919D01*
X130996056Y-81412567D01*
X131108525Y-81275525D01*
X131245567Y-81163056D01*
X131401919Y-81079485D01*
X131571568Y-81028022D01*
X131703789Y-81015000D01*
X131792211Y-81015000D01*
X131924432Y-81028022D01*
X131924432Y-81028022D01*
G37*
G36*
X142124432Y-81028022D02*
X142294081Y-81079485D01*
X142450433Y-81163056D01*
X142587475Y-81275525D01*
X142699944Y-81412567D01*
X142783515Y-81568919D01*
X142834978Y-81738568D01*
X142852354Y-81915000D01*
X142834978Y-82091432D01*
X142783515Y-82261081D01*
X142699944Y-82417433D01*
X142587475Y-82554475D01*
X142450433Y-82666944D01*
X142294081Y-82750515D01*
X142124432Y-82801978D01*
X141992211Y-82815000D01*
X141903789Y-82815000D01*
X141771568Y-82801978D01*
X141601919Y-82750515D01*
X141445567Y-82666944D01*
X141308525Y-82554475D01*
X141196056Y-82417433D01*
X141112485Y-82261081D01*
X141061022Y-82091432D01*
X141043646Y-81915000D01*
X141061022Y-81738568D01*
X141112485Y-81568919D01*
X141196056Y-81412567D01*
X141308525Y-81275525D01*
X141445567Y-81163056D01*
X141601919Y-81079485D01*
X141771568Y-81028022D01*
X141903789Y-81015000D01*
X141992211Y-81015000D01*
X142124432Y-81028022D01*
X142124432Y-81028022D01*
G37*
G36*
X138724432Y-81028022D02*
X138894081Y-81079485D01*
X139050433Y-81163056D01*
X139187475Y-81275525D01*
X139299944Y-81412567D01*
X139383515Y-81568919D01*
X139434978Y-81738568D01*
X139452354Y-81915000D01*
X139434978Y-82091432D01*
X139383515Y-82261081D01*
X139299944Y-82417433D01*
X139187475Y-82554475D01*
X139050433Y-82666944D01*
X138894081Y-82750515D01*
X138724432Y-82801978D01*
X138592211Y-82815000D01*
X138503789Y-82815000D01*
X138371568Y-82801978D01*
X138201919Y-82750515D01*
X138045567Y-82666944D01*
X137908525Y-82554475D01*
X137796056Y-82417433D01*
X137712485Y-82261081D01*
X137661022Y-82091432D01*
X137643646Y-81915000D01*
X137661022Y-81738568D01*
X137712485Y-81568919D01*
X137796056Y-81412567D01*
X137908525Y-81275525D01*
X138045567Y-81163056D01*
X138201919Y-81079485D01*
X138371568Y-81028022D01*
X138503789Y-81015000D01*
X138592211Y-81015000D01*
X138724432Y-81028022D01*
X138724432Y-81028022D01*
G37*
G36*
X150505224Y-81225128D02*
X150637175Y-81265155D01*
X150758781Y-81330155D01*
X150865370Y-81417630D01*
X150952845Y-81524219D01*
X151017845Y-81645825D01*
X151057872Y-81777776D01*
X151071387Y-81915000D01*
X151057872Y-82052224D01*
X151017845Y-82184175D01*
X150952845Y-82305781D01*
X150865370Y-82412370D01*
X150758781Y-82499845D01*
X150637175Y-82564845D01*
X150505224Y-82604872D01*
X150402390Y-82615000D01*
X150333610Y-82615000D01*
X150230776Y-82604872D01*
X150098825Y-82564845D01*
X149977219Y-82499845D01*
X149870630Y-82412370D01*
X149783155Y-82305781D01*
X149718155Y-82184175D01*
X149678128Y-82052224D01*
X149664613Y-81915000D01*
X149678128Y-81777776D01*
X149718155Y-81645825D01*
X149783155Y-81524219D01*
X149870630Y-81417630D01*
X149977219Y-81330155D01*
X150098825Y-81265155D01*
X150230776Y-81225128D01*
X150333610Y-81215000D01*
X150402390Y-81215000D01*
X150505224Y-81225128D01*
X150505224Y-81225128D01*
G37*
G36*
X127712183Y-81241900D02*
X127839574Y-81294668D01*
X127892685Y-81330155D01*
X127954225Y-81371275D01*
X128051725Y-81468775D01*
X128128332Y-81583426D01*
X128181100Y-81710817D01*
X128208000Y-81846055D01*
X128208000Y-81983945D01*
X128181100Y-82119183D01*
X128139532Y-82219535D01*
X128128332Y-82246574D01*
X128051726Y-82361224D01*
X127954224Y-82458726D01*
X127839574Y-82535332D01*
X127712183Y-82588100D01*
X127576945Y-82615000D01*
X127439055Y-82615000D01*
X127303817Y-82588100D01*
X127176426Y-82535332D01*
X127061776Y-82458726D01*
X126964274Y-82361224D01*
X126887668Y-82246574D01*
X126876468Y-82219535D01*
X126834900Y-82119183D01*
X126808000Y-81983945D01*
X126808000Y-81846055D01*
X126834900Y-81710817D01*
X126887668Y-81583426D01*
X126964275Y-81468775D01*
X127061775Y-81371275D01*
X127123316Y-81330155D01*
X127176426Y-81294668D01*
X127303817Y-81241900D01*
X127439055Y-81215000D01*
X127576945Y-81215000D01*
X127712183Y-81241900D01*
X127712183Y-81241900D01*
G37*
G36*
X158105649Y-77312717D02*
X158144827Y-77316576D01*
X158208012Y-77335743D01*
X158295629Y-77362321D01*
X158434608Y-77436608D01*
X158556422Y-77536578D01*
X158656392Y-77658392D01*
X158730679Y-77797371D01*
X158776424Y-77948174D01*
X158791870Y-78105000D01*
X158776424Y-78261826D01*
X158730679Y-78412629D01*
X158656392Y-78551608D01*
X158556422Y-78673422D01*
X158434608Y-78773392D01*
X158295629Y-78847679D01*
X158220227Y-78870552D01*
X158144827Y-78893424D01*
X158105649Y-78897283D01*
X158027295Y-78905000D01*
X157948705Y-78905000D01*
X157870351Y-78897283D01*
X157831173Y-78893424D01*
X157755773Y-78870552D01*
X157680371Y-78847679D01*
X157541392Y-78773392D01*
X157419578Y-78673422D01*
X157319608Y-78551608D01*
X157245321Y-78412629D01*
X157199576Y-78261826D01*
X157184130Y-78105000D01*
X157199576Y-77948174D01*
X157245321Y-77797371D01*
X157319608Y-77658392D01*
X157419578Y-77536578D01*
X157541392Y-77436608D01*
X157680371Y-77362321D01*
X157767988Y-77335743D01*
X157831173Y-77316576D01*
X157870351Y-77312717D01*
X157948705Y-77305000D01*
X158027295Y-77305000D01*
X158105649Y-77312717D01*
X158105649Y-77312717D01*
G37*
G36*
X148061352Y-77335743D02*
X148206941Y-77396048D01*
X148337973Y-77483601D01*
X148449399Y-77595027D01*
X148536952Y-77726059D01*
X148597257Y-77871648D01*
X148628000Y-78026205D01*
X148628000Y-78183795D01*
X148597257Y-78338352D01*
X148536952Y-78483941D01*
X148449399Y-78614973D01*
X148337973Y-78726399D01*
X148206941Y-78813952D01*
X148061352Y-78874257D01*
X147906795Y-78905000D01*
X147749205Y-78905000D01*
X147594648Y-78874257D01*
X147449059Y-78813952D01*
X147318027Y-78726399D01*
X147206601Y-78614973D01*
X147119048Y-78483941D01*
X147058743Y-78338352D01*
X147028000Y-78183795D01*
X147028000Y-78026205D01*
X147058743Y-77871648D01*
X147119048Y-77726059D01*
X147206601Y-77595027D01*
X147318027Y-77483601D01*
X147449059Y-77396048D01*
X147594648Y-77335743D01*
X147749205Y-77305000D01*
X147906795Y-77305000D01*
X148061352Y-77335743D01*
X148061352Y-77335743D01*
G37*
G36*
X117752116Y-75838595D02*
X117781313Y-75847452D01*
X117808218Y-75861833D01*
X117831808Y-75881192D01*
X117851167Y-75904782D01*
X117865548Y-75931687D01*
X117874405Y-75960884D01*
X117878000Y-75997390D01*
X117878000Y-77672610D01*
X117874405Y-77709116D01*
X117865548Y-77738313D01*
X117851167Y-77765218D01*
X117831808Y-77788808D01*
X117808218Y-77808167D01*
X117781313Y-77822548D01*
X117752116Y-77831405D01*
X117715610Y-77835000D01*
X114440390Y-77835000D01*
X114403884Y-77831405D01*
X114374687Y-77822548D01*
X114347782Y-77808167D01*
X114324192Y-77788808D01*
X114304833Y-77765218D01*
X114290452Y-77738313D01*
X114281595Y-77709116D01*
X114278000Y-77672610D01*
X114278000Y-75997390D01*
X114281595Y-75960884D01*
X114290452Y-75931687D01*
X114304833Y-75904782D01*
X114324192Y-75881192D01*
X114347782Y-75861833D01*
X114374687Y-75847452D01*
X114403884Y-75838595D01*
X114440390Y-75835000D01*
X117715610Y-75835000D01*
X117752116Y-75838595D01*
X117752116Y-75838595D01*
G37*
G36*
X126830712Y-73611088D02*
X127200510Y-73764263D01*
X127200513Y-73764265D01*
X127533325Y-73986643D01*
X127816357Y-74269675D01*
X128000204Y-74544822D01*
X128038737Y-74602490D01*
X128191912Y-74972288D01*
X128270000Y-75364864D01*
X128270000Y-75765136D01*
X128191912Y-76157712D01*
X128038737Y-76527510D01*
X128038735Y-76527513D01*
X127816357Y-76860325D01*
X127533325Y-77143357D01*
X127245399Y-77335743D01*
X127200510Y-77365737D01*
X126830712Y-77518912D01*
X126438136Y-77597000D01*
X126037864Y-77597000D01*
X125645288Y-77518912D01*
X125275490Y-77365737D01*
X125230601Y-77335743D01*
X124942675Y-77143357D01*
X124659643Y-76860325D01*
X124437265Y-76527513D01*
X124437263Y-76527510D01*
X124284088Y-76157712D01*
X124206000Y-75765136D01*
X124206000Y-75364864D01*
X124284088Y-74972288D01*
X124437263Y-74602490D01*
X124475796Y-74544822D01*
X124659643Y-74269675D01*
X124942675Y-73986643D01*
X125275487Y-73764265D01*
X125275490Y-73764263D01*
X125645288Y-73611088D01*
X126037864Y-73533000D01*
X126438136Y-73533000D01*
X126830712Y-73611088D01*
X126830712Y-73611088D01*
G37*
G36*
X137583294Y-74561496D02*
X137703726Y-74598029D01*
X137746087Y-74610879D01*
X137896112Y-74691068D01*
X138027612Y-74798988D01*
X138135532Y-74930488D01*
X138215721Y-75080512D01*
X138228571Y-75122873D01*
X138265104Y-75243305D01*
X138265104Y-75243307D01*
X138277600Y-75370179D01*
X138277600Y-75759820D01*
X138277076Y-75765136D01*
X138265104Y-75886694D01*
X138233970Y-75989329D01*
X138215721Y-76049488D01*
X138135532Y-76199512D01*
X138027612Y-76331012D01*
X137896112Y-76438932D01*
X137746088Y-76519121D01*
X137718433Y-76527510D01*
X137583295Y-76568504D01*
X137470432Y-76579620D01*
X137414001Y-76585178D01*
X137414000Y-76585178D01*
X137244706Y-76568504D01*
X137109568Y-76527510D01*
X137081913Y-76519121D01*
X136931889Y-76438932D01*
X136841946Y-76365117D01*
X136800388Y-76331012D01*
X136692469Y-76199512D01*
X136670127Y-76157713D01*
X136612279Y-76049488D01*
X136580919Y-75946107D01*
X136562896Y-75886695D01*
X136554565Y-75802112D01*
X136550400Y-75759821D01*
X136550400Y-75370180D01*
X136562896Y-75243308D01*
X136562896Y-75243306D01*
X136612278Y-75080517D01*
X136612279Y-75080513D01*
X136692468Y-74930488D01*
X136800388Y-74798988D01*
X136931888Y-74691068D01*
X137081912Y-74610879D01*
X137124273Y-74598029D01*
X137244705Y-74561496D01*
X137357568Y-74550380D01*
X137413999Y-74544822D01*
X137414000Y-74544822D01*
X137583294Y-74561496D01*
X137583294Y-74561496D01*
G37*
G36*
X140123294Y-74561496D02*
X140243726Y-74598029D01*
X140286087Y-74610879D01*
X140436112Y-74691068D01*
X140567612Y-74798988D01*
X140675532Y-74930488D01*
X140755721Y-75080512D01*
X140768571Y-75122873D01*
X140805104Y-75243305D01*
X140805104Y-75243307D01*
X140817600Y-75370179D01*
X140817600Y-75759820D01*
X140817076Y-75765136D01*
X140805104Y-75886694D01*
X140773970Y-75989329D01*
X140755721Y-76049488D01*
X140675532Y-76199512D01*
X140567612Y-76331012D01*
X140436112Y-76438932D01*
X140286088Y-76519121D01*
X140258433Y-76527510D01*
X140123295Y-76568504D01*
X140010432Y-76579620D01*
X139954001Y-76585178D01*
X139954000Y-76585178D01*
X139784706Y-76568504D01*
X139649568Y-76527510D01*
X139621913Y-76519121D01*
X139471889Y-76438932D01*
X139381946Y-76365117D01*
X139340388Y-76331012D01*
X139232469Y-76199512D01*
X139210127Y-76157713D01*
X139152279Y-76049488D01*
X139120919Y-75946107D01*
X139102896Y-75886695D01*
X139094565Y-75802112D01*
X139090400Y-75759821D01*
X139090400Y-75370180D01*
X139102896Y-75243308D01*
X139102896Y-75243306D01*
X139152278Y-75080517D01*
X139152279Y-75080513D01*
X139232468Y-74930488D01*
X139340388Y-74798988D01*
X139471888Y-74691068D01*
X139621912Y-74610879D01*
X139664273Y-74598029D01*
X139784705Y-74561496D01*
X139897568Y-74550380D01*
X139953999Y-74544822D01*
X139954000Y-74544822D01*
X140123294Y-74561496D01*
X140123294Y-74561496D01*
G37*
G36*
X132503294Y-74561496D02*
X132623726Y-74598029D01*
X132666087Y-74610879D01*
X132816112Y-74691068D01*
X132947612Y-74798988D01*
X133055532Y-74930488D01*
X133135721Y-75080512D01*
X133148571Y-75122873D01*
X133185104Y-75243305D01*
X133185104Y-75243307D01*
X133197600Y-75370179D01*
X133197600Y-75759820D01*
X133197076Y-75765136D01*
X133185104Y-75886694D01*
X133153970Y-75989329D01*
X133135721Y-76049488D01*
X133055532Y-76199512D01*
X132947612Y-76331012D01*
X132816112Y-76438932D01*
X132666088Y-76519121D01*
X132638433Y-76527510D01*
X132503295Y-76568504D01*
X132390432Y-76579620D01*
X132334001Y-76585178D01*
X132334000Y-76585178D01*
X132164706Y-76568504D01*
X132029568Y-76527510D01*
X132001913Y-76519121D01*
X131851889Y-76438932D01*
X131761946Y-76365117D01*
X131720388Y-76331012D01*
X131612469Y-76199512D01*
X131590127Y-76157713D01*
X131532279Y-76049488D01*
X131500919Y-75946107D01*
X131482896Y-75886695D01*
X131474565Y-75802112D01*
X131470400Y-75759821D01*
X131470400Y-75370180D01*
X131482896Y-75243308D01*
X131482896Y-75243306D01*
X131532278Y-75080517D01*
X131532279Y-75080513D01*
X131612468Y-74930488D01*
X131720388Y-74798988D01*
X131851888Y-74691068D01*
X132001912Y-74610879D01*
X132044273Y-74598029D01*
X132164705Y-74561496D01*
X132277568Y-74550380D01*
X132333999Y-74544822D01*
X132334000Y-74544822D01*
X132503294Y-74561496D01*
X132503294Y-74561496D01*
G37*
G36*
X152823294Y-74561496D02*
X152943726Y-74598029D01*
X152986087Y-74610879D01*
X153136112Y-74691068D01*
X153267612Y-74798988D01*
X153375532Y-74930488D01*
X153455721Y-75080512D01*
X153468571Y-75122873D01*
X153505104Y-75243305D01*
X153505104Y-75243307D01*
X153517600Y-75370179D01*
X153517600Y-75759820D01*
X153517076Y-75765136D01*
X153505104Y-75886694D01*
X153473970Y-75989329D01*
X153455721Y-76049488D01*
X153375532Y-76199512D01*
X153267612Y-76331012D01*
X153136112Y-76438932D01*
X152986088Y-76519121D01*
X152958433Y-76527510D01*
X152823295Y-76568504D01*
X152710432Y-76579620D01*
X152654001Y-76585178D01*
X152654000Y-76585178D01*
X152484706Y-76568504D01*
X152349568Y-76527510D01*
X152321913Y-76519121D01*
X152171889Y-76438932D01*
X152081946Y-76365117D01*
X152040388Y-76331012D01*
X151932469Y-76199512D01*
X151910127Y-76157713D01*
X151852279Y-76049488D01*
X151820919Y-75946107D01*
X151802896Y-75886695D01*
X151794565Y-75802112D01*
X151790400Y-75759821D01*
X151790400Y-75370180D01*
X151802896Y-75243308D01*
X151802896Y-75243306D01*
X151852278Y-75080517D01*
X151852279Y-75080513D01*
X151932468Y-74930488D01*
X152040388Y-74798988D01*
X152171888Y-74691068D01*
X152321912Y-74610879D01*
X152364273Y-74598029D01*
X152484705Y-74561496D01*
X152597568Y-74550380D01*
X152653999Y-74544822D01*
X152654000Y-74544822D01*
X152823294Y-74561496D01*
X152823294Y-74561496D01*
G37*
G36*
X174667294Y-74561496D02*
X174787726Y-74598029D01*
X174830087Y-74610879D01*
X174980112Y-74691068D01*
X175111612Y-74798988D01*
X175219532Y-74930488D01*
X175299721Y-75080512D01*
X175312571Y-75122873D01*
X175349104Y-75243305D01*
X175349104Y-75243307D01*
X175361600Y-75370179D01*
X175361600Y-75759820D01*
X175361076Y-75765136D01*
X175349104Y-75886694D01*
X175317970Y-75989329D01*
X175299721Y-76049488D01*
X175219532Y-76199512D01*
X175111612Y-76331012D01*
X174980112Y-76438932D01*
X174830088Y-76519121D01*
X174802433Y-76527510D01*
X174667295Y-76568504D01*
X174554432Y-76579620D01*
X174498001Y-76585178D01*
X174498000Y-76585178D01*
X174328706Y-76568504D01*
X174193568Y-76527510D01*
X174165913Y-76519121D01*
X174015889Y-76438932D01*
X173925946Y-76365117D01*
X173884388Y-76331012D01*
X173776469Y-76199512D01*
X173754127Y-76157713D01*
X173696279Y-76049488D01*
X173664919Y-75946107D01*
X173646896Y-75886695D01*
X173638565Y-75802112D01*
X173634400Y-75759821D01*
X173634400Y-75370180D01*
X173646896Y-75243308D01*
X173646896Y-75243306D01*
X173696278Y-75080517D01*
X173696279Y-75080513D01*
X173776468Y-74930488D01*
X173884388Y-74798988D01*
X174015888Y-74691068D01*
X174165912Y-74610879D01*
X174208273Y-74598029D01*
X174328705Y-74561496D01*
X174441568Y-74550380D01*
X174497999Y-74544822D01*
X174498000Y-74544822D01*
X174667294Y-74561496D01*
X174667294Y-74561496D01*
G37*
G36*
X172127294Y-74561496D02*
X172247726Y-74598029D01*
X172290087Y-74610879D01*
X172440112Y-74691068D01*
X172571612Y-74798988D01*
X172679532Y-74930488D01*
X172759721Y-75080512D01*
X172772571Y-75122873D01*
X172809104Y-75243305D01*
X172809104Y-75243307D01*
X172821600Y-75370179D01*
X172821600Y-75759820D01*
X172821076Y-75765136D01*
X172809104Y-75886694D01*
X172777970Y-75989329D01*
X172759721Y-76049488D01*
X172679532Y-76199512D01*
X172571612Y-76331012D01*
X172440112Y-76438932D01*
X172290088Y-76519121D01*
X172262433Y-76527510D01*
X172127295Y-76568504D01*
X172014432Y-76579620D01*
X171958001Y-76585178D01*
X171958000Y-76585178D01*
X171788706Y-76568504D01*
X171653568Y-76527510D01*
X171625913Y-76519121D01*
X171475889Y-76438932D01*
X171385946Y-76365117D01*
X171344388Y-76331012D01*
X171236469Y-76199512D01*
X171214127Y-76157713D01*
X171156279Y-76049488D01*
X171124919Y-75946107D01*
X171106896Y-75886695D01*
X171098565Y-75802112D01*
X171094400Y-75759821D01*
X171094400Y-75370180D01*
X171106896Y-75243308D01*
X171106896Y-75243306D01*
X171156278Y-75080517D01*
X171156279Y-75080513D01*
X171236468Y-74930488D01*
X171344388Y-74798988D01*
X171475888Y-74691068D01*
X171625912Y-74610879D01*
X171668273Y-74598029D01*
X171788705Y-74561496D01*
X171901568Y-74550380D01*
X171957999Y-74544822D01*
X171958000Y-74544822D01*
X172127294Y-74561496D01*
X172127294Y-74561496D01*
G37*
G36*
X169587294Y-74561496D02*
X169707726Y-74598029D01*
X169750087Y-74610879D01*
X169900112Y-74691068D01*
X170031612Y-74798988D01*
X170139532Y-74930488D01*
X170219721Y-75080512D01*
X170232571Y-75122873D01*
X170269104Y-75243305D01*
X170269104Y-75243307D01*
X170281600Y-75370179D01*
X170281600Y-75759820D01*
X170281076Y-75765136D01*
X170269104Y-75886694D01*
X170237970Y-75989329D01*
X170219721Y-76049488D01*
X170139532Y-76199512D01*
X170031612Y-76331012D01*
X169900112Y-76438932D01*
X169750088Y-76519121D01*
X169722433Y-76527510D01*
X169587295Y-76568504D01*
X169474432Y-76579620D01*
X169418001Y-76585178D01*
X169418000Y-76585178D01*
X169248706Y-76568504D01*
X169113568Y-76527510D01*
X169085913Y-76519121D01*
X168935889Y-76438932D01*
X168845946Y-76365117D01*
X168804388Y-76331012D01*
X168696469Y-76199512D01*
X168674127Y-76157713D01*
X168616279Y-76049488D01*
X168584919Y-75946107D01*
X168566896Y-75886695D01*
X168558565Y-75802112D01*
X168554400Y-75759821D01*
X168554400Y-75370180D01*
X168566896Y-75243308D01*
X168566896Y-75243306D01*
X168616278Y-75080517D01*
X168616279Y-75080513D01*
X168696468Y-74930488D01*
X168804388Y-74798988D01*
X168935888Y-74691068D01*
X169085912Y-74610879D01*
X169128273Y-74598029D01*
X169248705Y-74561496D01*
X169361568Y-74550380D01*
X169417999Y-74544822D01*
X169418000Y-74544822D01*
X169587294Y-74561496D01*
X169587294Y-74561496D01*
G37*
G36*
X167047294Y-74561496D02*
X167167726Y-74598029D01*
X167210087Y-74610879D01*
X167360112Y-74691068D01*
X167491612Y-74798988D01*
X167599532Y-74930488D01*
X167679721Y-75080512D01*
X167692571Y-75122873D01*
X167729104Y-75243305D01*
X167729104Y-75243307D01*
X167741600Y-75370179D01*
X167741600Y-75759820D01*
X167741076Y-75765136D01*
X167729104Y-75886694D01*
X167697970Y-75989329D01*
X167679721Y-76049488D01*
X167599532Y-76199512D01*
X167491612Y-76331012D01*
X167360112Y-76438932D01*
X167210088Y-76519121D01*
X167182433Y-76527510D01*
X167047295Y-76568504D01*
X166934432Y-76579620D01*
X166878001Y-76585178D01*
X166878000Y-76585178D01*
X166708706Y-76568504D01*
X166573568Y-76527510D01*
X166545913Y-76519121D01*
X166395889Y-76438932D01*
X166305946Y-76365117D01*
X166264388Y-76331012D01*
X166156469Y-76199512D01*
X166134127Y-76157713D01*
X166076279Y-76049488D01*
X166044919Y-75946107D01*
X166026896Y-75886695D01*
X166018565Y-75802112D01*
X166014400Y-75759821D01*
X166014400Y-75370180D01*
X166026896Y-75243308D01*
X166026896Y-75243306D01*
X166076278Y-75080517D01*
X166076279Y-75080513D01*
X166156468Y-74930488D01*
X166264388Y-74798988D01*
X166395888Y-74691068D01*
X166545912Y-74610879D01*
X166588273Y-74598029D01*
X166708705Y-74561496D01*
X166821568Y-74550380D01*
X166877999Y-74544822D01*
X166878000Y-74544822D01*
X167047294Y-74561496D01*
X167047294Y-74561496D01*
G37*
G36*
X164507294Y-74561496D02*
X164627726Y-74598029D01*
X164670087Y-74610879D01*
X164820112Y-74691068D01*
X164951612Y-74798988D01*
X165059532Y-74930488D01*
X165139721Y-75080512D01*
X165152571Y-75122873D01*
X165189104Y-75243305D01*
X165189104Y-75243307D01*
X165201600Y-75370179D01*
X165201600Y-75759820D01*
X165201076Y-75765136D01*
X165189104Y-75886694D01*
X165157970Y-75989329D01*
X165139721Y-76049488D01*
X165059532Y-76199512D01*
X164951612Y-76331012D01*
X164820112Y-76438932D01*
X164670088Y-76519121D01*
X164642433Y-76527510D01*
X164507295Y-76568504D01*
X164394432Y-76579620D01*
X164338001Y-76585178D01*
X164338000Y-76585178D01*
X164168706Y-76568504D01*
X164033568Y-76527510D01*
X164005913Y-76519121D01*
X163855889Y-76438932D01*
X163765946Y-76365117D01*
X163724388Y-76331012D01*
X163616469Y-76199512D01*
X163594127Y-76157713D01*
X163536279Y-76049488D01*
X163504919Y-75946107D01*
X163486896Y-75886695D01*
X163478565Y-75802112D01*
X163474400Y-75759821D01*
X163474400Y-75370180D01*
X163486896Y-75243308D01*
X163486896Y-75243306D01*
X163536278Y-75080517D01*
X163536279Y-75080513D01*
X163616468Y-74930488D01*
X163724388Y-74798988D01*
X163855888Y-74691068D01*
X164005912Y-74610879D01*
X164048273Y-74598029D01*
X164168705Y-74561496D01*
X164281568Y-74550380D01*
X164337999Y-74544822D01*
X164338000Y-74544822D01*
X164507294Y-74561496D01*
X164507294Y-74561496D01*
G37*
G36*
X161967294Y-74561496D02*
X162087726Y-74598029D01*
X162130087Y-74610879D01*
X162280112Y-74691068D01*
X162411612Y-74798988D01*
X162519532Y-74930488D01*
X162599721Y-75080512D01*
X162612571Y-75122873D01*
X162649104Y-75243305D01*
X162649104Y-75243307D01*
X162661600Y-75370179D01*
X162661600Y-75759820D01*
X162661076Y-75765136D01*
X162649104Y-75886694D01*
X162617970Y-75989329D01*
X162599721Y-76049488D01*
X162519532Y-76199512D01*
X162411612Y-76331012D01*
X162280112Y-76438932D01*
X162130088Y-76519121D01*
X162102433Y-76527510D01*
X161967295Y-76568504D01*
X161854432Y-76579620D01*
X161798001Y-76585178D01*
X161798000Y-76585178D01*
X161628706Y-76568504D01*
X161493568Y-76527510D01*
X161465913Y-76519121D01*
X161315889Y-76438932D01*
X161225946Y-76365117D01*
X161184388Y-76331012D01*
X161076469Y-76199512D01*
X161054127Y-76157713D01*
X160996279Y-76049488D01*
X160964919Y-75946107D01*
X160946896Y-75886695D01*
X160938565Y-75802112D01*
X160934400Y-75759821D01*
X160934400Y-75370180D01*
X160946896Y-75243308D01*
X160946896Y-75243306D01*
X160996278Y-75080517D01*
X160996279Y-75080513D01*
X161076468Y-74930488D01*
X161184388Y-74798988D01*
X161315888Y-74691068D01*
X161465912Y-74610879D01*
X161508273Y-74598029D01*
X161628705Y-74561496D01*
X161741568Y-74550380D01*
X161797999Y-74544822D01*
X161798000Y-74544822D01*
X161967294Y-74561496D01*
X161967294Y-74561496D01*
G37*
G36*
X159427294Y-74561496D02*
X159547726Y-74598029D01*
X159590087Y-74610879D01*
X159740112Y-74691068D01*
X159871612Y-74798988D01*
X159979532Y-74930488D01*
X160059721Y-75080512D01*
X160072571Y-75122873D01*
X160109104Y-75243305D01*
X160109104Y-75243307D01*
X160121600Y-75370179D01*
X160121600Y-75759820D01*
X160121076Y-75765136D01*
X160109104Y-75886694D01*
X160077970Y-75989329D01*
X160059721Y-76049488D01*
X159979532Y-76199512D01*
X159871612Y-76331012D01*
X159740112Y-76438932D01*
X159590088Y-76519121D01*
X159562433Y-76527510D01*
X159427295Y-76568504D01*
X159314432Y-76579620D01*
X159258001Y-76585178D01*
X159258000Y-76585178D01*
X159088706Y-76568504D01*
X158953568Y-76527510D01*
X158925913Y-76519121D01*
X158775889Y-76438932D01*
X158685946Y-76365117D01*
X158644388Y-76331012D01*
X158536469Y-76199512D01*
X158514127Y-76157713D01*
X158456279Y-76049488D01*
X158424919Y-75946107D01*
X158406896Y-75886695D01*
X158398565Y-75802112D01*
X158394400Y-75759821D01*
X158394400Y-75370180D01*
X158406896Y-75243308D01*
X158406896Y-75243306D01*
X158456278Y-75080517D01*
X158456279Y-75080513D01*
X158536468Y-74930488D01*
X158644388Y-74798988D01*
X158775888Y-74691068D01*
X158925912Y-74610879D01*
X158968273Y-74598029D01*
X159088705Y-74561496D01*
X159201568Y-74550380D01*
X159257999Y-74544822D01*
X159258000Y-74544822D01*
X159427294Y-74561496D01*
X159427294Y-74561496D01*
G37*
G36*
X135043294Y-74561496D02*
X135163726Y-74598029D01*
X135206087Y-74610879D01*
X135356112Y-74691068D01*
X135487612Y-74798988D01*
X135595532Y-74930488D01*
X135675721Y-75080512D01*
X135688571Y-75122873D01*
X135725104Y-75243305D01*
X135725104Y-75243307D01*
X135737600Y-75370179D01*
X135737600Y-75759820D01*
X135737076Y-75765136D01*
X135725104Y-75886694D01*
X135693970Y-75989329D01*
X135675721Y-76049488D01*
X135595532Y-76199512D01*
X135487612Y-76331012D01*
X135356112Y-76438932D01*
X135206088Y-76519121D01*
X135178433Y-76527510D01*
X135043295Y-76568504D01*
X134930432Y-76579620D01*
X134874001Y-76585178D01*
X134874000Y-76585178D01*
X134704706Y-76568504D01*
X134569568Y-76527510D01*
X134541913Y-76519121D01*
X134391889Y-76438932D01*
X134301946Y-76365117D01*
X134260388Y-76331012D01*
X134152469Y-76199512D01*
X134130127Y-76157713D01*
X134072279Y-76049488D01*
X134040919Y-75946107D01*
X134022896Y-75886695D01*
X134014565Y-75802112D01*
X134010400Y-75759821D01*
X134010400Y-75370180D01*
X134022896Y-75243308D01*
X134022896Y-75243306D01*
X134072278Y-75080517D01*
X134072279Y-75080513D01*
X134152468Y-74930488D01*
X134260388Y-74798988D01*
X134391888Y-74691068D01*
X134541912Y-74610879D01*
X134584273Y-74598029D01*
X134704705Y-74561496D01*
X134817568Y-74550380D01*
X134873999Y-74544822D01*
X134874000Y-74544822D01*
X135043294Y-74561496D01*
X135043294Y-74561496D01*
G37*
G36*
X145203294Y-74561496D02*
X145323726Y-74598029D01*
X145366087Y-74610879D01*
X145516112Y-74691068D01*
X145647612Y-74798988D01*
X145755532Y-74930488D01*
X145835721Y-75080512D01*
X145848571Y-75122873D01*
X145885104Y-75243305D01*
X145885104Y-75243307D01*
X145897600Y-75370179D01*
X145897600Y-75759820D01*
X145897076Y-75765136D01*
X145885104Y-75886694D01*
X145853970Y-75989329D01*
X145835721Y-76049488D01*
X145755532Y-76199512D01*
X145647612Y-76331012D01*
X145516112Y-76438932D01*
X145366088Y-76519121D01*
X145338433Y-76527510D01*
X145203295Y-76568504D01*
X145090432Y-76579620D01*
X145034001Y-76585178D01*
X145034000Y-76585178D01*
X144864706Y-76568504D01*
X144729568Y-76527510D01*
X144701913Y-76519121D01*
X144551889Y-76438932D01*
X144461946Y-76365117D01*
X144420388Y-76331012D01*
X144312469Y-76199512D01*
X144290127Y-76157713D01*
X144232279Y-76049488D01*
X144200919Y-75946107D01*
X144182896Y-75886695D01*
X144174565Y-75802112D01*
X144170400Y-75759821D01*
X144170400Y-75370180D01*
X144182896Y-75243308D01*
X144182896Y-75243306D01*
X144232278Y-75080517D01*
X144232279Y-75080513D01*
X144312468Y-74930488D01*
X144420388Y-74798988D01*
X144551888Y-74691068D01*
X144701912Y-74610879D01*
X144744273Y-74598029D01*
X144864705Y-74561496D01*
X144977568Y-74550380D01*
X145033999Y-74544822D01*
X145034000Y-74544822D01*
X145203294Y-74561496D01*
X145203294Y-74561496D01*
G37*
G36*
X147743294Y-74561496D02*
X147863726Y-74598029D01*
X147906087Y-74610879D01*
X148056112Y-74691068D01*
X148187612Y-74798988D01*
X148295532Y-74930488D01*
X148375721Y-75080512D01*
X148388571Y-75122873D01*
X148425104Y-75243305D01*
X148425104Y-75243307D01*
X148437600Y-75370179D01*
X148437600Y-75759820D01*
X148437076Y-75765136D01*
X148425104Y-75886694D01*
X148393970Y-75989329D01*
X148375721Y-76049488D01*
X148295532Y-76199512D01*
X148187612Y-76331012D01*
X148056112Y-76438932D01*
X147906088Y-76519121D01*
X147878433Y-76527510D01*
X147743295Y-76568504D01*
X147630432Y-76579620D01*
X147574001Y-76585178D01*
X147574000Y-76585178D01*
X147404706Y-76568504D01*
X147269568Y-76527510D01*
X147241913Y-76519121D01*
X147091889Y-76438932D01*
X147001946Y-76365117D01*
X146960388Y-76331012D01*
X146852469Y-76199512D01*
X146830127Y-76157713D01*
X146772279Y-76049488D01*
X146740919Y-75946107D01*
X146722896Y-75886695D01*
X146714565Y-75802112D01*
X146710400Y-75759821D01*
X146710400Y-75370180D01*
X146722896Y-75243308D01*
X146722896Y-75243306D01*
X146772278Y-75080517D01*
X146772279Y-75080513D01*
X146852468Y-74930488D01*
X146960388Y-74798988D01*
X147091888Y-74691068D01*
X147241912Y-74610879D01*
X147284273Y-74598029D01*
X147404705Y-74561496D01*
X147517568Y-74550380D01*
X147573999Y-74544822D01*
X147574000Y-74544822D01*
X147743294Y-74561496D01*
X147743294Y-74561496D01*
G37*
G36*
X150283294Y-74561496D02*
X150403726Y-74598029D01*
X150446087Y-74610879D01*
X150596112Y-74691068D01*
X150727612Y-74798988D01*
X150835532Y-74930488D01*
X150915721Y-75080512D01*
X150928571Y-75122873D01*
X150965104Y-75243305D01*
X150965104Y-75243307D01*
X150977600Y-75370179D01*
X150977600Y-75759820D01*
X150977076Y-75765136D01*
X150965104Y-75886694D01*
X150933970Y-75989329D01*
X150915721Y-76049488D01*
X150835532Y-76199512D01*
X150727612Y-76331012D01*
X150596112Y-76438932D01*
X150446088Y-76519121D01*
X150418433Y-76527510D01*
X150283295Y-76568504D01*
X150170432Y-76579620D01*
X150114001Y-76585178D01*
X150114000Y-76585178D01*
X149944706Y-76568504D01*
X149809568Y-76527510D01*
X149781913Y-76519121D01*
X149631889Y-76438932D01*
X149541946Y-76365117D01*
X149500388Y-76331012D01*
X149392469Y-76199512D01*
X149370127Y-76157713D01*
X149312279Y-76049488D01*
X149280919Y-75946107D01*
X149262896Y-75886695D01*
X149254565Y-75802112D01*
X149250400Y-75759821D01*
X149250400Y-75370180D01*
X149262896Y-75243308D01*
X149262896Y-75243306D01*
X149312278Y-75080517D01*
X149312279Y-75080513D01*
X149392468Y-74930488D01*
X149500388Y-74798988D01*
X149631888Y-74691068D01*
X149781912Y-74610879D01*
X149824273Y-74598029D01*
X149944705Y-74561496D01*
X150057568Y-74550380D01*
X150113999Y-74544822D01*
X150114000Y-74544822D01*
X150283294Y-74561496D01*
X150283294Y-74561496D01*
G37*
G36*
X129963294Y-74561496D02*
X130083726Y-74598029D01*
X130126087Y-74610879D01*
X130276112Y-74691068D01*
X130407612Y-74798988D01*
X130515532Y-74930488D01*
X130595721Y-75080512D01*
X130608571Y-75122873D01*
X130645104Y-75243305D01*
X130645104Y-75243307D01*
X130657600Y-75370179D01*
X130657600Y-75759820D01*
X130657076Y-75765136D01*
X130645104Y-75886694D01*
X130613970Y-75989329D01*
X130595721Y-76049488D01*
X130515532Y-76199512D01*
X130407612Y-76331012D01*
X130276112Y-76438932D01*
X130126088Y-76519121D01*
X130098433Y-76527510D01*
X129963295Y-76568504D01*
X129850432Y-76579620D01*
X129794001Y-76585178D01*
X129794000Y-76585178D01*
X129624706Y-76568504D01*
X129489568Y-76527510D01*
X129461913Y-76519121D01*
X129311889Y-76438932D01*
X129221946Y-76365117D01*
X129180388Y-76331012D01*
X129072469Y-76199512D01*
X129050127Y-76157713D01*
X128992279Y-76049488D01*
X128960919Y-75946107D01*
X128942896Y-75886695D01*
X128934565Y-75802112D01*
X128930400Y-75759821D01*
X128930400Y-75370180D01*
X128942896Y-75243308D01*
X128942896Y-75243306D01*
X128992278Y-75080517D01*
X128992279Y-75080513D01*
X129072468Y-74930488D01*
X129180388Y-74798988D01*
X129311888Y-74691068D01*
X129461912Y-74610879D01*
X129504273Y-74598029D01*
X129624705Y-74561496D01*
X129737568Y-74550380D01*
X129793999Y-74544822D01*
X129794000Y-74544822D01*
X129963294Y-74561496D01*
X129963294Y-74561496D01*
G37*
G36*
X156887294Y-74561496D02*
X157007726Y-74598029D01*
X157050087Y-74610879D01*
X157200112Y-74691068D01*
X157331612Y-74798988D01*
X157439532Y-74930488D01*
X157519721Y-75080512D01*
X157532571Y-75122873D01*
X157569104Y-75243305D01*
X157569104Y-75243307D01*
X157581600Y-75370179D01*
X157581600Y-75759820D01*
X157581076Y-75765136D01*
X157569104Y-75886694D01*
X157537970Y-75989329D01*
X157519721Y-76049488D01*
X157439532Y-76199512D01*
X157331612Y-76331012D01*
X157200112Y-76438932D01*
X157050088Y-76519121D01*
X157022433Y-76527510D01*
X156887295Y-76568504D01*
X156774432Y-76579620D01*
X156718001Y-76585178D01*
X156718000Y-76585178D01*
X156548706Y-76568504D01*
X156413568Y-76527510D01*
X156385913Y-76519121D01*
X156235889Y-76438932D01*
X156145946Y-76365117D01*
X156104388Y-76331012D01*
X155996469Y-76199512D01*
X155974127Y-76157713D01*
X155916279Y-76049488D01*
X155884919Y-75946107D01*
X155866896Y-75886695D01*
X155858565Y-75802112D01*
X155854400Y-75759821D01*
X155854400Y-75370180D01*
X155866896Y-75243308D01*
X155866896Y-75243306D01*
X155916278Y-75080517D01*
X155916279Y-75080513D01*
X155996468Y-74930488D01*
X156104388Y-74798988D01*
X156235888Y-74691068D01*
X156385912Y-74610879D01*
X156428273Y-74598029D01*
X156548705Y-74561496D01*
X156661568Y-74550380D01*
X156717999Y-74544822D01*
X156718000Y-74544822D01*
X156887294Y-74561496D01*
X156887294Y-74561496D01*
G37*
G36*
X142663294Y-74561496D02*
X142783726Y-74598029D01*
X142826087Y-74610879D01*
X142976112Y-74691068D01*
X143107612Y-74798988D01*
X143215532Y-74930488D01*
X143295721Y-75080512D01*
X143308571Y-75122873D01*
X143345104Y-75243305D01*
X143345104Y-75243307D01*
X143357600Y-75370179D01*
X143357600Y-75759820D01*
X143357076Y-75765136D01*
X143345104Y-75886694D01*
X143313970Y-75989329D01*
X143295721Y-76049488D01*
X143215532Y-76199512D01*
X143107612Y-76331012D01*
X142976112Y-76438932D01*
X142826088Y-76519121D01*
X142798433Y-76527510D01*
X142663295Y-76568504D01*
X142550432Y-76579620D01*
X142494001Y-76585178D01*
X142494000Y-76585178D01*
X142324706Y-76568504D01*
X142189568Y-76527510D01*
X142161913Y-76519121D01*
X142011889Y-76438932D01*
X141921946Y-76365117D01*
X141880388Y-76331012D01*
X141772469Y-76199512D01*
X141750127Y-76157713D01*
X141692279Y-76049488D01*
X141660919Y-75946107D01*
X141642896Y-75886695D01*
X141634565Y-75802112D01*
X141630400Y-75759821D01*
X141630400Y-75370180D01*
X141642896Y-75243308D01*
X141642896Y-75243306D01*
X141692278Y-75080517D01*
X141692279Y-75080513D01*
X141772468Y-74930488D01*
X141880388Y-74798988D01*
X142011888Y-74691068D01*
X142161912Y-74610879D01*
X142204273Y-74598029D01*
X142324705Y-74561496D01*
X142437568Y-74550380D01*
X142493999Y-74544822D01*
X142494000Y-74544822D01*
X142663294Y-74561496D01*
X142663294Y-74561496D01*
G37*
M02*
