G04 #@! TF.GenerationSoftware,KiCad,Pcbnew,(5.0.0)*
G04 #@! TF.CreationDate,2019-03-29T10:36:41+00:00*
G04 #@! TF.ProjectId,MotorDriverV1_0,4D6F746F7244726976657256315F302E,rev?*
G04 #@! TF.SameCoordinates,Original*
G04 #@! TF.FileFunction,Copper,L2,Bot,Signal*
G04 #@! TF.FilePolarity,Positive*
%FSLAX46Y46*%
G04 Gerber Fmt 4.6, Leading zero omitted, Abs format (unit mm)*
G04 Created by KiCad (PCBNEW (5.0.0)) date 03/29/19 10:36:41*
%MOMM*%
%LPD*%
G01*
G04 APERTURE LIST*
G04 #@! TA.AperFunction,ComponentPad*
%ADD10O,1.727200X2.032000*%
G04 #@! TD*
G04 #@! TA.AperFunction,ComponentPad*
%ADD11C,4.064000*%
G04 #@! TD*
G04 #@! TA.AperFunction,Conductor*
%ADD12C,0.100000*%
G04 #@! TD*
G04 #@! TA.AperFunction,ComponentPad*
%ADD13C,2.000000*%
G04 #@! TD*
G04 #@! TA.AperFunction,ComponentPad*
%ADD14O,3.600000X2.000000*%
G04 #@! TD*
G04 #@! TA.AperFunction,ComponentPad*
%ADD15O,1.700000X1.700000*%
G04 #@! TD*
G04 #@! TA.AperFunction,ComponentPad*
%ADD16R,1.700000X1.700000*%
G04 #@! TD*
G04 #@! TA.AperFunction,ComponentPad*
%ADD17R,1.800000X1.800000*%
G04 #@! TD*
G04 #@! TA.AperFunction,ComponentPad*
%ADD18O,1.800000X1.800000*%
G04 #@! TD*
G04 #@! TA.AperFunction,ComponentPad*
%ADD19R,1.600000X1.600000*%
G04 #@! TD*
G04 #@! TA.AperFunction,ComponentPad*
%ADD20C,1.600000*%
G04 #@! TD*
G04 #@! TA.AperFunction,ComponentPad*
%ADD21C,1.400000*%
G04 #@! TD*
G04 #@! TA.AperFunction,ComponentPad*
%ADD22O,1.400000X1.400000*%
G04 #@! TD*
G04 #@! TA.AperFunction,ComponentPad*
%ADD23O,1.600000X1.600000*%
G04 #@! TD*
G04 #@! TA.AperFunction,ComponentPad*
%ADD24R,1.727200X1.727200*%
G04 #@! TD*
G04 #@! TA.AperFunction,ComponentPad*
%ADD25O,1.727200X1.727200*%
G04 #@! TD*
G04 #@! TA.AperFunction,ViaPad*
%ADD26C,0.600000*%
G04 #@! TD*
G04 #@! TA.AperFunction,Conductor*
%ADD27C,0.250000*%
G04 #@! TD*
G04 APERTURE END LIST*
D10*
G04 #@! TO.P,P1,1*
G04 #@! TO.N,N/C*
X138938000Y-123825000D03*
G04 #@! TO.P,P1,2*
X141478000Y-123825000D03*
G04 #@! TO.P,P1,3*
X144018000Y-123825000D03*
G04 #@! TO.P,P1,4*
X146558000Y-123825000D03*
G04 #@! TO.P,P1,5*
G04 #@! TO.N,+5V*
X149098000Y-123825000D03*
G04 #@! TO.P,P1,6*
G04 #@! TO.N,GND*
X151638000Y-123825000D03*
G04 #@! TO.P,P1,7*
X154178000Y-123825000D03*
G04 #@! TO.P,P1,8*
G04 #@! TO.N,/Vin*
X156718000Y-123825000D03*
G04 #@! TD*
G04 #@! TO.P,P2,1*
G04 #@! TO.N,/A0*
X161798000Y-123825000D03*
G04 #@! TO.P,P2,2*
G04 #@! TO.N,/A1*
X164338000Y-123825000D03*
G04 #@! TO.P,P2,3*
G04 #@! TO.N,N/C*
X166878000Y-123825000D03*
G04 #@! TO.P,P2,4*
X169418000Y-123825000D03*
G04 #@! TO.P,P2,5*
X171958000Y-123825000D03*
G04 #@! TO.P,P2,6*
X174498000Y-123825000D03*
G04 #@! TD*
G04 #@! TO.P,P3,1*
G04 #@! TO.N,N/C*
X129794000Y-75565000D03*
G04 #@! TO.P,P3,2*
X132334000Y-75565000D03*
G04 #@! TO.P,P3,3*
X134874000Y-75565000D03*
G04 #@! TO.P,P3,4*
G04 #@! TO.N,GND*
X137414000Y-75565000D03*
G04 #@! TO.P,P3,5*
G04 #@! TO.N,N/C*
X139954000Y-75565000D03*
G04 #@! TO.P,P3,6*
X142494000Y-75565000D03*
G04 #@! TO.P,P3,7*
X145034000Y-75565000D03*
G04 #@! TO.P,P3,8*
X147574000Y-75565000D03*
G04 #@! TO.P,P3,9*
G04 #@! TO.N,/9(\002A\002A)*
X150114000Y-75565000D03*
G04 #@! TO.P,P3,10*
G04 #@! TO.N,/8*
X152654000Y-75565000D03*
G04 #@! TD*
G04 #@! TO.P,P4,1*
G04 #@! TO.N,/7*
X156718000Y-75565000D03*
G04 #@! TO.P,P4,2*
G04 #@! TO.N,/6(\002A\002A)*
X159258000Y-75565000D03*
G04 #@! TO.P,P4,3*
G04 #@! TO.N,/5(\002A\002A)*
X161798000Y-75565000D03*
G04 #@! TO.P,P4,4*
G04 #@! TO.N,/4*
X164338000Y-75565000D03*
G04 #@! TO.P,P4,5*
G04 #@! TO.N,/3(\002A\002A)*
X166878000Y-75565000D03*
G04 #@! TO.P,P4,6*
G04 #@! TO.N,/2*
X169418000Y-75565000D03*
G04 #@! TO.P,P4,7*
G04 #@! TO.N,N/C*
X171958000Y-75565000D03*
G04 #@! TO.P,P4,8*
X174498000Y-75565000D03*
G04 #@! TD*
D11*
G04 #@! TO.P,P5,1*
G04 #@! TO.N,N/C*
X124968000Y-123825000D03*
G04 #@! TD*
G04 #@! TO.P,P6,1*
G04 #@! TO.N,N/C*
X177038000Y-118745000D03*
G04 #@! TD*
G04 #@! TO.P,P7,1*
G04 #@! TO.N,N/C*
X126238000Y-75565000D03*
G04 #@! TD*
G04 #@! TO.P,P8,1*
G04 #@! TO.N,N/C*
X177038000Y-90805000D03*
G04 #@! TD*
D12*
G04 #@! TO.N,GND*
G04 #@! TO.C,J1*
G36*
X117652504Y-88536204D02*
X117676773Y-88539804D01*
X117700571Y-88545765D01*
X117723671Y-88554030D01*
X117745849Y-88564520D01*
X117766893Y-88577133D01*
X117786598Y-88591747D01*
X117804777Y-88608223D01*
X117821253Y-88626402D01*
X117835867Y-88646107D01*
X117848480Y-88667151D01*
X117858970Y-88689329D01*
X117867235Y-88712429D01*
X117873196Y-88736227D01*
X117876796Y-88760496D01*
X117878000Y-88785000D01*
X117878000Y-90285000D01*
X117876796Y-90309504D01*
X117873196Y-90333773D01*
X117867235Y-90357571D01*
X117858970Y-90380671D01*
X117848480Y-90402849D01*
X117835867Y-90423893D01*
X117821253Y-90443598D01*
X117804777Y-90461777D01*
X117786598Y-90478253D01*
X117766893Y-90492867D01*
X117745849Y-90505480D01*
X117723671Y-90515970D01*
X117700571Y-90524235D01*
X117676773Y-90530196D01*
X117652504Y-90533796D01*
X117628000Y-90535000D01*
X114528000Y-90535000D01*
X114503496Y-90533796D01*
X114479227Y-90530196D01*
X114455429Y-90524235D01*
X114432329Y-90515970D01*
X114410151Y-90505480D01*
X114389107Y-90492867D01*
X114369402Y-90478253D01*
X114351223Y-90461777D01*
X114334747Y-90443598D01*
X114320133Y-90423893D01*
X114307520Y-90402849D01*
X114297030Y-90380671D01*
X114288765Y-90357571D01*
X114282804Y-90333773D01*
X114279204Y-90309504D01*
X114278000Y-90285000D01*
X114278000Y-88785000D01*
X114279204Y-88760496D01*
X114282804Y-88736227D01*
X114288765Y-88712429D01*
X114297030Y-88689329D01*
X114307520Y-88667151D01*
X114320133Y-88646107D01*
X114334747Y-88626402D01*
X114351223Y-88608223D01*
X114369402Y-88591747D01*
X114389107Y-88577133D01*
X114410151Y-88564520D01*
X114432329Y-88554030D01*
X114455429Y-88545765D01*
X114479227Y-88539804D01*
X114503496Y-88536204D01*
X114528000Y-88535000D01*
X117628000Y-88535000D01*
X117652504Y-88536204D01*
X117652504Y-88536204D01*
G37*
D13*
G04 #@! TD*
G04 #@! TO.P,J1,1*
G04 #@! TO.N,GND*
X116078000Y-89535000D03*
D14*
G04 #@! TO.P,J1,2*
G04 #@! TO.N,/Vs*
X116078000Y-94535000D03*
G04 #@! TD*
D15*
G04 #@! TO.P,J2,2*
G04 #@! TO.N,Net-(C2-Pad1)*
X119888000Y-108585000D03*
D16*
G04 #@! TO.P,J2,1*
G04 #@! TO.N,/Vs*
X119888000Y-106045000D03*
G04 #@! TD*
D15*
G04 #@! TO.P,J3,2*
G04 #@! TO.N,/BR1*
X178308000Y-98425000D03*
D16*
G04 #@! TO.P,J3,1*
G04 #@! TO.N,GND*
X178308000Y-100965000D03*
G04 #@! TD*
G04 #@! TO.P,J4,1*
G04 #@! TO.N,GND*
X155448000Y-84455000D03*
D15*
G04 #@! TO.P,J4,2*
G04 #@! TO.N,/BR2*
X155448000Y-86995000D03*
G04 #@! TD*
D12*
G04 #@! TO.N,Net-(C5-Pad1)*
G04 #@! TO.C,J5*
G36*
X117652504Y-116476204D02*
X117676773Y-116479804D01*
X117700571Y-116485765D01*
X117723671Y-116494030D01*
X117745849Y-116504520D01*
X117766893Y-116517133D01*
X117786598Y-116531747D01*
X117804777Y-116548223D01*
X117821253Y-116566402D01*
X117835867Y-116586107D01*
X117848480Y-116607151D01*
X117858970Y-116629329D01*
X117867235Y-116652429D01*
X117873196Y-116676227D01*
X117876796Y-116700496D01*
X117878000Y-116725000D01*
X117878000Y-118225000D01*
X117876796Y-118249504D01*
X117873196Y-118273773D01*
X117867235Y-118297571D01*
X117858970Y-118320671D01*
X117848480Y-118342849D01*
X117835867Y-118363893D01*
X117821253Y-118383598D01*
X117804777Y-118401777D01*
X117786598Y-118418253D01*
X117766893Y-118432867D01*
X117745849Y-118445480D01*
X117723671Y-118455970D01*
X117700571Y-118464235D01*
X117676773Y-118470196D01*
X117652504Y-118473796D01*
X117628000Y-118475000D01*
X114528000Y-118475000D01*
X114503496Y-118473796D01*
X114479227Y-118470196D01*
X114455429Y-118464235D01*
X114432329Y-118455970D01*
X114410151Y-118445480D01*
X114389107Y-118432867D01*
X114369402Y-118418253D01*
X114351223Y-118401777D01*
X114334747Y-118383598D01*
X114320133Y-118363893D01*
X114307520Y-118342849D01*
X114297030Y-118320671D01*
X114288765Y-118297571D01*
X114282804Y-118273773D01*
X114279204Y-118249504D01*
X114278000Y-118225000D01*
X114278000Y-116725000D01*
X114279204Y-116700496D01*
X114282804Y-116676227D01*
X114288765Y-116652429D01*
X114297030Y-116629329D01*
X114307520Y-116607151D01*
X114320133Y-116586107D01*
X114334747Y-116566402D01*
X114351223Y-116548223D01*
X114369402Y-116531747D01*
X114389107Y-116517133D01*
X114410151Y-116504520D01*
X114432329Y-116494030D01*
X114455429Y-116485765D01*
X114479227Y-116479804D01*
X114503496Y-116476204D01*
X114528000Y-116475000D01*
X117628000Y-116475000D01*
X117652504Y-116476204D01*
X117652504Y-116476204D01*
G37*
D13*
G04 #@! TD*
G04 #@! TO.P,J5,1*
G04 #@! TO.N,Net-(C5-Pad1)*
X116078000Y-117475000D03*
D14*
G04 #@! TO.P,J5,2*
G04 #@! TO.N,Net-(C6-Pad2)*
X116078000Y-122475000D03*
G04 #@! TD*
G04 #@! TO.P,J6,2*
G04 #@! TO.N,Net-(C8-Pad2)*
X116078000Y-81835000D03*
D12*
G04 #@! TD*
G04 #@! TO.N,Net-(C7-Pad1)*
G04 #@! TO.C,J6*
G36*
X117652504Y-75836204D02*
X117676773Y-75839804D01*
X117700571Y-75845765D01*
X117723671Y-75854030D01*
X117745849Y-75864520D01*
X117766893Y-75877133D01*
X117786598Y-75891747D01*
X117804777Y-75908223D01*
X117821253Y-75926402D01*
X117835867Y-75946107D01*
X117848480Y-75967151D01*
X117858970Y-75989329D01*
X117867235Y-76012429D01*
X117873196Y-76036227D01*
X117876796Y-76060496D01*
X117878000Y-76085000D01*
X117878000Y-77585000D01*
X117876796Y-77609504D01*
X117873196Y-77633773D01*
X117867235Y-77657571D01*
X117858970Y-77680671D01*
X117848480Y-77702849D01*
X117835867Y-77723893D01*
X117821253Y-77743598D01*
X117804777Y-77761777D01*
X117786598Y-77778253D01*
X117766893Y-77792867D01*
X117745849Y-77805480D01*
X117723671Y-77815970D01*
X117700571Y-77824235D01*
X117676773Y-77830196D01*
X117652504Y-77833796D01*
X117628000Y-77835000D01*
X114528000Y-77835000D01*
X114503496Y-77833796D01*
X114479227Y-77830196D01*
X114455429Y-77824235D01*
X114432329Y-77815970D01*
X114410151Y-77805480D01*
X114389107Y-77792867D01*
X114369402Y-77778253D01*
X114351223Y-77761777D01*
X114334747Y-77743598D01*
X114320133Y-77723893D01*
X114307520Y-77702849D01*
X114297030Y-77680671D01*
X114288765Y-77657571D01*
X114282804Y-77633773D01*
X114279204Y-77609504D01*
X114278000Y-77585000D01*
X114278000Y-76085000D01*
X114279204Y-76060496D01*
X114282804Y-76036227D01*
X114288765Y-76012429D01*
X114297030Y-75989329D01*
X114307520Y-75967151D01*
X114320133Y-75946107D01*
X114334747Y-75926402D01*
X114351223Y-75908223D01*
X114369402Y-75891747D01*
X114389107Y-75877133D01*
X114410151Y-75864520D01*
X114432329Y-75854030D01*
X114455429Y-75845765D01*
X114479227Y-75839804D01*
X114503496Y-75836204D01*
X114528000Y-75835000D01*
X117628000Y-75835000D01*
X117652504Y-75836204D01*
X117652504Y-75836204D01*
G37*
D13*
G04 #@! TO.P,J6,1*
G04 #@! TO.N,Net-(C7-Pad1)*
X116078000Y-76835000D03*
G04 #@! TD*
D17*
G04 #@! TO.P,U3,1*
G04 #@! TO.N,Net-(C5-Pad2)*
X170688000Y-111125000D03*
D18*
G04 #@! TO.P,U3,2*
G04 #@! TO.N,Net-(C5-Pad1)*
X168988000Y-116205000D03*
G04 #@! TO.P,U3,3*
G04 #@! TO.N,/2*
X167288000Y-111125000D03*
G04 #@! TO.P,U3,4*
G04 #@! TO.N,/BR1*
X165588000Y-116205000D03*
G04 #@! TO.P,U3,5*
G04 #@! TO.N,/3(\002A\002A)*
X163888000Y-111125000D03*
G04 #@! TO.P,U3,6*
G04 #@! TO.N,/Vs*
X162188000Y-116205000D03*
G04 #@! TO.P,U3,7*
G04 #@! TO.N,GND*
X160488000Y-111125000D03*
G04 #@! TO.P,U3,8*
G04 #@! TO.N,/CSEN1*
X158788000Y-116205000D03*
G04 #@! TO.P,U3,9*
G04 #@! TO.N,/TF1*
X157088000Y-111125000D03*
G04 #@! TO.P,U3,10*
G04 #@! TO.N,Net-(C6-Pad2)*
X155388000Y-116205000D03*
G04 #@! TO.P,U3,11*
G04 #@! TO.N,Net-(C6-Pad1)*
X153688000Y-111125000D03*
G04 #@! TD*
G04 #@! TO.P,U4,11*
G04 #@! TO.N,Net-(C8-Pad1)*
X147048000Y-86995000D03*
G04 #@! TO.P,U4,10*
G04 #@! TO.N,Net-(C8-Pad2)*
X145348000Y-81915000D03*
G04 #@! TO.P,U4,9*
G04 #@! TO.N,/TF2*
X143648000Y-86995000D03*
G04 #@! TO.P,U4,8*
G04 #@! TO.N,/CSEN2*
X141948000Y-81915000D03*
G04 #@! TO.P,U4,7*
G04 #@! TO.N,GND*
X140248000Y-86995000D03*
G04 #@! TO.P,U4,6*
G04 #@! TO.N,/Vs*
X138548000Y-81915000D03*
G04 #@! TO.P,U4,5*
G04 #@! TO.N,/5(\002A\002A)*
X136848000Y-86995000D03*
G04 #@! TO.P,U4,4*
G04 #@! TO.N,/BR2*
X135148000Y-81915000D03*
G04 #@! TO.P,U4,3*
G04 #@! TO.N,/4*
X133448000Y-86995000D03*
G04 #@! TO.P,U4,2*
G04 #@! TO.N,Net-(C7-Pad1)*
X131748000Y-81915000D03*
D17*
G04 #@! TO.P,U4,1*
G04 #@! TO.N,Net-(C7-Pad2)*
X130048000Y-86995000D03*
G04 #@! TD*
D19*
G04 #@! TO.P,C1,1*
G04 #@! TO.N,/Vs*
X122428000Y-94615000D03*
D20*
G04 #@! TO.P,C1,2*
G04 #@! TO.N,GND*
X122428000Y-97115000D03*
G04 #@! TD*
D21*
G04 #@! TO.P,C2,1*
G04 #@! TO.N,Net-(C2-Pad1)*
X117348000Y-108585000D03*
D22*
G04 #@! TO.P,C2,2*
G04 #@! TO.N,GND*
X117348000Y-103505000D03*
G04 #@! TD*
D19*
G04 #@! TO.P,C3,1*
G04 #@! TO.N,/Vs*
X122428000Y-89535000D03*
D20*
G04 #@! TO.P,C3,2*
G04 #@! TO.N,GND*
X122428000Y-87035000D03*
G04 #@! TD*
D22*
G04 #@! TO.P,C4,2*
G04 #@! TO.N,GND*
X114808000Y-103505000D03*
D21*
G04 #@! TO.P,C4,1*
G04 #@! TO.N,/Vin*
X114808000Y-108585000D03*
G04 #@! TD*
D22*
G04 #@! TO.P,C5,2*
G04 #@! TO.N,Net-(C5-Pad2)*
X174498000Y-111125000D03*
D21*
G04 #@! TO.P,C5,1*
G04 #@! TO.N,Net-(C5-Pad1)*
X174498000Y-116205000D03*
G04 #@! TD*
G04 #@! TO.P,C6,1*
G04 #@! TO.N,Net-(C6-Pad1)*
X150368000Y-111125000D03*
D22*
G04 #@! TO.P,C6,2*
G04 #@! TO.N,Net-(C6-Pad2)*
X150368000Y-116205000D03*
G04 #@! TD*
G04 #@! TO.P,C7,2*
G04 #@! TO.N,Net-(C7-Pad2)*
X127508000Y-86995000D03*
D21*
G04 #@! TO.P,C7,1*
G04 #@! TO.N,Net-(C7-Pad1)*
X127508000Y-81915000D03*
G04 #@! TD*
G04 #@! TO.P,C8,1*
G04 #@! TO.N,Net-(C8-Pad1)*
X150368000Y-86995000D03*
D22*
G04 #@! TO.P,C8,2*
G04 #@! TO.N,Net-(C8-Pad2)*
X150368000Y-81915000D03*
G04 #@! TD*
D16*
G04 #@! TO.P,D5,1*
G04 #@! TO.N,Net-(D5-Pad1)*
X112268000Y-104775000D03*
D15*
G04 #@! TO.P,D5,2*
G04 #@! TO.N,/Vin*
X112268000Y-107315000D03*
G04 #@! TD*
D20*
G04 #@! TO.P,R5,1*
G04 #@! TO.N,/CSEN1*
X178308000Y-114935000D03*
D23*
G04 #@! TO.P,R5,2*
G04 #@! TO.N,GND*
X178308000Y-104775000D03*
G04 #@! TD*
G04 #@! TO.P,R6,2*
G04 #@! TO.N,GND*
X157988000Y-78105000D03*
D20*
G04 #@! TO.P,R6,1*
G04 #@! TO.N,/CSEN2*
X147828000Y-78105000D03*
G04 #@! TD*
G04 #@! TO.P,R7,1*
G04 #@! TO.N,Net-(D5-Pad1)*
X112268000Y-100965000D03*
D23*
G04 #@! TO.P,R7,2*
G04 #@! TO.N,GND*
X122428000Y-100965000D03*
G04 #@! TD*
D16*
G04 #@! TO.P,U2,1*
G04 #@! TO.N,Net-(C2-Pad1)*
X117348000Y-111125000D03*
D15*
G04 #@! TO.P,U2,2*
G04 #@! TO.N,GND*
X114808000Y-111125000D03*
G04 #@! TO.P,U2,3*
G04 #@! TO.N,/Vin*
X112268000Y-111125000D03*
G04 #@! TD*
D16*
G04 #@! TO.P,J13,1*
G04 #@! TO.N,/9(\002A\002A)*
X141478000Y-109855000D03*
G04 #@! TD*
G04 #@! TO.P,J7,1*
G04 #@! TO.N,/7*
X128778000Y-117475000D03*
G04 #@! TD*
G04 #@! TO.P,J8,1*
G04 #@! TO.N,/A0*
X131318000Y-117475000D03*
G04 #@! TD*
G04 #@! TO.P,J9,1*
G04 #@! TO.N,/6(\002A\002A)*
X133858000Y-117475000D03*
G04 #@! TD*
G04 #@! TO.P,J11,1*
G04 #@! TO.N,/8*
X136398000Y-109855000D03*
G04 #@! TD*
G04 #@! TO.P,J12,1*
G04 #@! TO.N,/A1*
X138938000Y-109855000D03*
G04 #@! TD*
D24*
G04 #@! TO.P,J10,1*
G04 #@! TO.N,/TF1*
X128778000Y-114935000D03*
D25*
G04 #@! TO.P,J10,2*
G04 #@! TO.N,GND*
X128778000Y-112395000D03*
G04 #@! TO.P,J10,3*
G04 #@! TO.N,/CSEN1*
X131318000Y-114935000D03*
G04 #@! TO.P,J10,4*
G04 #@! TO.N,/5(\002A\002A)*
X131318000Y-112395000D03*
G04 #@! TO.P,J10,5*
G04 #@! TO.N,/BR1*
X133858000Y-114935000D03*
G04 #@! TO.P,J10,6*
G04 #@! TO.N,/4*
X133858000Y-112395000D03*
G04 #@! TO.P,J10,7*
G04 #@! TO.N,/2*
X136398000Y-114935000D03*
G04 #@! TO.P,J10,8*
G04 #@! TO.N,/BR2*
X136398000Y-112395000D03*
G04 #@! TO.P,J10,9*
G04 #@! TO.N,/3(\002A\002A)*
X138938000Y-114935000D03*
G04 #@! TO.P,J10,10*
G04 #@! TO.N,/CSEN2*
X138938000Y-112395000D03*
G04 #@! TO.P,J10,11*
G04 #@! TO.N,GND*
X141478000Y-114935000D03*
G04 #@! TO.P,J10,12*
G04 #@! TO.N,/TF2*
X141478000Y-112395000D03*
G04 #@! TD*
D26*
G04 #@! TO.N,+5V*
X161798000Y-81915000D03*
X131318000Y-94615000D03*
X155448000Y-94615000D03*
G04 #@! TO.N,GND*
X155448000Y-122555000D03*
X156678000Y-114935000D03*
X147828000Y-85725000D03*
X152908000Y-83185000D03*
X168148000Y-86995000D03*
X168148000Y-89535000D03*
G04 #@! TO.N,/Vin*
X118618000Y-113665000D03*
X128778000Y-122555000D03*
G04 #@! TO.N,/7*
X145288000Y-99695000D03*
X124968000Y-107315000D03*
G04 #@! TO.N,/6(\002A\002A)*
X146558000Y-100965000D03*
X126238000Y-107315000D03*
X126238000Y-113665000D03*
G04 #@! TO.N,/5(\002A\002A)*
X136398000Y-103505000D03*
X159258000Y-84455000D03*
X152908000Y-90805000D03*
X136848000Y-92075000D03*
G04 #@! TO.N,/4*
X133858000Y-93345000D03*
X154178000Y-92075000D03*
X161798000Y-84455000D03*
G04 #@! TO.N,/3(\002A\002A)*
X156967443Y-113415557D03*
X163068000Y-79375000D03*
X163068000Y-81915000D03*
X163068000Y-107315000D03*
G04 #@! TO.N,/2*
X154178000Y-108585000D03*
X161798000Y-79234998D03*
G04 #@! TO.N,/Vs*
X124968000Y-95865000D03*
X124968000Y-98425000D03*
G04 #@! TO.N,/BR1*
X147828000Y-116205000D03*
X163068000Y-118745000D03*
X155448000Y-118745000D03*
G04 #@! TO.N,/BR2*
X148451539Y-85054877D03*
X151638000Y-83185000D03*
X137688000Y-84455000D03*
G04 #@! TO.N,/CSEN1*
X152908000Y-120015000D03*
G04 #@! TO.N,/CSEN2*
X143764115Y-82098882D03*
G04 #@! TO.N,Net-(D1-Pad2)*
X168148000Y-80645000D03*
X173228000Y-80645000D03*
G04 #@! TO.N,Net-(D4-Pad2)*
X168148000Y-85725000D03*
X173228000Y-85725000D03*
G04 #@! TD*
D27*
G04 #@! TO.N,+5V*
X161798000Y-81915000D02*
X162423001Y-82540001D01*
X149098000Y-123672600D02*
X149098000Y-123825000D01*
X147909390Y-122483990D02*
X149098000Y-123672600D01*
X136326990Y-122483990D02*
X147909390Y-122483990D01*
X132682999Y-118839999D02*
X136326990Y-122483990D01*
X131318000Y-94615000D02*
X130048000Y-95885000D01*
X130048000Y-95885000D02*
X130048000Y-115424130D01*
X130048000Y-115424130D02*
X130923869Y-116299999D01*
X130923869Y-116299999D02*
X132428001Y-116299999D01*
X132428001Y-116299999D02*
X132682999Y-116554997D01*
X132682999Y-116554997D02*
X132682999Y-118839999D01*
X158613001Y-94615000D02*
X162423001Y-90805000D01*
X155448000Y-94615000D02*
X158613001Y-94615000D01*
X162423001Y-82540001D02*
X162423001Y-90805000D01*
G04 #@! TO.N,GND*
X155448000Y-122555000D02*
X156678000Y-121325000D01*
X156678000Y-121325000D02*
X156678000Y-114935000D01*
X147828000Y-85725000D02*
X150368000Y-85725000D01*
X150368000Y-85725000D02*
X152908000Y-83185000D01*
X168148000Y-86995000D02*
X168148000Y-89535000D01*
G04 #@! TO.N,/Vin*
X118618000Y-113665000D02*
X119888000Y-113665000D01*
X119888000Y-113665000D02*
X128778000Y-122555000D01*
G04 #@! TO.N,/A0*
X160684400Y-123825000D02*
X161798000Y-123825000D01*
X159343390Y-125166010D02*
X160684400Y-123825000D01*
X137909010Y-125166010D02*
X159343390Y-125166010D01*
X131318000Y-118575000D02*
X137909010Y-125166010D01*
X131318000Y-117475000D02*
X131318000Y-118575000D01*
G04 #@! TO.N,/A1*
X164338000Y-123672600D02*
X164338000Y-123825000D01*
X157303001Y-116637601D02*
X164338000Y-123672600D01*
X157303001Y-114634999D02*
X157303001Y-116637601D01*
X156414401Y-113746399D02*
X157303001Y-114634999D01*
X138530269Y-113746399D02*
X156414401Y-113746399D01*
X137749399Y-112965529D02*
X138530269Y-113746399D01*
X137749399Y-109943601D02*
X137749399Y-112965529D01*
X137838000Y-109855000D02*
X137749399Y-109943601D01*
X138938000Y-109855000D02*
X137838000Y-109855000D01*
G04 #@! TO.N,/9(\002A\002A)*
X150114000Y-76831000D02*
X150114000Y-75565000D01*
X150114000Y-78962002D02*
X150114000Y-76831000D01*
X143306003Y-85769999D02*
X150114000Y-78962002D01*
X143059999Y-85769999D02*
X143306003Y-85769999D01*
X142422999Y-86406999D02*
X143059999Y-85769999D01*
X142422999Y-107810001D02*
X142422999Y-86406999D01*
X141478000Y-108755000D02*
X142422999Y-107810001D01*
X141478000Y-109855000D02*
X141478000Y-108755000D01*
G04 #@! TO.N,/8*
X152654000Y-75412600D02*
X152654000Y-75565000D01*
X151465390Y-74223990D02*
X152654000Y-75412600D01*
X149621662Y-74223990D02*
X151465390Y-74223990D01*
X148925390Y-74920262D02*
X149621662Y-74223990D01*
X148925390Y-76209738D02*
X148925390Y-74920262D01*
X148229118Y-76906010D02*
X148925390Y-76209738D01*
X145143988Y-76906010D02*
X148229118Y-76906010D01*
X140722999Y-81326999D02*
X145143988Y-76906010D01*
X140722999Y-82503001D02*
X140722999Y-81326999D01*
X139022999Y-84203001D02*
X140722999Y-82503001D01*
X139022999Y-107230001D02*
X139022999Y-84203001D01*
X136398000Y-109855000D02*
X139022999Y-107230001D01*
G04 #@! TO.N,/7*
X153533001Y-80015999D02*
X153533001Y-85347001D01*
X156718000Y-75565000D02*
X156718000Y-76831000D01*
X156718000Y-76831000D02*
X153533001Y-80015999D01*
X153533001Y-85347001D02*
X145288000Y-93592002D01*
X145288000Y-93592002D02*
X145288000Y-99695000D01*
X127508000Y-117475000D02*
X128778000Y-117475000D01*
X124968000Y-107315000D02*
X124968000Y-114935000D01*
X124968000Y-114935000D02*
X127508000Y-117475000D01*
G04 #@! TO.N,/6(\002A\002A)*
X157521988Y-76906010D02*
X154178000Y-80249998D01*
X158069390Y-76906010D02*
X157521988Y-76906010D01*
X159258000Y-75565000D02*
X159258000Y-75717400D01*
X159258000Y-75717400D02*
X158069390Y-76906010D01*
X154178000Y-88609998D02*
X146558000Y-96229998D01*
X154178000Y-80249998D02*
X154178000Y-88609998D01*
X146558000Y-96229998D02*
X146558000Y-100965000D01*
X126238000Y-107315000D02*
X126238000Y-113665000D01*
G04 #@! TO.N,/5(\002A\002A)*
X136398000Y-103505000D02*
X136848000Y-103055000D01*
X153332264Y-90805000D02*
X152908000Y-90805000D01*
X159258000Y-84455000D02*
X159258000Y-84879264D01*
X159258000Y-84879264D02*
X153332264Y-90805000D01*
X136848000Y-103055000D02*
X136848000Y-92075000D01*
X136848000Y-92075000D02*
X136848000Y-86995000D01*
X161798000Y-75717400D02*
X161798000Y-75565000D01*
X160684400Y-76831000D02*
X161798000Y-75717400D01*
X160532000Y-76831000D02*
X160684400Y-76831000D01*
X159258000Y-78105000D02*
X160532000Y-76831000D01*
X159258000Y-84455000D02*
X159258000Y-78105000D01*
G04 #@! TO.N,/4*
X133858000Y-87405000D02*
X133448000Y-86995000D01*
X133858000Y-93345000D02*
X133858000Y-87405000D01*
X133858000Y-112395000D02*
X133858000Y-93345000D01*
X154178000Y-92075000D02*
X156718000Y-89535000D01*
X156718000Y-89535000D02*
X161798000Y-84455000D01*
X164338000Y-75717400D02*
X164338000Y-75565000D01*
X161172999Y-78882401D02*
X164338000Y-75717400D01*
X161172999Y-83829999D02*
X161172999Y-78882401D01*
X161798000Y-84455000D02*
X161172999Y-83829999D01*
G04 #@! TO.N,/3(\002A\002A)*
X161597443Y-113415557D02*
X163888000Y-111125000D01*
X156967443Y-113415557D02*
X161597443Y-113415557D01*
X163068000Y-79375000D02*
X166878000Y-75565000D01*
X163068000Y-81915000D02*
X163068000Y-107315000D01*
G04 #@! TO.N,/2*
X164748000Y-108585000D02*
X167288000Y-111125000D01*
X169418000Y-75412600D02*
X169418000Y-75565000D01*
X168229390Y-74223990D02*
X169418000Y-75412600D01*
X165679010Y-74223990D02*
X168229390Y-74223990D01*
X165608000Y-74295000D02*
X165679010Y-74223990D01*
X165608000Y-76128348D02*
X165608000Y-74295000D01*
X162986349Y-78749999D02*
X165608000Y-76128348D01*
X162282999Y-78749999D02*
X162986349Y-78749999D01*
X161798000Y-79234998D02*
X162282999Y-78749999D01*
X164338000Y-81774998D02*
X164338000Y-108585000D01*
X161798000Y-79234998D02*
X164338000Y-81774998D01*
X154178000Y-108585000D02*
X164338000Y-108585000D01*
X164338000Y-108585000D02*
X164748000Y-108585000D01*
G04 #@! TO.N,/Vs*
X124968000Y-95865000D02*
X124968000Y-98425000D01*
G04 #@! TO.N,/BR1*
X147828000Y-116205000D02*
X149226442Y-117603442D01*
X165588000Y-116225000D02*
X165588000Y-116205000D01*
X163068000Y-118745000D02*
X165588000Y-116225000D01*
X149226442Y-117603442D02*
X150368000Y-118745000D01*
X150368000Y-118745000D02*
X155448000Y-118745000D01*
X177458001Y-99274999D02*
X178308000Y-98425000D01*
X168513001Y-108219999D02*
X177458001Y-99274999D01*
X168513001Y-113279999D02*
X168513001Y-108219999D01*
X165588000Y-116205000D02*
X168513001Y-113279999D01*
G04 #@! TO.N,/BR2*
X148451539Y-85054877D02*
X149768123Y-85054877D01*
X149768123Y-85054877D02*
X151638000Y-83185000D01*
X136398000Y-112395000D02*
X135128000Y-111125000D01*
X137574998Y-84455000D02*
X137688000Y-84455000D01*
X135128000Y-86901998D02*
X137574998Y-84455000D01*
X135128000Y-111125000D02*
X135128000Y-86901998D01*
G04 #@! TO.N,/CSEN1*
X132181599Y-114071401D02*
X131318000Y-114935000D01*
X152908000Y-120015000D02*
X139556072Y-120015000D01*
X139556072Y-120015000D02*
X135128000Y-115586928D01*
X135128000Y-115586928D02*
X135128000Y-114445870D01*
X135128000Y-114445870D02*
X134428529Y-113746399D01*
X134428529Y-113746399D02*
X132506601Y-113746399D01*
X132506601Y-113746399D02*
X132181599Y-114071401D01*
G04 #@! TO.N,/CSEN2*
X146696630Y-78105000D02*
X147828000Y-78105000D01*
X143764115Y-81037515D02*
X146696630Y-78105000D01*
X143764115Y-82098882D02*
X143764115Y-81037515D01*
X141948000Y-83187792D02*
X141948000Y-81915000D01*
X141948000Y-87108002D02*
X141948000Y-83187792D01*
X140208000Y-88848002D02*
X141948000Y-87108002D01*
X140208000Y-111125000D02*
X140208000Y-88848002D01*
X138938000Y-112395000D02*
X140208000Y-111125000D01*
G04 #@! TO.N,/TF2*
X143648000Y-110225000D02*
X143648000Y-86995000D01*
X141478000Y-112395000D02*
X143648000Y-110225000D01*
G04 #@! TO.N,Net-(D1-Pad2)*
X168148000Y-80645000D02*
X173228000Y-80645000D01*
G04 #@! TO.N,Net-(D4-Pad2)*
X168148000Y-85725000D02*
X173228000Y-85725000D01*
G04 #@! TD*
M02*
