G04 #@! TF.GenerationSoftware,KiCad,Pcbnew,(5.0.0)*
G04 #@! TF.CreationDate,2019-03-29T10:36:41+00:00*
G04 #@! TF.ProjectId,MotorDriverV1_0,4D6F746F7244726976657256315F302E,rev?*
G04 #@! TF.SameCoordinates,Original*
G04 #@! TF.FileFunction,Legend,Top*
G04 #@! TF.FilePolarity,Positive*
%FSLAX46Y46*%
G04 Gerber Fmt 4.6, Leading zero omitted, Abs format (unit mm)*
G04 Created by KiCad (PCBNEW (5.0.0)) date 03/29/19 10:36:41*
%MOMM*%
%LPD*%
G01*
G04 APERTURE LIST*
%ADD10C,0.150000*%
%ADD11C,0.120000*%
G04 APERTURE END LIST*
D10*
X139390380Y-120999285D02*
X139390380Y-121570714D01*
X139390380Y-121285000D02*
X138390380Y-121285000D01*
X138533238Y-121380238D01*
X138628476Y-121475476D01*
X138676095Y-121570714D01*
G04 #@! TO.C,P1*
X140208000Y-125095000D02*
X157988000Y-125095000D01*
X157988000Y-125095000D02*
X157988000Y-122555000D01*
X157988000Y-122555000D02*
X140208000Y-122555000D01*
X137388000Y-125375000D02*
X138938000Y-125375000D01*
X140208000Y-125095000D02*
X140208000Y-122555000D01*
X138938000Y-122275000D02*
X137388000Y-122275000D01*
X137388000Y-122275000D02*
X137388000Y-125375000D01*
G04 #@! TO.C,P2*
X163068000Y-125095000D02*
X175768000Y-125095000D01*
X175768000Y-125095000D02*
X175768000Y-122555000D01*
X175768000Y-122555000D02*
X163068000Y-122555000D01*
X160248000Y-125375000D02*
X161798000Y-125375000D01*
X163068000Y-125095000D02*
X163068000Y-122555000D01*
X161798000Y-122275000D02*
X160248000Y-122275000D01*
X160248000Y-122275000D02*
X160248000Y-125375000D01*
G04 #@! TO.C,P3*
X131064000Y-76835000D02*
X153924000Y-76835000D01*
X153924000Y-76835000D02*
X153924000Y-74295000D01*
X153924000Y-74295000D02*
X131064000Y-74295000D01*
X128244000Y-77115000D02*
X129794000Y-77115000D01*
X131064000Y-76835000D02*
X131064000Y-74295000D01*
X129794000Y-74015000D02*
X128244000Y-74015000D01*
X128244000Y-74015000D02*
X128244000Y-77115000D01*
G04 #@! TO.C,P4*
X157988000Y-76835000D02*
X175768000Y-76835000D01*
X175768000Y-76835000D02*
X175768000Y-74295000D01*
X175768000Y-74295000D02*
X157988000Y-74295000D01*
X155168000Y-77115000D02*
X156718000Y-77115000D01*
X157988000Y-76835000D02*
X157988000Y-74295000D01*
X156718000Y-74015000D02*
X155168000Y-74015000D01*
X155168000Y-74015000D02*
X155168000Y-77115000D01*
G04 #@! TO.C,P5*
X127254000Y-123825000D02*
G75*
G03X127254000Y-123825000I-2286000J0D01*
G01*
G04 #@! TO.C,P6*
X179324000Y-118745000D02*
G75*
G03X179324000Y-118745000I-2286000J0D01*
G01*
G04 #@! TO.C,P7*
X128524000Y-75565000D02*
G75*
G03X128524000Y-75565000I-2286000J0D01*
G01*
G04 #@! TO.C,P8*
X179324000Y-90805000D02*
G75*
G03X179324000Y-90805000I-2286000J0D01*
G01*
D11*
G04 #@! TO.C,J1*
X118188000Y-85925000D02*
X105968000Y-85925000D01*
X105968000Y-85925000D02*
X105968000Y-98145000D01*
X105968000Y-98145000D02*
X118188000Y-98145000D01*
X118188000Y-98145000D02*
X118188000Y-85925000D01*
X107468000Y-85925000D02*
X109268000Y-85925000D01*
X109268000Y-85925000D02*
X109268000Y-98145000D01*
X109268000Y-98145000D02*
X107468000Y-98145000D01*
X107468000Y-98145000D02*
X107468000Y-85925000D01*
X105968000Y-88535000D02*
X105968000Y-90535000D01*
X105968000Y-90535000D02*
X107468000Y-90285000D01*
X107468000Y-90285000D02*
X107468000Y-88785000D01*
X107468000Y-88785000D02*
X105968000Y-88535000D01*
X105968000Y-93535000D02*
X105968000Y-95535000D01*
X105968000Y-95535000D02*
X107468000Y-95285000D01*
X107468000Y-95285000D02*
X107468000Y-93785000D01*
X107468000Y-93785000D02*
X105968000Y-93535000D01*
X118988000Y-89835000D02*
X118388000Y-89535000D01*
X118388000Y-89535000D02*
X118988000Y-89235000D01*
X118988000Y-89235000D02*
X118988000Y-89835000D01*
G04 #@! TO.C,J2*
X118558000Y-104715000D02*
X119888000Y-104715000D01*
X118558000Y-106045000D02*
X118558000Y-104715000D01*
X118558000Y-107315000D02*
X121218000Y-107315000D01*
X121218000Y-107315000D02*
X121218000Y-109915000D01*
X118558000Y-107315000D02*
X118558000Y-109915000D01*
X118558000Y-109915000D02*
X121218000Y-109915000D01*
G04 #@! TO.C,J3*
X179638000Y-102295000D02*
X178308000Y-102295000D01*
X179638000Y-100965000D02*
X179638000Y-102295000D01*
X179638000Y-99695000D02*
X176978000Y-99695000D01*
X176978000Y-99695000D02*
X176978000Y-97095000D01*
X179638000Y-99695000D02*
X179638000Y-97095000D01*
X179638000Y-97095000D02*
X176978000Y-97095000D01*
G04 #@! TO.C,J4*
X154118000Y-88325000D02*
X156778000Y-88325000D01*
X154118000Y-85725000D02*
X154118000Y-88325000D01*
X156778000Y-85725000D02*
X156778000Y-88325000D01*
X154118000Y-85725000D02*
X156778000Y-85725000D01*
X154118000Y-84455000D02*
X154118000Y-83125000D01*
X154118000Y-83125000D02*
X155448000Y-83125000D01*
G04 #@! TO.C,J5*
X118188000Y-113865000D02*
X105968000Y-113865000D01*
X105968000Y-113865000D02*
X105968000Y-126085000D01*
X105968000Y-126085000D02*
X118188000Y-126085000D01*
X118188000Y-126085000D02*
X118188000Y-113865000D01*
X107468000Y-113865000D02*
X109268000Y-113865000D01*
X109268000Y-113865000D02*
X109268000Y-126085000D01*
X109268000Y-126085000D02*
X107468000Y-126085000D01*
X107468000Y-126085000D02*
X107468000Y-113865000D01*
X105968000Y-116475000D02*
X105968000Y-118475000D01*
X105968000Y-118475000D02*
X107468000Y-118225000D01*
X107468000Y-118225000D02*
X107468000Y-116725000D01*
X107468000Y-116725000D02*
X105968000Y-116475000D01*
X105968000Y-121475000D02*
X105968000Y-123475000D01*
X105968000Y-123475000D02*
X107468000Y-123225000D01*
X107468000Y-123225000D02*
X107468000Y-121725000D01*
X107468000Y-121725000D02*
X105968000Y-121475000D01*
X118988000Y-117775000D02*
X118388000Y-117475000D01*
X118388000Y-117475000D02*
X118988000Y-117175000D01*
X118988000Y-117175000D02*
X118988000Y-117775000D01*
G04 #@! TO.C,J6*
X118988000Y-76535000D02*
X118988000Y-77135000D01*
X118388000Y-76835000D02*
X118988000Y-76535000D01*
X118988000Y-77135000D02*
X118388000Y-76835000D01*
X107468000Y-81085000D02*
X105968000Y-80835000D01*
X107468000Y-82585000D02*
X107468000Y-81085000D01*
X105968000Y-82835000D02*
X107468000Y-82585000D01*
X105968000Y-80835000D02*
X105968000Y-82835000D01*
X107468000Y-76085000D02*
X105968000Y-75835000D01*
X107468000Y-77585000D02*
X107468000Y-76085000D01*
X105968000Y-77835000D02*
X107468000Y-77585000D01*
X105968000Y-75835000D02*
X105968000Y-77835000D01*
X107468000Y-85445000D02*
X107468000Y-73225000D01*
X109268000Y-85445000D02*
X107468000Y-85445000D01*
X109268000Y-73225000D02*
X109268000Y-85445000D01*
X107468000Y-73225000D02*
X109268000Y-73225000D01*
X118188000Y-85445000D02*
X118188000Y-73225000D01*
X105968000Y-85445000D02*
X118188000Y-85445000D01*
X105968000Y-73225000D02*
X105968000Y-85445000D01*
X118188000Y-73225000D02*
X105968000Y-73225000D01*
G04 #@! TO.C,U3*
X172408000Y-120825000D02*
X151968000Y-120825000D01*
X172408000Y-115584000D02*
X169912000Y-115584000D01*
X168063000Y-115584000D02*
X166512000Y-115584000D01*
X164663000Y-115584000D02*
X163112000Y-115584000D01*
X161263000Y-115584000D02*
X159712000Y-115584000D01*
X157863000Y-115584000D02*
X156312000Y-115584000D01*
X154463000Y-115584000D02*
X151968000Y-115584000D01*
X172408000Y-120825000D02*
X172408000Y-115584000D01*
X151968000Y-120825000D02*
X151968000Y-115584000D01*
X172408000Y-118985000D02*
X151968000Y-118985000D01*
X164038000Y-120825000D02*
X164038000Y-118985000D01*
X160338000Y-120825000D02*
X160338000Y-118985000D01*
X170688000Y-115584000D02*
X170688000Y-112175000D01*
X167288000Y-115584000D02*
X167288000Y-112190000D01*
X163888000Y-115584000D02*
X163888000Y-112190000D01*
X160488000Y-115584000D02*
X160488000Y-112190000D01*
X157088000Y-115584000D02*
X157088000Y-112190000D01*
X153688000Y-115584000D02*
X153688000Y-112190000D01*
G04 #@! TO.C,U4*
X147048000Y-82536000D02*
X147048000Y-85930000D01*
X143648000Y-82536000D02*
X143648000Y-85930000D01*
X140248000Y-82536000D02*
X140248000Y-85930000D01*
X136848000Y-82536000D02*
X136848000Y-85930000D01*
X133448000Y-82536000D02*
X133448000Y-85930000D01*
X130048000Y-82536000D02*
X130048000Y-85945000D01*
X140398000Y-77295000D02*
X140398000Y-79135000D01*
X136698000Y-77295000D02*
X136698000Y-79135000D01*
X128328000Y-79135000D02*
X148768000Y-79135000D01*
X148768000Y-77295000D02*
X148768000Y-82536000D01*
X128328000Y-77295000D02*
X128328000Y-82536000D01*
X146273000Y-82536000D02*
X148768000Y-82536000D01*
X142873000Y-82536000D02*
X144424000Y-82536000D01*
X139473000Y-82536000D02*
X141024000Y-82536000D01*
X136073000Y-82536000D02*
X137624000Y-82536000D01*
X132673000Y-82536000D02*
X134224000Y-82536000D01*
X128328000Y-82536000D02*
X130824000Y-82536000D01*
X128328000Y-77295000D02*
X148768000Y-77295000D01*
G04 #@! TO.C,C1*
X125048000Y-95865000D02*
G75*
G03X125048000Y-95865000I-2620000J0D01*
G01*
X125008000Y-95865000D02*
X119848000Y-95865000D01*
X125008000Y-95905000D02*
X119848000Y-95905000D01*
X125007000Y-95945000D02*
X119849000Y-95945000D01*
X125006000Y-95985000D02*
X119850000Y-95985000D01*
X125004000Y-96025000D02*
X119852000Y-96025000D01*
X125001000Y-96065000D02*
X119855000Y-96065000D01*
X124997000Y-96105000D02*
X123468000Y-96105000D01*
X121388000Y-96105000D02*
X119859000Y-96105000D01*
X124993000Y-96145000D02*
X123468000Y-96145000D01*
X121388000Y-96145000D02*
X119863000Y-96145000D01*
X124989000Y-96185000D02*
X123468000Y-96185000D01*
X121388000Y-96185000D02*
X119867000Y-96185000D01*
X124984000Y-96225000D02*
X123468000Y-96225000D01*
X121388000Y-96225000D02*
X119872000Y-96225000D01*
X124978000Y-96265000D02*
X123468000Y-96265000D01*
X121388000Y-96265000D02*
X119878000Y-96265000D01*
X124971000Y-96305000D02*
X123468000Y-96305000D01*
X121388000Y-96305000D02*
X119885000Y-96305000D01*
X124964000Y-96345000D02*
X123468000Y-96345000D01*
X121388000Y-96345000D02*
X119892000Y-96345000D01*
X124956000Y-96385000D02*
X123468000Y-96385000D01*
X121388000Y-96385000D02*
X119900000Y-96385000D01*
X124948000Y-96425000D02*
X123468000Y-96425000D01*
X121388000Y-96425000D02*
X119908000Y-96425000D01*
X124939000Y-96465000D02*
X123468000Y-96465000D01*
X121388000Y-96465000D02*
X119917000Y-96465000D01*
X124929000Y-96505000D02*
X123468000Y-96505000D01*
X121388000Y-96505000D02*
X119927000Y-96505000D01*
X124919000Y-96545000D02*
X123468000Y-96545000D01*
X121388000Y-96545000D02*
X119937000Y-96545000D01*
X124908000Y-96586000D02*
X123468000Y-96586000D01*
X121388000Y-96586000D02*
X119948000Y-96586000D01*
X124896000Y-96626000D02*
X123468000Y-96626000D01*
X121388000Y-96626000D02*
X119960000Y-96626000D01*
X124883000Y-96666000D02*
X123468000Y-96666000D01*
X121388000Y-96666000D02*
X119973000Y-96666000D01*
X124870000Y-96706000D02*
X123468000Y-96706000D01*
X121388000Y-96706000D02*
X119986000Y-96706000D01*
X124856000Y-96746000D02*
X123468000Y-96746000D01*
X121388000Y-96746000D02*
X120000000Y-96746000D01*
X124842000Y-96786000D02*
X123468000Y-96786000D01*
X121388000Y-96786000D02*
X120014000Y-96786000D01*
X124826000Y-96826000D02*
X123468000Y-96826000D01*
X121388000Y-96826000D02*
X120030000Y-96826000D01*
X124810000Y-96866000D02*
X123468000Y-96866000D01*
X121388000Y-96866000D02*
X120046000Y-96866000D01*
X124793000Y-96906000D02*
X123468000Y-96906000D01*
X121388000Y-96906000D02*
X120063000Y-96906000D01*
X124776000Y-96946000D02*
X123468000Y-96946000D01*
X121388000Y-96946000D02*
X120080000Y-96946000D01*
X124757000Y-96986000D02*
X123468000Y-96986000D01*
X121388000Y-96986000D02*
X120099000Y-96986000D01*
X124738000Y-97026000D02*
X123468000Y-97026000D01*
X121388000Y-97026000D02*
X120118000Y-97026000D01*
X124718000Y-97066000D02*
X123468000Y-97066000D01*
X121388000Y-97066000D02*
X120138000Y-97066000D01*
X124696000Y-97106000D02*
X123468000Y-97106000D01*
X121388000Y-97106000D02*
X120160000Y-97106000D01*
X124675000Y-97146000D02*
X123468000Y-97146000D01*
X121388000Y-97146000D02*
X120181000Y-97146000D01*
X124652000Y-97186000D02*
X123468000Y-97186000D01*
X121388000Y-97186000D02*
X120204000Y-97186000D01*
X124628000Y-97226000D02*
X123468000Y-97226000D01*
X121388000Y-97226000D02*
X120228000Y-97226000D01*
X124603000Y-97266000D02*
X123468000Y-97266000D01*
X121388000Y-97266000D02*
X120253000Y-97266000D01*
X124577000Y-97306000D02*
X123468000Y-97306000D01*
X121388000Y-97306000D02*
X120279000Y-97306000D01*
X124550000Y-97346000D02*
X123468000Y-97346000D01*
X121388000Y-97346000D02*
X120306000Y-97346000D01*
X124523000Y-97386000D02*
X123468000Y-97386000D01*
X121388000Y-97386000D02*
X120333000Y-97386000D01*
X124493000Y-97426000D02*
X123468000Y-97426000D01*
X121388000Y-97426000D02*
X120363000Y-97426000D01*
X124463000Y-97466000D02*
X123468000Y-97466000D01*
X121388000Y-97466000D02*
X120393000Y-97466000D01*
X124432000Y-97506000D02*
X123468000Y-97506000D01*
X121388000Y-97506000D02*
X120424000Y-97506000D01*
X124399000Y-97546000D02*
X123468000Y-97546000D01*
X121388000Y-97546000D02*
X120457000Y-97546000D01*
X124365000Y-97586000D02*
X123468000Y-97586000D01*
X121388000Y-97586000D02*
X120491000Y-97586000D01*
X124329000Y-97626000D02*
X123468000Y-97626000D01*
X121388000Y-97626000D02*
X120527000Y-97626000D01*
X124292000Y-97666000D02*
X123468000Y-97666000D01*
X121388000Y-97666000D02*
X120564000Y-97666000D01*
X124254000Y-97706000D02*
X123468000Y-97706000D01*
X121388000Y-97706000D02*
X120602000Y-97706000D01*
X124213000Y-97746000D02*
X123468000Y-97746000D01*
X121388000Y-97746000D02*
X120643000Y-97746000D01*
X124171000Y-97786000D02*
X123468000Y-97786000D01*
X121388000Y-97786000D02*
X120685000Y-97786000D01*
X124127000Y-97826000D02*
X123468000Y-97826000D01*
X121388000Y-97826000D02*
X120729000Y-97826000D01*
X124081000Y-97866000D02*
X123468000Y-97866000D01*
X121388000Y-97866000D02*
X120775000Y-97866000D01*
X124033000Y-97906000D02*
X123468000Y-97906000D01*
X121388000Y-97906000D02*
X120823000Y-97906000D01*
X123982000Y-97946000D02*
X123468000Y-97946000D01*
X121388000Y-97946000D02*
X120874000Y-97946000D01*
X123928000Y-97986000D02*
X123468000Y-97986000D01*
X121388000Y-97986000D02*
X120928000Y-97986000D01*
X123871000Y-98026000D02*
X123468000Y-98026000D01*
X121388000Y-98026000D02*
X120985000Y-98026000D01*
X123811000Y-98066000D02*
X123468000Y-98066000D01*
X121388000Y-98066000D02*
X121045000Y-98066000D01*
X123747000Y-98106000D02*
X123468000Y-98106000D01*
X121388000Y-98106000D02*
X121109000Y-98106000D01*
X123679000Y-98146000D02*
X123468000Y-98146000D01*
X121388000Y-98146000D02*
X121177000Y-98146000D01*
X123606000Y-98186000D02*
X121250000Y-98186000D01*
X123526000Y-98226000D02*
X121330000Y-98226000D01*
X123439000Y-98266000D02*
X121417000Y-98266000D01*
X123343000Y-98306000D02*
X121513000Y-98306000D01*
X123233000Y-98346000D02*
X121623000Y-98346000D01*
X123105000Y-98386000D02*
X121751000Y-98386000D01*
X122946000Y-98426000D02*
X121910000Y-98426000D01*
X122712000Y-98466000D02*
X122144000Y-98466000D01*
X123903000Y-93060225D02*
X123903000Y-93560225D01*
X124153000Y-93310225D02*
X123653000Y-93310225D01*
G04 #@! TO.C,C2*
X116428000Y-107965000D02*
X116428000Y-104125000D01*
X118268000Y-107965000D02*
X118268000Y-104125000D01*
G04 #@! TO.C,C3*
X126298000Y-88285000D02*
G75*
G03X126298000Y-88285000I-3870000J0D01*
G01*
X118598000Y-88285000D02*
X126258000Y-88285000D01*
X118598000Y-88245000D02*
X126258000Y-88245000D01*
X118598000Y-88205000D02*
X126258000Y-88205000D01*
X118599000Y-88165000D02*
X126257000Y-88165000D01*
X118601000Y-88125000D02*
X126255000Y-88125000D01*
X118603000Y-88085000D02*
X126253000Y-88085000D01*
X118605000Y-88045000D02*
X121388000Y-88045000D01*
X123468000Y-88045000D02*
X126251000Y-88045000D01*
X118608000Y-88005000D02*
X121388000Y-88005000D01*
X123468000Y-88005000D02*
X126248000Y-88005000D01*
X118611000Y-87965000D02*
X121388000Y-87965000D01*
X123468000Y-87965000D02*
X126245000Y-87965000D01*
X118614000Y-87925000D02*
X121388000Y-87925000D01*
X123468000Y-87925000D02*
X126242000Y-87925000D01*
X118618000Y-87885000D02*
X121388000Y-87885000D01*
X123468000Y-87885000D02*
X126238000Y-87885000D01*
X118623000Y-87845000D02*
X121388000Y-87845000D01*
X123468000Y-87845000D02*
X126233000Y-87845000D01*
X118627000Y-87805000D02*
X121388000Y-87805000D01*
X123468000Y-87805000D02*
X126229000Y-87805000D01*
X118633000Y-87765000D02*
X121388000Y-87765000D01*
X123468000Y-87765000D02*
X126223000Y-87765000D01*
X118638000Y-87725000D02*
X121388000Y-87725000D01*
X123468000Y-87725000D02*
X126218000Y-87725000D01*
X118644000Y-87685000D02*
X121388000Y-87685000D01*
X123468000Y-87685000D02*
X126212000Y-87685000D01*
X118651000Y-87645000D02*
X121388000Y-87645000D01*
X123468000Y-87645000D02*
X126205000Y-87645000D01*
X118658000Y-87605000D02*
X121388000Y-87605000D01*
X123468000Y-87605000D02*
X126198000Y-87605000D01*
X118665000Y-87564000D02*
X121388000Y-87564000D01*
X123468000Y-87564000D02*
X126191000Y-87564000D01*
X118673000Y-87524000D02*
X121388000Y-87524000D01*
X123468000Y-87524000D02*
X126183000Y-87524000D01*
X118681000Y-87484000D02*
X121388000Y-87484000D01*
X123468000Y-87484000D02*
X126175000Y-87484000D01*
X118690000Y-87444000D02*
X121388000Y-87444000D01*
X123468000Y-87444000D02*
X126166000Y-87444000D01*
X118699000Y-87404000D02*
X121388000Y-87404000D01*
X123468000Y-87404000D02*
X126157000Y-87404000D01*
X118708000Y-87364000D02*
X121388000Y-87364000D01*
X123468000Y-87364000D02*
X126148000Y-87364000D01*
X118718000Y-87324000D02*
X121388000Y-87324000D01*
X123468000Y-87324000D02*
X126138000Y-87324000D01*
X118729000Y-87284000D02*
X121388000Y-87284000D01*
X123468000Y-87284000D02*
X126127000Y-87284000D01*
X118740000Y-87244000D02*
X121388000Y-87244000D01*
X123468000Y-87244000D02*
X126116000Y-87244000D01*
X118751000Y-87204000D02*
X121388000Y-87204000D01*
X123468000Y-87204000D02*
X126105000Y-87204000D01*
X118763000Y-87164000D02*
X121388000Y-87164000D01*
X123468000Y-87164000D02*
X126093000Y-87164000D01*
X118775000Y-87124000D02*
X121388000Y-87124000D01*
X123468000Y-87124000D02*
X126081000Y-87124000D01*
X118788000Y-87084000D02*
X121388000Y-87084000D01*
X123468000Y-87084000D02*
X126068000Y-87084000D01*
X118802000Y-87044000D02*
X121388000Y-87044000D01*
X123468000Y-87044000D02*
X126054000Y-87044000D01*
X118815000Y-87004000D02*
X121388000Y-87004000D01*
X123468000Y-87004000D02*
X126041000Y-87004000D01*
X118830000Y-86964000D02*
X121388000Y-86964000D01*
X123468000Y-86964000D02*
X126026000Y-86964000D01*
X118844000Y-86924000D02*
X121388000Y-86924000D01*
X123468000Y-86924000D02*
X126012000Y-86924000D01*
X118860000Y-86884000D02*
X121388000Y-86884000D01*
X123468000Y-86884000D02*
X125996000Y-86884000D01*
X118875000Y-86844000D02*
X121388000Y-86844000D01*
X123468000Y-86844000D02*
X125981000Y-86844000D01*
X118892000Y-86804000D02*
X121388000Y-86804000D01*
X123468000Y-86804000D02*
X125964000Y-86804000D01*
X118908000Y-86764000D02*
X121388000Y-86764000D01*
X123468000Y-86764000D02*
X125948000Y-86764000D01*
X118926000Y-86724000D02*
X121388000Y-86724000D01*
X123468000Y-86724000D02*
X125930000Y-86724000D01*
X118944000Y-86684000D02*
X121388000Y-86684000D01*
X123468000Y-86684000D02*
X125912000Y-86684000D01*
X118962000Y-86644000D02*
X121388000Y-86644000D01*
X123468000Y-86644000D02*
X125894000Y-86644000D01*
X118981000Y-86604000D02*
X121388000Y-86604000D01*
X123468000Y-86604000D02*
X125875000Y-86604000D01*
X119001000Y-86564000D02*
X121388000Y-86564000D01*
X123468000Y-86564000D02*
X125855000Y-86564000D01*
X119021000Y-86524000D02*
X121388000Y-86524000D01*
X123468000Y-86524000D02*
X125835000Y-86524000D01*
X119042000Y-86484000D02*
X121388000Y-86484000D01*
X123468000Y-86484000D02*
X125814000Y-86484000D01*
X119063000Y-86444000D02*
X121388000Y-86444000D01*
X123468000Y-86444000D02*
X125793000Y-86444000D01*
X119085000Y-86404000D02*
X121388000Y-86404000D01*
X123468000Y-86404000D02*
X125771000Y-86404000D01*
X119107000Y-86364000D02*
X121388000Y-86364000D01*
X123468000Y-86364000D02*
X125749000Y-86364000D01*
X119131000Y-86324000D02*
X121388000Y-86324000D01*
X123468000Y-86324000D02*
X125725000Y-86324000D01*
X119154000Y-86284000D02*
X121388000Y-86284000D01*
X123468000Y-86284000D02*
X125702000Y-86284000D01*
X119179000Y-86244000D02*
X121388000Y-86244000D01*
X123468000Y-86244000D02*
X125677000Y-86244000D01*
X119204000Y-86204000D02*
X121388000Y-86204000D01*
X123468000Y-86204000D02*
X125652000Y-86204000D01*
X119230000Y-86164000D02*
X121388000Y-86164000D01*
X123468000Y-86164000D02*
X125626000Y-86164000D01*
X119256000Y-86124000D02*
X121388000Y-86124000D01*
X123468000Y-86124000D02*
X125600000Y-86124000D01*
X119284000Y-86084000D02*
X121388000Y-86084000D01*
X123468000Y-86084000D02*
X125572000Y-86084000D01*
X119312000Y-86044000D02*
X121388000Y-86044000D01*
X123468000Y-86044000D02*
X125544000Y-86044000D01*
X119340000Y-86004000D02*
X121388000Y-86004000D01*
X123468000Y-86004000D02*
X125516000Y-86004000D01*
X119370000Y-85964000D02*
X125486000Y-85964000D01*
X119400000Y-85924000D02*
X125456000Y-85924000D01*
X119432000Y-85884000D02*
X125424000Y-85884000D01*
X119464000Y-85844000D02*
X125392000Y-85844000D01*
X119497000Y-85804000D02*
X125359000Y-85804000D01*
X119530000Y-85764000D02*
X125326000Y-85764000D01*
X119565000Y-85724000D02*
X125291000Y-85724000D01*
X119601000Y-85684000D02*
X125255000Y-85684000D01*
X119638000Y-85644000D02*
X125218000Y-85644000D01*
X119676000Y-85604000D02*
X125180000Y-85604000D01*
X119715000Y-85564000D02*
X125141000Y-85564000D01*
X119755000Y-85524000D02*
X125101000Y-85524000D01*
X119796000Y-85484000D02*
X125060000Y-85484000D01*
X119839000Y-85444000D02*
X125017000Y-85444000D01*
X119882000Y-85404000D02*
X124974000Y-85404000D01*
X119928000Y-85364000D02*
X124928000Y-85364000D01*
X119974000Y-85324000D02*
X124882000Y-85324000D01*
X120023000Y-85284000D02*
X124833000Y-85284000D01*
X120073000Y-85244000D02*
X124783000Y-85244000D01*
X120124000Y-85204000D02*
X124732000Y-85204000D01*
X120178000Y-85164000D02*
X124678000Y-85164000D01*
X120233000Y-85124000D02*
X124623000Y-85124000D01*
X120291000Y-85084000D02*
X124565000Y-85084000D01*
X120351000Y-85044000D02*
X124505000Y-85044000D01*
X120414000Y-85004000D02*
X124442000Y-85004000D01*
X120479000Y-84964000D02*
X124377000Y-84964000D01*
X120547000Y-84924000D02*
X124309000Y-84924000D01*
X120619000Y-84884000D02*
X124237000Y-84884000D01*
X120695000Y-84844000D02*
X124161000Y-84844000D01*
X120774000Y-84804000D02*
X124082000Y-84804000D01*
X120859000Y-84764000D02*
X123997000Y-84764000D01*
X120950000Y-84724000D02*
X123906000Y-84724000D01*
X121047000Y-84684000D02*
X123809000Y-84684000D01*
X121153000Y-84644000D02*
X123703000Y-84644000D01*
X121270000Y-84604000D02*
X123586000Y-84604000D01*
X121400000Y-84564000D02*
X123456000Y-84564000D01*
X121551000Y-84524000D02*
X123305000Y-84524000D01*
X121735000Y-84484000D02*
X123121000Y-84484000D01*
X121987000Y-84444000D02*
X122869000Y-84444000D01*
X120253000Y-92427211D02*
X120253000Y-91677211D01*
X119878000Y-92052211D02*
X120628000Y-92052211D01*
G04 #@! TO.C,C4*
X115728000Y-107965000D02*
X115728000Y-104125000D01*
X113888000Y-107965000D02*
X113888000Y-104125000D01*
G04 #@! TO.C,C5*
X175418000Y-115585000D02*
X175418000Y-111745000D01*
X173578000Y-115585000D02*
X173578000Y-111745000D01*
G04 #@! TO.C,C6*
X151288000Y-111745000D02*
X151288000Y-115585000D01*
X149448000Y-111745000D02*
X149448000Y-115585000D01*
G04 #@! TO.C,C7*
X126588000Y-82535000D02*
X126588000Y-86375000D01*
X128428000Y-82535000D02*
X128428000Y-86375000D01*
G04 #@! TO.C,C8*
X149448000Y-86375000D02*
X149448000Y-82535000D01*
X151288000Y-86375000D02*
X151288000Y-82535000D01*
G04 #@! TO.C,D1*
X172838000Y-82650000D02*
X175298000Y-82650000D01*
X172838000Y-81180000D02*
X172838000Y-82650000D01*
X175298000Y-81180000D02*
X172838000Y-81180000D01*
G04 #@! TO.C,D2*
X175298000Y-78640000D02*
X172838000Y-78640000D01*
X172838000Y-78640000D02*
X172838000Y-80110000D01*
X172838000Y-80110000D02*
X175298000Y-80110000D01*
G04 #@! TO.C,D3*
X172838000Y-87730000D02*
X175298000Y-87730000D01*
X172838000Y-86260000D02*
X172838000Y-87730000D01*
X175298000Y-86260000D02*
X172838000Y-86260000D01*
G04 #@! TO.C,D4*
X175298000Y-83720000D02*
X172838000Y-83720000D01*
X172838000Y-83720000D02*
X172838000Y-85190000D01*
X172838000Y-85190000D02*
X175298000Y-85190000D01*
G04 #@! TO.C,D5*
X110938000Y-108645000D02*
X113598000Y-108645000D01*
X110938000Y-106045000D02*
X110938000Y-108645000D01*
X113598000Y-106045000D02*
X113598000Y-108645000D01*
X110938000Y-106045000D02*
X113598000Y-106045000D01*
X110938000Y-104775000D02*
X110938000Y-103445000D01*
X110938000Y-103445000D02*
X112268000Y-103445000D01*
G04 #@! TO.C,R1*
X170516733Y-81405000D02*
X170859267Y-81405000D01*
X170516733Y-82425000D02*
X170859267Y-82425000D01*
G04 #@! TO.C,R2*
X170516733Y-79885000D02*
X170859267Y-79885000D01*
X170516733Y-78865000D02*
X170859267Y-78865000D01*
G04 #@! TO.C,R3*
X170516733Y-87505000D02*
X170859267Y-87505000D01*
X170516733Y-86485000D02*
X170859267Y-86485000D01*
G04 #@! TO.C,R4*
X170516733Y-83945000D02*
X170859267Y-83945000D01*
X170516733Y-84965000D02*
X170859267Y-84965000D01*
G04 #@! TO.C,R5*
X176938000Y-113125000D02*
X179678000Y-113125000D01*
X179678000Y-113125000D02*
X179678000Y-106585000D01*
X179678000Y-106585000D02*
X176938000Y-106585000D01*
X176938000Y-106585000D02*
X176938000Y-113125000D01*
X178308000Y-113895000D02*
X178308000Y-113125000D01*
X178308000Y-105815000D02*
X178308000Y-106585000D01*
G04 #@! TO.C,R6*
X156948000Y-78105000D02*
X156178000Y-78105000D01*
X148868000Y-78105000D02*
X149638000Y-78105000D01*
X156178000Y-76735000D02*
X149638000Y-76735000D01*
X156178000Y-79475000D02*
X156178000Y-76735000D01*
X149638000Y-79475000D02*
X156178000Y-79475000D01*
X149638000Y-76735000D02*
X149638000Y-79475000D01*
G04 #@! TO.C,R7*
X114078000Y-99595000D02*
X114078000Y-102335000D01*
X114078000Y-102335000D02*
X120618000Y-102335000D01*
X120618000Y-102335000D02*
X120618000Y-99595000D01*
X120618000Y-99595000D02*
X114078000Y-99595000D01*
X113308000Y-100965000D02*
X114078000Y-100965000D01*
X121388000Y-100965000D02*
X120618000Y-100965000D01*
D10*
G04 #@! TO.C,U1*
X166248000Y-81110000D02*
X166223000Y-81110000D01*
X166248000Y-85260000D02*
X166133000Y-85260000D01*
X157348000Y-85260000D02*
X157463000Y-85260000D01*
X157348000Y-81110000D02*
X157463000Y-81110000D01*
X166248000Y-81110000D02*
X166248000Y-85260000D01*
X157348000Y-81110000D02*
X157348000Y-85260000D01*
X166223000Y-81110000D02*
X166223000Y-79735000D01*
D11*
G04 #@! TO.C,U2*
X110938000Y-109795000D02*
X110938000Y-112455000D01*
X116078000Y-109795000D02*
X110938000Y-109795000D01*
X116078000Y-112455000D02*
X110938000Y-112455000D01*
X116078000Y-109795000D02*
X116078000Y-112455000D01*
X117348000Y-109795000D02*
X118678000Y-109795000D01*
X118678000Y-109795000D02*
X118678000Y-111125000D01*
G04 #@! TO.C,J13*
X140148000Y-111185000D02*
X142808000Y-111185000D01*
X140148000Y-111125000D02*
X140148000Y-111185000D01*
X142808000Y-111125000D02*
X142808000Y-111185000D01*
X140148000Y-111125000D02*
X142808000Y-111125000D01*
X140148000Y-109855000D02*
X140148000Y-108525000D01*
X140148000Y-108525000D02*
X141478000Y-108525000D01*
G04 #@! TO.C,J7*
X127448000Y-118805000D02*
X130108000Y-118805000D01*
X127448000Y-118745000D02*
X127448000Y-118805000D01*
X130108000Y-118745000D02*
X130108000Y-118805000D01*
X127448000Y-118745000D02*
X130108000Y-118745000D01*
X127448000Y-117475000D02*
X127448000Y-116145000D01*
X127448000Y-116145000D02*
X128778000Y-116145000D01*
G04 #@! TO.C,J8*
X129988000Y-116145000D02*
X131318000Y-116145000D01*
X129988000Y-117475000D02*
X129988000Y-116145000D01*
X129988000Y-118745000D02*
X132648000Y-118745000D01*
X132648000Y-118745000D02*
X132648000Y-118805000D01*
X129988000Y-118745000D02*
X129988000Y-118805000D01*
X129988000Y-118805000D02*
X132648000Y-118805000D01*
G04 #@! TO.C,J9*
X132528000Y-118805000D02*
X135188000Y-118805000D01*
X132528000Y-118745000D02*
X132528000Y-118805000D01*
X135188000Y-118745000D02*
X135188000Y-118805000D01*
X132528000Y-118745000D02*
X135188000Y-118745000D01*
X132528000Y-117475000D02*
X132528000Y-116145000D01*
X132528000Y-116145000D02*
X133858000Y-116145000D01*
G04 #@! TO.C,J11*
X135068000Y-111185000D02*
X137728000Y-111185000D01*
X135068000Y-111125000D02*
X135068000Y-111185000D01*
X137728000Y-111125000D02*
X137728000Y-111185000D01*
X135068000Y-111125000D02*
X137728000Y-111125000D01*
X135068000Y-109855000D02*
X135068000Y-108525000D01*
X135068000Y-108525000D02*
X136398000Y-108525000D01*
G04 #@! TO.C,J12*
X137608000Y-108525000D02*
X138938000Y-108525000D01*
X137608000Y-109855000D02*
X137608000Y-108525000D01*
X137608000Y-111125000D02*
X140268000Y-111125000D01*
X140268000Y-111125000D02*
X140268000Y-111185000D01*
X137608000Y-111125000D02*
X137608000Y-111185000D01*
X137608000Y-111185000D02*
X140268000Y-111185000D01*
G04 #@! TO.C,J10*
X123428000Y-108990000D02*
X146828000Y-108990000D01*
X146828000Y-108990000D02*
X146828000Y-118340000D01*
X146828000Y-118340000D02*
X123428000Y-118340000D01*
X123428000Y-118340000D02*
X123428000Y-108990000D01*
X123178000Y-118590000D02*
X125718000Y-118590000D01*
X123178000Y-118590000D02*
X123178000Y-116050000D01*
G04 #@! TO.C,P1*
D10*
X147089904Y-121737380D02*
X147089904Y-120737380D01*
X147470857Y-120737380D01*
X147566095Y-120785000D01*
X147613714Y-120832619D01*
X147661333Y-120927857D01*
X147661333Y-121070714D01*
X147613714Y-121165952D01*
X147566095Y-121213571D01*
X147470857Y-121261190D01*
X147089904Y-121261190D01*
X148613714Y-121737380D02*
X148042285Y-121737380D01*
X148328000Y-121737380D02*
X148328000Y-120737380D01*
X148232761Y-120880238D01*
X148137523Y-120975476D01*
X148042285Y-121023095D01*
G04 #@! TO.C,P2*
X167663904Y-121737380D02*
X167663904Y-120737380D01*
X168044857Y-120737380D01*
X168140095Y-120785000D01*
X168187714Y-120832619D01*
X168235333Y-120927857D01*
X168235333Y-121070714D01*
X168187714Y-121165952D01*
X168140095Y-121213571D01*
X168044857Y-121261190D01*
X167663904Y-121261190D01*
X168616285Y-120832619D02*
X168663904Y-120785000D01*
X168759142Y-120737380D01*
X168997238Y-120737380D01*
X169092476Y-120785000D01*
X169140095Y-120832619D01*
X169187714Y-120927857D01*
X169187714Y-121023095D01*
X169140095Y-121165952D01*
X168568666Y-121737380D01*
X169187714Y-121737380D01*
G04 #@! TO.C,P3*
X140485904Y-78811380D02*
X140485904Y-77811380D01*
X140866857Y-77811380D01*
X140962095Y-77859000D01*
X141009714Y-77906619D01*
X141057333Y-78001857D01*
X141057333Y-78144714D01*
X141009714Y-78239952D01*
X140962095Y-78287571D01*
X140866857Y-78335190D01*
X140485904Y-78335190D01*
X141390666Y-77811380D02*
X142009714Y-77811380D01*
X141676380Y-78192333D01*
X141819238Y-78192333D01*
X141914476Y-78239952D01*
X141962095Y-78287571D01*
X142009714Y-78382809D01*
X142009714Y-78620904D01*
X141962095Y-78716142D01*
X141914476Y-78763761D01*
X141819238Y-78811380D01*
X141533523Y-78811380D01*
X141438285Y-78763761D01*
X141390666Y-78716142D01*
G04 #@! TO.C,P4*
X164869904Y-78811380D02*
X164869904Y-77811380D01*
X165250857Y-77811380D01*
X165346095Y-77859000D01*
X165393714Y-77906619D01*
X165441333Y-78001857D01*
X165441333Y-78144714D01*
X165393714Y-78239952D01*
X165346095Y-78287571D01*
X165250857Y-78335190D01*
X164869904Y-78335190D01*
X166298476Y-78144714D02*
X166298476Y-78811380D01*
X166060380Y-77763761D02*
X165822285Y-78478047D01*
X166441333Y-78478047D01*
G04 #@! TO.C,J1*
X118730380Y-92368333D02*
X119444666Y-92368333D01*
X119587523Y-92415952D01*
X119682761Y-92511190D01*
X119730380Y-92654047D01*
X119730380Y-92749285D01*
X119730380Y-91368333D02*
X119730380Y-91939761D01*
X119730380Y-91654047D02*
X118730380Y-91654047D01*
X118873238Y-91749285D01*
X118968476Y-91844523D01*
X119016095Y-91939761D01*
G04 #@! TO.C,J2*
X119554666Y-103167380D02*
X119554666Y-103881666D01*
X119507047Y-104024523D01*
X119411809Y-104119761D01*
X119268952Y-104167380D01*
X119173714Y-104167380D01*
X119983238Y-103262619D02*
X120030857Y-103215000D01*
X120126095Y-103167380D01*
X120364190Y-103167380D01*
X120459428Y-103215000D01*
X120507047Y-103262619D01*
X120554666Y-103357857D01*
X120554666Y-103453095D01*
X120507047Y-103595952D01*
X119935619Y-104167380D01*
X120554666Y-104167380D01*
G04 #@! TO.C,J3*
X177974666Y-102747380D02*
X177974666Y-103461666D01*
X177927047Y-103604523D01*
X177831809Y-103699761D01*
X177688952Y-103747380D01*
X177593714Y-103747380D01*
X178355619Y-102747380D02*
X178974666Y-102747380D01*
X178641333Y-103128333D01*
X178784190Y-103128333D01*
X178879428Y-103175952D01*
X178927047Y-103223571D01*
X178974666Y-103318809D01*
X178974666Y-103556904D01*
X178927047Y-103652142D01*
X178879428Y-103699761D01*
X178784190Y-103747380D01*
X178498476Y-103747380D01*
X178403238Y-103699761D01*
X178355619Y-103652142D01*
G04 #@! TO.C,J4*
X155114666Y-81577380D02*
X155114666Y-82291666D01*
X155067047Y-82434523D01*
X154971809Y-82529761D01*
X154828952Y-82577380D01*
X154733714Y-82577380D01*
X156019428Y-81910714D02*
X156019428Y-82577380D01*
X155781333Y-81529761D02*
X155543238Y-82244047D01*
X156162285Y-82244047D01*
G04 #@! TO.C,J5*
X118730380Y-120308333D02*
X119444666Y-120308333D01*
X119587523Y-120355952D01*
X119682761Y-120451190D01*
X119730380Y-120594047D01*
X119730380Y-120689285D01*
X118730380Y-119355952D02*
X118730380Y-119832142D01*
X119206571Y-119879761D01*
X119158952Y-119832142D01*
X119111333Y-119736904D01*
X119111333Y-119498809D01*
X119158952Y-119403571D01*
X119206571Y-119355952D01*
X119301809Y-119308333D01*
X119539904Y-119308333D01*
X119635142Y-119355952D01*
X119682761Y-119403571D01*
X119730380Y-119498809D01*
X119730380Y-119736904D01*
X119682761Y-119832142D01*
X119635142Y-119879761D01*
G04 #@! TO.C,J6*
X118730380Y-79668333D02*
X119444666Y-79668333D01*
X119587523Y-79715952D01*
X119682761Y-79811190D01*
X119730380Y-79954047D01*
X119730380Y-80049285D01*
X118730380Y-78763571D02*
X118730380Y-78954047D01*
X118778000Y-79049285D01*
X118825619Y-79096904D01*
X118968476Y-79192142D01*
X119158952Y-79239761D01*
X119539904Y-79239761D01*
X119635142Y-79192142D01*
X119682761Y-79144523D01*
X119730380Y-79049285D01*
X119730380Y-78858809D01*
X119682761Y-78763571D01*
X119635142Y-78715952D01*
X119539904Y-78668333D01*
X119301809Y-78668333D01*
X119206571Y-78715952D01*
X119158952Y-78763571D01*
X119111333Y-78858809D01*
X119111333Y-79049285D01*
X119158952Y-79144523D01*
X119206571Y-79192142D01*
X119301809Y-79239761D01*
G04 #@! TO.C,U3*
X161426095Y-121277380D02*
X161426095Y-122086904D01*
X161473714Y-122182142D01*
X161521333Y-122229761D01*
X161616571Y-122277380D01*
X161807047Y-122277380D01*
X161902285Y-122229761D01*
X161949904Y-122182142D01*
X161997523Y-122086904D01*
X161997523Y-121277380D01*
X162378476Y-121277380D02*
X162997523Y-121277380D01*
X162664190Y-121658333D01*
X162807047Y-121658333D01*
X162902285Y-121705952D01*
X162949904Y-121753571D01*
X162997523Y-121848809D01*
X162997523Y-122086904D01*
X162949904Y-122182142D01*
X162902285Y-122229761D01*
X162807047Y-122277380D01*
X162521333Y-122277380D01*
X162426095Y-122229761D01*
X162378476Y-122182142D01*
G04 #@! TO.C,U4*
X137786095Y-75747380D02*
X137786095Y-76556904D01*
X137833714Y-76652142D01*
X137881333Y-76699761D01*
X137976571Y-76747380D01*
X138167047Y-76747380D01*
X138262285Y-76699761D01*
X138309904Y-76652142D01*
X138357523Y-76556904D01*
X138357523Y-75747380D01*
X139262285Y-76080714D02*
X139262285Y-76747380D01*
X139024190Y-75699761D02*
X138786095Y-76414047D01*
X139405142Y-76414047D01*
G04 #@! TO.C,C1*
X126535142Y-96031666D02*
X126582761Y-96079285D01*
X126630380Y-96222142D01*
X126630380Y-96317380D01*
X126582761Y-96460238D01*
X126487523Y-96555476D01*
X126392285Y-96603095D01*
X126201809Y-96650714D01*
X126058952Y-96650714D01*
X125868476Y-96603095D01*
X125773238Y-96555476D01*
X125678000Y-96460238D01*
X125630380Y-96317380D01*
X125630380Y-96222142D01*
X125678000Y-96079285D01*
X125725619Y-96031666D01*
X126630380Y-95079285D02*
X126630380Y-95650714D01*
X126630380Y-95365000D02*
X125630380Y-95365000D01*
X125773238Y-95460238D01*
X125868476Y-95555476D01*
X125916095Y-95650714D01*
G04 #@! TO.C,C2*
X115785142Y-106211666D02*
X115832761Y-106259285D01*
X115880380Y-106402142D01*
X115880380Y-106497380D01*
X115832761Y-106640238D01*
X115737523Y-106735476D01*
X115642285Y-106783095D01*
X115451809Y-106830714D01*
X115308952Y-106830714D01*
X115118476Y-106783095D01*
X115023238Y-106735476D01*
X114928000Y-106640238D01*
X114880380Y-106497380D01*
X114880380Y-106402142D01*
X114928000Y-106259285D01*
X114975619Y-106211666D01*
X114975619Y-105830714D02*
X114928000Y-105783095D01*
X114880380Y-105687857D01*
X114880380Y-105449761D01*
X114928000Y-105354523D01*
X114975619Y-105306904D01*
X115070857Y-105259285D01*
X115166095Y-105259285D01*
X115308952Y-105306904D01*
X115880380Y-105878333D01*
X115880380Y-105259285D01*
G04 #@! TO.C,C3*
X117785142Y-88451666D02*
X117832761Y-88499285D01*
X117880380Y-88642142D01*
X117880380Y-88737380D01*
X117832761Y-88880238D01*
X117737523Y-88975476D01*
X117642285Y-89023095D01*
X117451809Y-89070714D01*
X117308952Y-89070714D01*
X117118476Y-89023095D01*
X117023238Y-88975476D01*
X116928000Y-88880238D01*
X116880380Y-88737380D01*
X116880380Y-88642142D01*
X116928000Y-88499285D01*
X116975619Y-88451666D01*
X116880380Y-88118333D02*
X116880380Y-87499285D01*
X117261333Y-87832619D01*
X117261333Y-87689761D01*
X117308952Y-87594523D01*
X117356571Y-87546904D01*
X117451809Y-87499285D01*
X117689904Y-87499285D01*
X117785142Y-87546904D01*
X117832761Y-87594523D01*
X117880380Y-87689761D01*
X117880380Y-87975476D01*
X117832761Y-88070714D01*
X117785142Y-88118333D01*
G04 #@! TO.C,C4*
X113245142Y-106211666D02*
X113292761Y-106259285D01*
X113340380Y-106402142D01*
X113340380Y-106497380D01*
X113292761Y-106640238D01*
X113197523Y-106735476D01*
X113102285Y-106783095D01*
X112911809Y-106830714D01*
X112768952Y-106830714D01*
X112578476Y-106783095D01*
X112483238Y-106735476D01*
X112388000Y-106640238D01*
X112340380Y-106497380D01*
X112340380Y-106402142D01*
X112388000Y-106259285D01*
X112435619Y-106211666D01*
X112673714Y-105354523D02*
X113340380Y-105354523D01*
X112292761Y-105592619D02*
X113007047Y-105830714D01*
X113007047Y-105211666D01*
G04 #@! TO.C,C5*
X172935142Y-113831666D02*
X172982761Y-113879285D01*
X173030380Y-114022142D01*
X173030380Y-114117380D01*
X172982761Y-114260238D01*
X172887523Y-114355476D01*
X172792285Y-114403095D01*
X172601809Y-114450714D01*
X172458952Y-114450714D01*
X172268476Y-114403095D01*
X172173238Y-114355476D01*
X172078000Y-114260238D01*
X172030380Y-114117380D01*
X172030380Y-114022142D01*
X172078000Y-113879285D01*
X172125619Y-113831666D01*
X172030380Y-112926904D02*
X172030380Y-113403095D01*
X172506571Y-113450714D01*
X172458952Y-113403095D01*
X172411333Y-113307857D01*
X172411333Y-113069761D01*
X172458952Y-112974523D01*
X172506571Y-112926904D01*
X172601809Y-112879285D01*
X172839904Y-112879285D01*
X172935142Y-112926904D01*
X172982761Y-112974523D01*
X173030380Y-113069761D01*
X173030380Y-113307857D01*
X172982761Y-113403095D01*
X172935142Y-113450714D01*
G04 #@! TO.C,C6*
X152645142Y-113831666D02*
X152692761Y-113879285D01*
X152740380Y-114022142D01*
X152740380Y-114117380D01*
X152692761Y-114260238D01*
X152597523Y-114355476D01*
X152502285Y-114403095D01*
X152311809Y-114450714D01*
X152168952Y-114450714D01*
X151978476Y-114403095D01*
X151883238Y-114355476D01*
X151788000Y-114260238D01*
X151740380Y-114117380D01*
X151740380Y-114022142D01*
X151788000Y-113879285D01*
X151835619Y-113831666D01*
X151740380Y-112974523D02*
X151740380Y-113165000D01*
X151788000Y-113260238D01*
X151835619Y-113307857D01*
X151978476Y-113403095D01*
X152168952Y-113450714D01*
X152549904Y-113450714D01*
X152645142Y-113403095D01*
X152692761Y-113355476D01*
X152740380Y-113260238D01*
X152740380Y-113069761D01*
X152692761Y-112974523D01*
X152645142Y-112926904D01*
X152549904Y-112879285D01*
X152311809Y-112879285D01*
X152216571Y-112926904D01*
X152168952Y-112974523D01*
X152121333Y-113069761D01*
X152121333Y-113260238D01*
X152168952Y-113355476D01*
X152216571Y-113403095D01*
X152311809Y-113450714D01*
G04 #@! TO.C,C7*
X129785142Y-84621666D02*
X129832761Y-84669285D01*
X129880380Y-84812142D01*
X129880380Y-84907380D01*
X129832761Y-85050238D01*
X129737523Y-85145476D01*
X129642285Y-85193095D01*
X129451809Y-85240714D01*
X129308952Y-85240714D01*
X129118476Y-85193095D01*
X129023238Y-85145476D01*
X128928000Y-85050238D01*
X128880380Y-84907380D01*
X128880380Y-84812142D01*
X128928000Y-84669285D01*
X128975619Y-84621666D01*
X128880380Y-84288333D02*
X128880380Y-83621666D01*
X129880380Y-84050238D01*
G04 #@! TO.C,C8*
X148805142Y-84621666D02*
X148852761Y-84669285D01*
X148900380Y-84812142D01*
X148900380Y-84907380D01*
X148852761Y-85050238D01*
X148757523Y-85145476D01*
X148662285Y-85193095D01*
X148471809Y-85240714D01*
X148328952Y-85240714D01*
X148138476Y-85193095D01*
X148043238Y-85145476D01*
X147948000Y-85050238D01*
X147900380Y-84907380D01*
X147900380Y-84812142D01*
X147948000Y-84669285D01*
X147995619Y-84621666D01*
X148328952Y-84050238D02*
X148281333Y-84145476D01*
X148233714Y-84193095D01*
X148138476Y-84240714D01*
X148090857Y-84240714D01*
X147995619Y-84193095D01*
X147948000Y-84145476D01*
X147900380Y-84050238D01*
X147900380Y-83859761D01*
X147948000Y-83764523D01*
X147995619Y-83716904D01*
X148090857Y-83669285D01*
X148138476Y-83669285D01*
X148233714Y-83716904D01*
X148281333Y-83764523D01*
X148328952Y-83859761D01*
X148328952Y-84050238D01*
X148376571Y-84145476D01*
X148424190Y-84193095D01*
X148519428Y-84240714D01*
X148709904Y-84240714D01*
X148805142Y-84193095D01*
X148852761Y-84145476D01*
X148900380Y-84050238D01*
X148900380Y-83859761D01*
X148852761Y-83764523D01*
X148805142Y-83716904D01*
X148709904Y-83669285D01*
X148519428Y-83669285D01*
X148424190Y-83716904D01*
X148376571Y-83764523D01*
X148328952Y-83859761D01*
G04 #@! TO.C,D1*
X173759904Y-80937380D02*
X173759904Y-79937380D01*
X173998000Y-79937380D01*
X174140857Y-79985000D01*
X174236095Y-80080238D01*
X174283714Y-80175476D01*
X174331333Y-80365952D01*
X174331333Y-80508809D01*
X174283714Y-80699285D01*
X174236095Y-80794523D01*
X174140857Y-80889761D01*
X173998000Y-80937380D01*
X173759904Y-80937380D01*
X175283714Y-80937380D02*
X174712285Y-80937380D01*
X174998000Y-80937380D02*
X174998000Y-79937380D01*
X174902761Y-80080238D01*
X174807523Y-80175476D01*
X174712285Y-80223095D01*
G04 #@! TO.C,D2*
X173759904Y-78397380D02*
X173759904Y-77397380D01*
X173998000Y-77397380D01*
X174140857Y-77445000D01*
X174236095Y-77540238D01*
X174283714Y-77635476D01*
X174331333Y-77825952D01*
X174331333Y-77968809D01*
X174283714Y-78159285D01*
X174236095Y-78254523D01*
X174140857Y-78349761D01*
X173998000Y-78397380D01*
X173759904Y-78397380D01*
X174712285Y-77492619D02*
X174759904Y-77445000D01*
X174855142Y-77397380D01*
X175093238Y-77397380D01*
X175188476Y-77445000D01*
X175236095Y-77492619D01*
X175283714Y-77587857D01*
X175283714Y-77683095D01*
X175236095Y-77825952D01*
X174664666Y-78397380D01*
X175283714Y-78397380D01*
G04 #@! TO.C,D3*
X173759904Y-86017380D02*
X173759904Y-85017380D01*
X173998000Y-85017380D01*
X174140857Y-85065000D01*
X174236095Y-85160238D01*
X174283714Y-85255476D01*
X174331333Y-85445952D01*
X174331333Y-85588809D01*
X174283714Y-85779285D01*
X174236095Y-85874523D01*
X174140857Y-85969761D01*
X173998000Y-86017380D01*
X173759904Y-86017380D01*
X174664666Y-85017380D02*
X175283714Y-85017380D01*
X174950380Y-85398333D01*
X175093238Y-85398333D01*
X175188476Y-85445952D01*
X175236095Y-85493571D01*
X175283714Y-85588809D01*
X175283714Y-85826904D01*
X175236095Y-85922142D01*
X175188476Y-85969761D01*
X175093238Y-86017380D01*
X174807523Y-86017380D01*
X174712285Y-85969761D01*
X174664666Y-85922142D01*
G04 #@! TO.C,D4*
X173759904Y-83477380D02*
X173759904Y-82477380D01*
X173998000Y-82477380D01*
X174140857Y-82525000D01*
X174236095Y-82620238D01*
X174283714Y-82715476D01*
X174331333Y-82905952D01*
X174331333Y-83048809D01*
X174283714Y-83239285D01*
X174236095Y-83334523D01*
X174140857Y-83429761D01*
X173998000Y-83477380D01*
X173759904Y-83477380D01*
X175188476Y-82810714D02*
X175188476Y-83477380D01*
X174950380Y-82429761D02*
X174712285Y-83144047D01*
X175331333Y-83144047D01*
G04 #@! TO.C,D5*
X111529904Y-102897380D02*
X111529904Y-101897380D01*
X111768000Y-101897380D01*
X111910857Y-101945000D01*
X112006095Y-102040238D01*
X112053714Y-102135476D01*
X112101333Y-102325952D01*
X112101333Y-102468809D01*
X112053714Y-102659285D01*
X112006095Y-102754523D01*
X111910857Y-102849761D01*
X111768000Y-102897380D01*
X111529904Y-102897380D01*
X113006095Y-101897380D02*
X112529904Y-101897380D01*
X112482285Y-102373571D01*
X112529904Y-102325952D01*
X112625142Y-102278333D01*
X112863238Y-102278333D01*
X112958476Y-102325952D01*
X113006095Y-102373571D01*
X113053714Y-102468809D01*
X113053714Y-102706904D01*
X113006095Y-102802142D01*
X112958476Y-102849761D01*
X112863238Y-102897380D01*
X112625142Y-102897380D01*
X112529904Y-102849761D01*
X112482285Y-102802142D01*
G04 #@! TO.C,R1*
X170521333Y-80937380D02*
X170188000Y-80461190D01*
X169949904Y-80937380D02*
X169949904Y-79937380D01*
X170330857Y-79937380D01*
X170426095Y-79985000D01*
X170473714Y-80032619D01*
X170521333Y-80127857D01*
X170521333Y-80270714D01*
X170473714Y-80365952D01*
X170426095Y-80413571D01*
X170330857Y-80461190D01*
X169949904Y-80461190D01*
X171473714Y-80937380D02*
X170902285Y-80937380D01*
X171188000Y-80937380D02*
X171188000Y-79937380D01*
X171092761Y-80080238D01*
X170997523Y-80175476D01*
X170902285Y-80223095D01*
G04 #@! TO.C,R2*
X170521333Y-78397380D02*
X170188000Y-77921190D01*
X169949904Y-78397380D02*
X169949904Y-77397380D01*
X170330857Y-77397380D01*
X170426095Y-77445000D01*
X170473714Y-77492619D01*
X170521333Y-77587857D01*
X170521333Y-77730714D01*
X170473714Y-77825952D01*
X170426095Y-77873571D01*
X170330857Y-77921190D01*
X169949904Y-77921190D01*
X170902285Y-77492619D02*
X170949904Y-77445000D01*
X171045142Y-77397380D01*
X171283238Y-77397380D01*
X171378476Y-77445000D01*
X171426095Y-77492619D01*
X171473714Y-77587857D01*
X171473714Y-77683095D01*
X171426095Y-77825952D01*
X170854666Y-78397380D01*
X171473714Y-78397380D01*
G04 #@! TO.C,R3*
X170521333Y-86017380D02*
X170188000Y-85541190D01*
X169949904Y-86017380D02*
X169949904Y-85017380D01*
X170330857Y-85017380D01*
X170426095Y-85065000D01*
X170473714Y-85112619D01*
X170521333Y-85207857D01*
X170521333Y-85350714D01*
X170473714Y-85445952D01*
X170426095Y-85493571D01*
X170330857Y-85541190D01*
X169949904Y-85541190D01*
X170854666Y-85017380D02*
X171473714Y-85017380D01*
X171140380Y-85398333D01*
X171283238Y-85398333D01*
X171378476Y-85445952D01*
X171426095Y-85493571D01*
X171473714Y-85588809D01*
X171473714Y-85826904D01*
X171426095Y-85922142D01*
X171378476Y-85969761D01*
X171283238Y-86017380D01*
X170997523Y-86017380D01*
X170902285Y-85969761D01*
X170854666Y-85922142D01*
G04 #@! TO.C,R4*
X170521333Y-83477380D02*
X170188000Y-83001190D01*
X169949904Y-83477380D02*
X169949904Y-82477380D01*
X170330857Y-82477380D01*
X170426095Y-82525000D01*
X170473714Y-82572619D01*
X170521333Y-82667857D01*
X170521333Y-82810714D01*
X170473714Y-82905952D01*
X170426095Y-82953571D01*
X170330857Y-83001190D01*
X169949904Y-83001190D01*
X171378476Y-82810714D02*
X171378476Y-83477380D01*
X171140380Y-82429761D02*
X170902285Y-83144047D01*
X171521333Y-83144047D01*
G04 #@! TO.C,R5*
X176390380Y-110021666D02*
X175914190Y-110355000D01*
X176390380Y-110593095D02*
X175390380Y-110593095D01*
X175390380Y-110212142D01*
X175438000Y-110116904D01*
X175485619Y-110069285D01*
X175580857Y-110021666D01*
X175723714Y-110021666D01*
X175818952Y-110069285D01*
X175866571Y-110116904D01*
X175914190Y-110212142D01*
X175914190Y-110593095D01*
X175390380Y-109116904D02*
X175390380Y-109593095D01*
X175866571Y-109640714D01*
X175818952Y-109593095D01*
X175771333Y-109497857D01*
X175771333Y-109259761D01*
X175818952Y-109164523D01*
X175866571Y-109116904D01*
X175961809Y-109069285D01*
X176199904Y-109069285D01*
X176295142Y-109116904D01*
X176342761Y-109164523D01*
X176390380Y-109259761D01*
X176390380Y-109497857D01*
X176342761Y-109593095D01*
X176295142Y-109640714D01*
G04 #@! TO.C,R6*
X152741333Y-76187380D02*
X152408000Y-75711190D01*
X152169904Y-76187380D02*
X152169904Y-75187380D01*
X152550857Y-75187380D01*
X152646095Y-75235000D01*
X152693714Y-75282619D01*
X152741333Y-75377857D01*
X152741333Y-75520714D01*
X152693714Y-75615952D01*
X152646095Y-75663571D01*
X152550857Y-75711190D01*
X152169904Y-75711190D01*
X153598476Y-75187380D02*
X153408000Y-75187380D01*
X153312761Y-75235000D01*
X153265142Y-75282619D01*
X153169904Y-75425476D01*
X153122285Y-75615952D01*
X153122285Y-75996904D01*
X153169904Y-76092142D01*
X153217523Y-76139761D01*
X153312761Y-76187380D01*
X153503238Y-76187380D01*
X153598476Y-76139761D01*
X153646095Y-76092142D01*
X153693714Y-75996904D01*
X153693714Y-75758809D01*
X153646095Y-75663571D01*
X153598476Y-75615952D01*
X153503238Y-75568333D01*
X153312761Y-75568333D01*
X153217523Y-75615952D01*
X153169904Y-75663571D01*
X153122285Y-75758809D01*
G04 #@! TO.C,R7*
X117181333Y-99047380D02*
X116848000Y-98571190D01*
X116609904Y-99047380D02*
X116609904Y-98047380D01*
X116990857Y-98047380D01*
X117086095Y-98095000D01*
X117133714Y-98142619D01*
X117181333Y-98237857D01*
X117181333Y-98380714D01*
X117133714Y-98475952D01*
X117086095Y-98523571D01*
X116990857Y-98571190D01*
X116609904Y-98571190D01*
X117514666Y-98047380D02*
X118181333Y-98047380D01*
X117752761Y-99047380D01*
G04 #@! TO.C,U1*
X166625380Y-83946904D02*
X167434904Y-83946904D01*
X167530142Y-83899285D01*
X167577761Y-83851666D01*
X167625380Y-83756428D01*
X167625380Y-83565952D01*
X167577761Y-83470714D01*
X167530142Y-83423095D01*
X167434904Y-83375476D01*
X166625380Y-83375476D01*
X167625380Y-82375476D02*
X167625380Y-82946904D01*
X167625380Y-82661190D02*
X166625380Y-82661190D01*
X166768238Y-82756428D01*
X166863476Y-82851666D01*
X166911095Y-82946904D01*
G04 #@! TO.C,U2*
X119130380Y-111886904D02*
X119939904Y-111886904D01*
X120035142Y-111839285D01*
X120082761Y-111791666D01*
X120130380Y-111696428D01*
X120130380Y-111505952D01*
X120082761Y-111410714D01*
X120035142Y-111363095D01*
X119939904Y-111315476D01*
X119130380Y-111315476D01*
X119225619Y-110886904D02*
X119178000Y-110839285D01*
X119130380Y-110744047D01*
X119130380Y-110505952D01*
X119178000Y-110410714D01*
X119225619Y-110363095D01*
X119320857Y-110315476D01*
X119416095Y-110315476D01*
X119558952Y-110363095D01*
X120130380Y-110934523D01*
X120130380Y-110315476D01*
G04 #@! TO.C,J13*
X140668476Y-106977380D02*
X140668476Y-107691666D01*
X140620857Y-107834523D01*
X140525619Y-107929761D01*
X140382761Y-107977380D01*
X140287523Y-107977380D01*
X141668476Y-107977380D02*
X141097047Y-107977380D01*
X141382761Y-107977380D02*
X141382761Y-106977380D01*
X141287523Y-107120238D01*
X141192285Y-107215476D01*
X141097047Y-107263095D01*
X142001809Y-106977380D02*
X142620857Y-106977380D01*
X142287523Y-107358333D01*
X142430380Y-107358333D01*
X142525619Y-107405952D01*
X142573238Y-107453571D01*
X142620857Y-107548809D01*
X142620857Y-107786904D01*
X142573238Y-107882142D01*
X142525619Y-107929761D01*
X142430380Y-107977380D01*
X142144666Y-107977380D01*
X142049428Y-107929761D01*
X142001809Y-107882142D01*
G04 #@! TO.C,J7*
X128444666Y-114597380D02*
X128444666Y-115311666D01*
X128397047Y-115454523D01*
X128301809Y-115549761D01*
X128158952Y-115597380D01*
X128063714Y-115597380D01*
X128825619Y-114597380D02*
X129492285Y-114597380D01*
X129063714Y-115597380D01*
G04 #@! TO.C,J8*
X130984666Y-114597380D02*
X130984666Y-115311666D01*
X130937047Y-115454523D01*
X130841809Y-115549761D01*
X130698952Y-115597380D01*
X130603714Y-115597380D01*
X131603714Y-115025952D02*
X131508476Y-114978333D01*
X131460857Y-114930714D01*
X131413238Y-114835476D01*
X131413238Y-114787857D01*
X131460857Y-114692619D01*
X131508476Y-114645000D01*
X131603714Y-114597380D01*
X131794190Y-114597380D01*
X131889428Y-114645000D01*
X131937047Y-114692619D01*
X131984666Y-114787857D01*
X131984666Y-114835476D01*
X131937047Y-114930714D01*
X131889428Y-114978333D01*
X131794190Y-115025952D01*
X131603714Y-115025952D01*
X131508476Y-115073571D01*
X131460857Y-115121190D01*
X131413238Y-115216428D01*
X131413238Y-115406904D01*
X131460857Y-115502142D01*
X131508476Y-115549761D01*
X131603714Y-115597380D01*
X131794190Y-115597380D01*
X131889428Y-115549761D01*
X131937047Y-115502142D01*
X131984666Y-115406904D01*
X131984666Y-115216428D01*
X131937047Y-115121190D01*
X131889428Y-115073571D01*
X131794190Y-115025952D01*
G04 #@! TO.C,J9*
X133524666Y-114597380D02*
X133524666Y-115311666D01*
X133477047Y-115454523D01*
X133381809Y-115549761D01*
X133238952Y-115597380D01*
X133143714Y-115597380D01*
X134048476Y-115597380D02*
X134238952Y-115597380D01*
X134334190Y-115549761D01*
X134381809Y-115502142D01*
X134477047Y-115359285D01*
X134524666Y-115168809D01*
X134524666Y-114787857D01*
X134477047Y-114692619D01*
X134429428Y-114645000D01*
X134334190Y-114597380D01*
X134143714Y-114597380D01*
X134048476Y-114645000D01*
X134000857Y-114692619D01*
X133953238Y-114787857D01*
X133953238Y-115025952D01*
X134000857Y-115121190D01*
X134048476Y-115168809D01*
X134143714Y-115216428D01*
X134334190Y-115216428D01*
X134429428Y-115168809D01*
X134477047Y-115121190D01*
X134524666Y-115025952D01*
G04 #@! TO.C,J11*
X135588476Y-106977380D02*
X135588476Y-107691666D01*
X135540857Y-107834523D01*
X135445619Y-107929761D01*
X135302761Y-107977380D01*
X135207523Y-107977380D01*
X136588476Y-107977380D02*
X136017047Y-107977380D01*
X136302761Y-107977380D02*
X136302761Y-106977380D01*
X136207523Y-107120238D01*
X136112285Y-107215476D01*
X136017047Y-107263095D01*
X137540857Y-107977380D02*
X136969428Y-107977380D01*
X137255142Y-107977380D02*
X137255142Y-106977380D01*
X137159904Y-107120238D01*
X137064666Y-107215476D01*
X136969428Y-107263095D01*
G04 #@! TO.C,J12*
X138128476Y-106977380D02*
X138128476Y-107691666D01*
X138080857Y-107834523D01*
X137985619Y-107929761D01*
X137842761Y-107977380D01*
X137747523Y-107977380D01*
X139128476Y-107977380D02*
X138557047Y-107977380D01*
X138842761Y-107977380D02*
X138842761Y-106977380D01*
X138747523Y-107120238D01*
X138652285Y-107215476D01*
X138557047Y-107263095D01*
X139509428Y-107072619D02*
X139557047Y-107025000D01*
X139652285Y-106977380D01*
X139890380Y-106977380D01*
X139985619Y-107025000D01*
X140033238Y-107072619D01*
X140080857Y-107167857D01*
X140080857Y-107263095D01*
X140033238Y-107405952D01*
X139461809Y-107977380D01*
X140080857Y-107977380D01*
G04 #@! TO.C,J10*
X121626380Y-114474523D02*
X122340666Y-114474523D01*
X122483523Y-114522142D01*
X122578761Y-114617380D01*
X122626380Y-114760238D01*
X122626380Y-114855476D01*
X122626380Y-113474523D02*
X122626380Y-114045952D01*
X122626380Y-113760238D02*
X121626380Y-113760238D01*
X121769238Y-113855476D01*
X121864476Y-113950714D01*
X121912095Y-114045952D01*
X121626380Y-112855476D02*
X121626380Y-112760238D01*
X121674000Y-112665000D01*
X121721619Y-112617380D01*
X121816857Y-112569761D01*
X122007333Y-112522142D01*
X122245428Y-112522142D01*
X122435904Y-112569761D01*
X122531142Y-112617380D01*
X122578761Y-112665000D01*
X122626380Y-112760238D01*
X122626380Y-112855476D01*
X122578761Y-112950714D01*
X122531142Y-112998333D01*
X122435904Y-113045952D01*
X122245428Y-113093571D01*
X122007333Y-113093571D01*
X121816857Y-113045952D01*
X121721619Y-112998333D01*
X121674000Y-112950714D01*
X121626380Y-112855476D01*
G04 #@! TD*
M02*
